<svg width="48" height="48" viewBox="0 0 48 48" fill="none" xmlns="http://www.w3.org/2000/svg">
<path d="M25.5 10.5C25.5 10.05 25.5 9.45 25.65 9H7.5C4.95 9 3 10.95 3 13.5V40.5C3 43.05 4.95 45 7.5 45H34.5C37.05 45 39 43.05 39 40.5V22.35C38.55 22.35 37.95 22.5 37.5 22.5C30.9 22.5 25.5 17.1 25.5 10.5Z" fill="#0A13DF"/>
<path d="M37.5 19.5C42.4706 19.5 46.5 15.4706 46.5 10.5C46.5 5.52944 42.4706 1.5 37.5 1.5C32.5294 1.5 28.5 5.52944 28.5 10.5C28.5 15.4706 32.5294 19.5 37.5 19.5Z" fill="#0A13DF"/>
</svg>
