<?xml version="1.0" encoding="UTF-8"?>
<!DOCTYPE svg PUBLIC "-//W3C//DTD SVG 1.1//EN" "http://www.w3.org/Graphics/SVG/1.1/DTD/svg11.dtd">
<!-- Creator: CorelDRAW X7 -->
<svg xmlns="http://www.w3.org/2000/svg" xml:space="preserve" width="27mm" height="27mm" version="1.1" style="shape-rendering:geometricPrecision; text-rendering:geometricPrecision; image-rendering:optimizeQuality; fill-rule:evenodd; clip-rule:evenodd"
viewBox="0 0 2700 2700"
 xmlns:xlink="http://www.w3.org/1999/xlink">
 <defs>
  <style type="text/css">
   <![CDATA[
    .fil0 {fill:#090BA8}
    .fil4 {fill:#F4F4F4}
    .fil3 {fill:#FAE493}
    .fil1 {fill:#FCFAD8}
    .fil2 {fill:white}
   ]]>
  </style>
 </defs>
 <g id="Layer_x0020_1">
  <metadata id="CorelCorpID_0Corel-Layer"/>
  <path class="fil0" d="M1364 1775l461 0 0 125 -461 0c-19,-23 -25,-105 0,-125zm886 -289c31,3 54,3 52,78 -2,61 -17,61 -64,63l-413 0c-440,0 -501,44 -473,-112l8 -18c35,-17 71,-11 116,-10l774 -1zm-887 -274l924 0 15 52c-1,122 2,55 -15,76l-924 0c-20,-25 -27,-106 0,-128zm-286 316l0 10 -1 701c68,0 702,-16 750,11l397 387c10,-81 -10,-329 3,-375 11,-41 30,-23 160,-23 63,0 126,0 188,0l-2 -1357 -754 -4 -741 -3 0 653z"/>
  <path class="fil1" d="M665 1528c33,61 9,299 8,389 108,-56 295,-315 404,-389l0 -653 741 3 4 -12 2 -711 -1495 0 -2 1372 338 1z"/>
  <polygon class="fil2" points="1363,1340 2287,1340 2287,1212 1363,1212 "/>
  <polygon class="fil2" points="1363,1616 2290,1613 2287,1497 1360,1501 "/>
  <polygon class="fil2" points="1364,1900 1825,1900 1825,1775 1364,1775 "/>
  <path class="fil3" d="M1360 1501l927 -4 3 116 -927 3 -3 -115zm0 -4l-8 18c-28,156 33,112 473,112l413 0c47,-2 62,-2 64,-63 2,-75 -21,-75 -52,-78l-774 1c-45,-1 -81,-7 -116,10z"/>
  <path class="fil3" d="M2223 2637c32,14 14,-353 14,-389 61,5 295,16 337,-9 -62,0 -125,0 -188,0 -130,0 -149,-18 -160,23 -13,46 7,294 -3,375z"/>
  <path class="fil3" d="M2572 882c-15,-26 6,-9 -25,-15l-725 -1 -4 12 754 4z"/>
  <path class="fil3" d="M1826 2250c-48,-27 -682,-11 -750,-11 10,6 3,7 26,11l724 0z"/>
  <path class="fil3" d="M1363 1340l0 -128c-27,22 -20,103 0,128z"/>
  <path class="fil3" d="M1364 1900l0 -125c-25,20 -19,102 0,125z"/>
  <path class="fil3" d="M2287 1340c17,-21 14,46 15,-76l-15 -52 0 128z"/>
  <rect class="fil4" transform="matrix(0.644275 0.523922 -0.523922 0.644275 2417.38 265.583)" width="217" height="217"/>
  <rect class="fil4" transform="matrix(0.50736 0.412584 -0.412584 0.50736 322.016 1984.5)" width="217" height="217"/>
  <rect class="fil4" transform="matrix(0.354959 0.00243315 -0.00243315 0.354959 1285.46 2460.05)" width="217" height="217"/>
 </g>
</svg>
