<svg width="176" height="177" viewBox="0 0 176 177" fill="none" xmlns="http://www.w3.org/2000/svg">
<g clip-path="url(#clip0_126_50)">
<g style="mix-blend-mode:multiply" opacity="0.3">
<g style="mix-blend-mode:multiply" opacity="0.3">
<path d="M143.841 68.6298C132.241 52.9604 110.13 49.6645 94.4565 61.2682C78.7826 72.8719 75.4803 94.9811 87.0807 110.651C98.681 126.32 120.791 129.616 136.465 118.012C152.139 106.408 155.441 84.2992 143.841 68.6298Z" fill="white"/>
</g>
<g style="mix-blend-mode:multiply" opacity="0.3">
<path d="M143.05 68.5116C131.45 52.8422 109.339 49.5463 93.6655 61.15C77.9916 72.7537 74.6893 94.8629 86.2896 110.532C97.89 126.202 120 129.498 135.674 117.894C151.348 106.29 154.65 84.181 143.05 68.5116Z" fill="#F3F3F4"/>
</g>
<g style="mix-blend-mode:multiply" opacity="0.3">
<path d="M142.265 68.4022C130.664 52.7328 108.554 49.4369 92.8803 61.0406C77.2064 72.6443 73.9041 94.7536 85.5045 110.423C97.1048 126.092 119.215 129.388 134.889 117.785C150.563 106.181 153.865 84.0716 142.265 68.4022Z" fill="#E8E6E8"/>
</g>
<g style="mix-blend-mode:multiply" opacity="0.3">
<path d="M141.474 68.2841C129.873 52.6147 107.763 49.3188 92.0893 60.9225C76.4154 72.5262 73.1131 94.6354 84.7135 110.305C96.3138 125.974 118.424 129.27 134.098 117.666C149.772 106.063 153.074 83.9535 141.474 68.2841Z" fill="#DCDBDD"/>
</g>
<g style="mix-blend-mode:multiply" opacity="0.3">
<path d="M130.485 58.9072C113.77 48.8711 92.0789 54.2869 82.0374 71.0038C71.9958 87.7206 77.4062 109.408 94.1216 119.444C110.837 129.48 132.528 124.065 142.57 107.348C152.611 90.6308 147.201 68.9433 130.485 58.9072Z" fill="#D1CFD2"/>
</g>
<g style="mix-blend-mode:multiply" opacity="0.3">
<path d="M129.7 58.793C112.985 48.7569 91.2938 54.1727 81.2523 70.8895C71.2107 87.6064 76.621 109.294 93.3365 119.33C110.052 129.366 131.743 123.95 141.784 107.233C151.826 90.5166 146.416 68.8291 129.7 58.793Z" fill="#C6C4C7"/>
</g>
<g style="mix-blend-mode:multiply" opacity="0.3">
<path d="M128.906 58.6728C112.191 48.6368 90.4999 54.0526 80.4583 70.7694C70.4168 87.4863 75.8271 109.174 92.5425 119.21C109.258 129.246 130.949 123.83 140.99 107.113C151.032 90.3965 145.622 68.7089 128.906 58.6728Z" fill="#BCB9BD"/>
</g>
<g style="mix-blend-mode:multiply" opacity="0.3">
<path d="M128.126 58.5557C111.41 48.5196 89.7196 53.9354 79.6781 70.6522C69.6365 87.3691 75.0468 109.057 91.7623 119.093C108.478 129.129 130.169 123.713 140.21 106.996C150.252 90.2793 144.841 68.5918 128.126 58.5557Z" fill="#B1AFB3"/>
</g>
<g style="mix-blend-mode:multiply" opacity="0.3">
<path d="M127.337 58.4277C110.621 48.3916 88.9306 53.8074 78.889 70.5243C68.8475 87.2411 74.2577 108.929 90.9732 118.965C107.689 129.001 129.38 123.585 139.421 106.868C149.463 90.1513 144.052 68.4638 127.337 58.4277Z" fill="#A7A5A9"/>
</g>
<g style="mix-blend-mode:multiply" opacity="0.3">
<path d="M126.549 58.3164C109.833 48.2803 88.1425 53.6961 78.1009 70.413C68.0594 87.1298 73.4696 108.817 90.1851 118.853C106.901 128.89 128.591 123.474 138.633 106.757C148.675 90.04 143.264 68.3525 126.549 58.3164Z" fill="#9D9B9F"/>
</g>
<g style="mix-blend-mode:multiply" opacity="0.3">
<path d="M125.754 58.1972C109.038 48.1611 87.3475 53.577 77.3059 70.2938C67.2644 87.0107 72.6747 108.698 89.3902 118.734C106.106 128.77 127.797 123.355 137.838 106.638C147.88 89.9209 142.469 68.2333 125.754 58.1972Z" fill="#949196"/>
</g>
<g style="mix-blend-mode:multiply" opacity="0.3">
<path d="M124.96 58.0781C108.244 48.042 86.5536 53.4578 76.512 70.1747C66.4705 86.8915 71.8808 108.579 88.5963 118.615C105.312 128.651 127.003 123.235 137.044 106.519C147.086 89.8017 141.675 68.1142 124.96 58.0781Z" fill="#8B888D"/>
</g>
<g style="mix-blend-mode:multiply" opacity="0.3">
<path d="M124.181 57.9716C107.465 47.9355 85.7743 53.3514 75.7327 70.0682C65.6912 86.7851 71.1014 108.473 87.8169 118.509C104.532 128.545 126.223 123.129 136.265 106.412C146.306 89.6953 140.896 68.0077 124.181 57.9716Z" fill="#817F84"/>
</g>
<g style="mix-blend-mode:multiply" opacity="0.3">
<path d="M123.386 57.8525C106.67 47.8164 84.9794 53.2323 74.9378 69.9491C64.8963 86.666 70.3066 108.353 87.022 118.39C103.738 128.426 125.428 123.01 135.47 106.293C145.511 89.5762 140.101 67.8886 123.386 57.8525Z" fill="#79767B"/>
</g>
<g style="mix-blend-mode:multiply" opacity="0.3">
<path d="M122.597 57.7246C105.881 47.6885 84.1903 53.1043 74.1488 69.8212C64.1072 86.538 69.5175 108.226 86.233 118.262C102.948 128.298 124.639 122.882 134.681 106.165C144.722 89.4482 139.312 67.7607 122.597 57.7246Z" fill="#706D73"/>
</g>
<g style="mix-blend-mode:multiply" opacity="0.3">
<path d="M121.809 57.6133C105.093 47.5772 83.4022 52.993 73.3607 69.7098C63.3191 86.4267 68.7294 108.114 85.4449 118.15C102.16 128.186 123.851 122.771 133.893 106.054C143.934 89.3369 138.524 67.6493 121.809 57.6133Z" fill="#68656B"/>
</g>
<g style="mix-blend-mode:multiply" opacity="0.3">
<path d="M121.022 57.4873C104.307 47.4512 82.6161 52.867 72.5746 69.5839C62.533 86.3007 67.9433 107.988 84.6588 118.024C101.374 128.06 123.065 122.645 133.107 105.928C143.148 89.2109 137.738 67.5234 121.022 57.4873Z" fill="#605D63"/>
</g>
<g style="mix-blend-mode:multiply" opacity="0.3">
<path d="M120.234 57.376C103.519 47.3399 81.828 52.7557 71.7865 69.4725C61.7449 86.1894 67.1552 107.877 83.8707 117.913C100.586 127.949 122.277 122.533 132.319 105.816C142.36 89.0996 136.95 67.412 120.234 57.376Z" fill="#58565B"/>
</g>
<g style="mix-blend-mode:multiply" opacity="0.3">
<path d="M119.449 57.2617C102.734 47.2256 81.0428 52.6414 71.0013 69.3583C60.9597 86.0751 66.37 107.763 83.0855 117.799C99.801 127.835 121.492 122.419 131.533 105.702C141.575 88.9853 136.165 67.2978 119.449 57.2617Z" fill="#514F54"/>
</g>
<g style="mix-blend-mode:multiply" opacity="0.3">
<path d="M118.654 57.1425C101.939 47.1064 80.2479 52.5223 70.2063 69.2391C60.1648 85.956 65.5751 107.644 82.2906 117.68C99.006 127.716 120.697 122.3 130.738 105.583C140.78 88.8662 135.37 67.1786 118.654 57.1425Z" fill="#49484D"/>
</g>
<g style="mix-blend-mode:multiply" opacity="0.3">
<path d="M117.866 57.0312C101.151 46.9951 79.4598 52.411 69.4183 69.1278C59.3767 85.8447 64.787 107.532 81.5025 117.568C98.218 127.604 119.909 122.189 129.95 105.472C139.992 88.7549 134.582 67.0673 117.866 57.0312Z" fill="#424146"/>
</g>
<g style="mix-blend-mode:multiply" opacity="0.3">
<path d="M117.077 56.9033C100.362 46.8672 78.6708 52.2831 68.6292 68.9999C58.5877 85.7167 63.998 107.404 80.7134 117.44C97.4289 127.476 119.12 122.061 129.161 105.344C139.203 88.6269 133.793 66.9394 117.077 56.9033Z" fill="#3B3A3F"/>
</g>
<g style="mix-blend-mode:multiply" opacity="0.3">
<path d="M116.289 56.792C99.5735 46.7559 77.8827 52.1717 67.8411 68.8886C57.7996 85.6054 63.2099 107.293 79.9254 117.329C96.6408 127.365 118.332 121.949 128.373 105.232C138.415 88.5156 133.005 66.8281 116.289 56.792Z" fill="#343339"/>
</g>
<g style="mix-blend-mode:multiply" opacity="0.3">
<path d="M115.495 56.6728C98.7796 46.6368 77.0887 52.0526 67.0472 68.7694C57.0056 85.4863 62.4159 107.174 79.1314 117.21C95.8469 127.246 117.538 121.83 127.579 105.113C137.621 88.3965 132.211 66.7089 115.495 56.6728Z" fill="#2E2D33"/>
</g>
<g style="mix-blend-mode:multiply" opacity="0.3">
<path d="M114.717 56.5527C98.0013 46.5166 76.3104 51.9324 66.2689 68.6492C56.2273 85.3661 61.6376 107.054 78.3531 117.09C95.0686 127.126 116.759 121.71 126.801 104.993C136.843 88.2763 131.432 66.5888 114.717 56.5527Z" fill="#28272D"/>
</g>
<g style="mix-blend-mode:multiply" opacity="0.3">
<path d="M113.929 56.4414C97.2132 46.4053 75.5223 51.8211 65.4808 68.5379C55.4392 85.2548 60.8495 106.942 77.565 116.978C94.2805 127.015 115.971 121.599 126.013 104.882C136.054 88.165 130.644 66.4775 113.929 56.4414Z" fill="#222227"/>
</g>
<g style="mix-blend-mode:multiply" opacity="0.3">
<path d="M113.135 56.3213C96.4192 46.2852 74.7284 51.701 64.6868 68.4178C54.6453 85.1347 60.0556 106.822 76.771 116.858C93.4865 126.894 115.177 121.479 125.219 104.762C135.261 88.0449 129.85 66.3573 113.135 56.3213Z" fill="#1C1C21"/>
</g>
<g style="mix-blend-mode:multiply" opacity="0.3">
<path d="M112.346 56.1933C95.6302 46.1573 73.9393 51.5731 63.8978 68.2899C53.8562 85.0068 59.2665 106.694 75.982 116.73C92.6975 126.766 114.388 121.351 124.43 104.634C134.471 87.917 129.061 66.2294 112.346 56.1933Z" fill="#16171B"/>
</g>
<g style="mix-blend-mode:multiply" opacity="0.3">
<path d="M111.558 56.082C94.8421 46.0459 73.1512 51.4617 63.1097 68.1786C53.0681 84.8954 58.4784 106.583 75.1939 116.619C91.9094 126.655 113.6 121.239 123.642 104.522C133.683 87.8056 128.273 66.1181 111.558 56.082Z" fill="#101115"/>
</g>
<g style="mix-blend-mode:multiply" opacity="0.3">
<path d="M110.763 55.9629C94.0471 45.9268 72.3563 51.3426 62.3147 68.0594C52.2732 84.7763 57.6835 106.464 74.399 116.5C91.1144 126.536 112.805 121.12 122.847 104.403C132.888 87.6865 127.478 65.999 110.763 55.9629Z" fill="#0A0B0E"/>
</g>
<g style="mix-blend-mode:multiply" opacity="0.3">
<path d="M109.983 55.8564C93.2679 45.8204 71.577 51.2362 61.5355 67.953C51.4939 84.6699 56.9042 106.357 73.6197 116.393C90.3352 126.43 112.026 121.014 122.068 104.297C132.109 87.5801 126.699 65.8925 109.983 55.8564Z" fill="#050507"/>
</g>
<g style="mix-blend-mode:multiply" opacity="0.3">
<path d="M109.189 55.7373C92.4739 45.7012 70.783 51.117 60.7415 67.8339C50.6999 84.5507 56.1103 106.238 72.8257 116.274C89.5412 126.31 111.232 120.895 121.274 104.178C131.315 87.4609 125.905 65.7734 109.189 55.7373Z" fill="#010101"/>
</g>
</g>
<path d="M126.197 133.542C125.239 134.251 124.289 134.954 123.287 135.57L126.43 140.392C127.509 139.694 128.574 138.943 129.621 138.167C138.455 131.669 145.49 123.03 150.066 113.065C154.641 103.1 156.606 92.1348 155.776 81.2021L150.031 81.6236C150.786 91.587 148.994 101.579 144.825 110.662C140.656 119.744 134.245 127.617 126.197 133.542Z" fill="url(#paint0_linear_126_50)"/>
<path d="M55.8119 38.4682C64.3263 32.1613 74.3758 28.2524 84.9132 27.1489C95.4506 26.0454 106.09 27.7876 115.724 32.1939L118.125 26.9491C107.564 22.1174 95.8995 20.2049 84.3467 21.4109C72.7938 22.6169 61.7746 26.8972 52.436 33.8063L55.8119 38.4682Z" fill="url(#paint1_linear_126_50)"/>
<path d="M26.0934 86.9026C26.2596 98.515 29.533 109.87 35.5736 119.788C41.6141 129.705 50.2013 137.824 60.4427 143.299L63.1514 138.216C53.8187 133.226 45.9936 125.828 40.4894 116.79C34.9852 107.752 32.003 97.4046 31.8526 86.8226L26.0934 86.9026Z" fill="url(#paint2_linear_126_50)"/>
<path d="M50.4522 105.291L45.2513 107.771C48.3324 114.219 52.7384 119.943 58.1818 124.572C63.6253 129.201 69.984 132.63 76.843 134.636C83.702 136.642 90.9072 137.178 97.9885 136.212C105.07 135.245 111.868 132.796 117.94 129.025L114.887 124.137C109.502 127.482 103.472 129.655 97.1916 130.511C90.9109 131.368 84.5205 130.89 78.4377 129.11C72.3549 127.329 66.7166 124.284 61.8912 120.176C57.0658 116.067 53.1618 110.987 50.4342 105.266L50.4522 105.291Z" fill="url(#paint3_linear_126_50)"/>
<path d="M59.3832 54.0032C67.8652 45.6076 79.3303 40.918 91.2634 40.963C103.197 41.008 114.623 45.7839 123.037 54.2432C124.221 55.4496 125.343 56.7157 126.398 58.0365L130.905 54.4486C126.468 48.8499 120.9 44.2503 114.564 40.95C108.228 37.6496 101.266 35.7228 94.1342 35.2953C87.0021 34.8679 79.8595 35.9494 73.1729 38.4692C66.4863 40.989 60.406 44.8904 55.3289 49.9189L59.3832 54.0032Z" fill="url(#paint4_linear_126_50)"/>
<path d="M109.189 55.7373C92.4739 45.7012 70.7831 51.117 60.7415 67.8338C50.6999 84.5507 56.1103 106.238 72.8257 116.274C89.5412 126.31 111.232 120.895 121.274 104.178C131.315 87.4609 125.905 65.7734 109.189 55.7373Z" fill="url(#paint5_linear_126_50)"/>
<path d="M122.277 62.8591C126.854 69.042 129.495 76.4437 129.865 84.1283C130.234 91.8129 128.317 99.4352 124.355 106.031C120.393 112.628 114.564 117.901 107.605 121.186C100.646 124.47 92.87 125.618 85.2602 124.483C77.6503 123.349 70.5485 119.984 64.8525 114.813C59.1566 109.642 55.1226 102.898 53.2605 95.4335C51.3984 87.9691 51.7919 80.1197 54.3912 72.8777C56.9905 65.6357 61.679 59.3264 67.8636 54.7478C76.1607 48.6187 86.5497 46.0304 96.7509 47.5511C106.952 49.0718 116.132 54.5771 122.277 62.8591ZM65.5247 104.874C69.2561 109.911 74.3977 113.728 80.2993 115.842C86.2009 117.957 92.5975 118.274 98.6804 116.754C104.763 115.233 110.259 111.944 114.473 107.301C118.688 102.658 121.431 96.8704 122.356 90.6697C123.281 84.469 122.347 78.1337 119.671 72.4649C116.995 66.7961 112.698 62.0483 107.324 58.8219C101.949 55.5955 95.7379 54.0354 89.4756 54.3387C83.2132 54.642 77.1809 56.7953 72.1414 60.5261C65.3885 65.5354 60.8988 73.019 59.6583 81.3338C58.4177 89.6486 60.5276 98.1149 65.5247 104.874Z" fill="white"/>
<path d="M81.9672 82.472C81.4392 83.496 81.1752 84.848 81.1752 86.528C81.1752 88.208 81.4392 89.56 81.9672 90.584C82.4952 91.608 83.3192 92.12 84.4392 92.12C85.5592 92.12 86.3832 91.608 86.9112 90.584C87.4392 89.56 87.7032 88.208 87.7032 86.528C87.7032 84.848 87.4392 83.496 86.9112 82.472C86.3832 81.448 85.5592 80.936 84.4392 80.936C83.3192 80.936 82.4952 81.448 81.9672 82.472ZM84.4392 95.192C82.1192 95.192 80.3832 94.408 79.2312 92.84C78.0792 91.256 77.5032 89.152 77.5032 86.528C77.5032 83.888 78.0792 81.784 79.2312 80.216C80.3832 78.632 82.1192 77.84 84.4392 77.84C86.7592 77.84 88.4952 78.632 89.6472 80.216C90.7992 81.784 91.3752 83.888 91.3752 86.528C91.3752 89.152 90.7992 91.256 89.6472 92.84C88.4952 94.408 86.7592 95.192 84.4392 95.192ZM100.337 87.752V84.824H103.937V87.752H105.833V90.992H103.937V95H100.337V90.992H93.5935V88.136L99.5695 78.224H103.649L97.9615 87.752H100.337Z" fill="white"/>
</g>
<defs>
<linearGradient id="paint0_linear_126_50" x1="146.13" y1="111.561" x2="23.1824" y2="93.1971" gradientUnits="userSpaceOnUse">
<stop stop-color="#2C4698"/>
<stop offset="1" stop-color="#2779BE"/>
</linearGradient>
<linearGradient id="paint1_linear_126_50" x1="156.548" y1="41.8099" x2="33.6007" y2="23.4463" gradientUnits="userSpaceOnUse">
<stop stop-color="#1E3A6D"/>
<stop offset="1" stop-color="#2779BE"/>
</linearGradient>
<linearGradient id="paint2_linear_126_50" x1="143.447" y1="129.565" x2="20.4941" y2="111.193" gradientUnits="userSpaceOnUse">
<stop stop-color="#1E3A6D"/>
<stop offset="1" stop-color="#2779BE"/>
</linearGradient>
<linearGradient id="paint3_linear_126_50" x1="143.06" y1="132.113" x2="20.1129" y2="113.749" gradientUnits="userSpaceOnUse">
<stop stop-color="#1E3A6D"/>
<stop offset="1" stop-color="#2779BE"/>
</linearGradient>
<linearGradient id="paint4_linear_126_50" x1="154.411" y1="56.1186" x2="31.4633" y2="37.7549" gradientUnits="userSpaceOnUse">
<stop stop-color="#1E3A6D"/>
<stop offset="1" stop-color="#2779BE"/>
</linearGradient>
<linearGradient id="paint5_linear_126_50" x1="150.379" y1="94.8547" x2="23.7731" y2="75.9447" gradientUnits="userSpaceOnUse">
<stop stop-color="#2C4698"/>
<stop offset="1" stop-color="#2779BE"/>
</linearGradient>
<clipPath id="clip0_126_50">
<rect width="129.803" height="121.791" fill="white" transform="translate(77.4473 176.792) rotate(-126.513)"/>
</clipPath>
</defs>
</svg>
