<svg width="176" height="177" viewBox="0 0 176 177" fill="none" xmlns="http://www.w3.org/2000/svg">
<g clip-path="url(#clip0_126_47)">
<g style="mix-blend-mode:multiply" opacity="0.3">
<g style="mix-blend-mode:multiply" opacity="0.3">
<path d="M143.628 68.6298C132.028 52.9604 109.918 49.6645 94.2436 61.2682C78.5697 72.8719 75.2674 94.9811 86.8678 110.651C98.4681 126.32 120.578 129.616 136.252 118.012C151.926 106.408 155.228 84.2992 143.628 68.6298Z" fill="white"/>
</g>
<g style="mix-blend-mode:multiply" opacity="0.3">
<path d="M142.837 68.5116C131.237 52.8422 109.127 49.5463 93.4526 61.15C77.7787 72.7537 74.4764 94.8629 86.0768 110.532C97.6771 126.202 119.787 129.498 135.461 117.894C151.135 106.29 154.437 84.181 142.837 68.5116Z" fill="#F3F3F4"/>
</g>
<g style="mix-blend-mode:multiply" opacity="0.3">
<path d="M142.052 68.4022C130.452 52.7328 108.341 49.4369 92.6674 61.0406C76.9935 72.6443 73.6912 94.7536 85.2916 110.423C96.8919 126.092 119.002 129.388 134.676 117.785C150.35 106.181 153.652 84.0716 142.052 68.4022Z" fill="#E8E6E8"/>
</g>
<g style="mix-blend-mode:multiply" opacity="0.3">
<path d="M141.261 68.2841C129.661 52.6147 107.55 49.3188 91.8764 60.9225C76.2025 72.5262 72.9002 94.6354 84.5006 110.305C96.1009 125.974 118.211 129.27 133.885 117.666C149.559 106.063 152.861 83.9535 141.261 68.2841Z" fill="#DCDBDD"/>
</g>
<g style="mix-blend-mode:multiply" opacity="0.3">
<path d="M130.272 58.9072C113.557 48.8711 91.8661 54.2869 81.8245 71.0038C71.783 87.7206 77.1933 109.408 93.9088 119.444C110.624 129.48 132.315 124.065 142.357 107.348C152.398 90.6308 146.988 68.9433 130.272 58.9072Z" fill="#D1CFD2"/>
</g>
<g style="mix-blend-mode:multiply" opacity="0.3">
<path d="M129.487 58.793C112.772 48.7569 91.0809 54.1727 81.0394 70.8895C70.9978 87.6064 76.4081 109.294 93.1236 119.33C109.839 129.366 131.53 123.95 141.571 107.233C151.613 90.5166 146.203 68.8291 129.487 58.793Z" fill="#C6C4C7"/>
</g>
<g style="mix-blend-mode:multiply" opacity="0.3">
<path d="M128.693 58.6728C111.978 48.6368 90.287 54.0526 80.2454 70.7694C70.2039 87.4863 75.6142 109.174 92.3297 119.21C109.045 129.246 130.736 123.83 140.778 107.113C150.819 90.3965 145.409 68.7089 128.693 58.6728Z" fill="#BCB9BD"/>
</g>
<g style="mix-blend-mode:multiply" opacity="0.3">
<path d="M127.913 58.5557C111.198 48.5196 89.5067 53.9354 79.4652 70.6522C69.4236 87.3691 74.8339 109.057 91.5494 119.093C108.265 129.129 129.956 123.713 139.997 106.996C150.039 90.2793 144.629 68.5918 127.913 58.5557Z" fill="#B1AFB3"/>
</g>
<g style="mix-blend-mode:multiply" opacity="0.3">
<path d="M127.124 58.4277C110.409 48.3916 88.7177 53.8074 78.6761 70.5243C68.6346 87.2411 74.0448 108.929 90.7603 118.965C107.476 129.001 129.167 123.585 139.208 106.868C149.25 90.1513 143.839 68.4638 127.124 58.4277Z" fill="#A7A5A9"/>
</g>
<g style="mix-blend-mode:multiply" opacity="0.3">
<path d="M126.336 58.3164C109.62 48.2803 87.9296 53.6961 77.888 70.413C67.8465 87.1298 73.2567 108.817 89.9722 118.853C106.688 128.89 128.379 123.474 138.42 106.757C148.462 90.04 143.051 68.3525 126.336 58.3164Z" fill="#9D9B9F"/>
</g>
<g style="mix-blend-mode:multiply" opacity="0.3">
<path d="M125.541 58.1972C108.826 48.1611 87.1346 53.577 77.0931 70.2938C67.0515 87.0107 72.4618 108.698 89.1773 118.734C105.893 128.77 127.584 123.355 137.625 106.638C147.667 89.9209 142.256 68.2333 125.541 58.1972Z" fill="#949196"/>
</g>
<g style="mix-blend-mode:multiply" opacity="0.3">
<path d="M124.747 58.0781C108.032 48.042 86.3407 53.4578 76.2991 70.1747C66.2576 86.8915 71.6679 108.579 88.3834 118.615C105.099 128.651 126.79 123.235 136.831 106.519C146.873 89.8017 141.463 68.1142 124.747 58.0781Z" fill="#8B888D"/>
</g>
<g style="mix-blend-mode:multiply" opacity="0.3">
<path d="M123.968 57.9716C107.252 47.9355 85.5614 53.3514 75.5198 70.0682C65.4783 86.7851 70.8886 108.473 87.604 118.509C104.32 128.545 126.01 123.129 136.052 106.412C146.094 89.6953 140.683 68.0077 123.968 57.9716Z" fill="#817F84"/>
</g>
<g style="mix-blend-mode:multiply" opacity="0.3">
<path d="M123.173 57.8525C106.457 47.8164 84.7665 53.2323 74.7249 69.9491C64.6834 86.666 70.0937 108.353 86.8091 118.39C103.525 128.426 125.215 123.01 135.257 106.293C145.299 89.5762 139.888 67.8886 123.173 57.8525Z" fill="#79767B"/>
</g>
<g style="mix-blend-mode:multiply" opacity="0.3">
<path d="M122.384 57.7246C105.668 47.6885 83.9774 53.1043 73.9359 69.8212C63.8943 86.538 69.3046 108.226 86.0201 118.262C102.736 128.298 124.426 122.882 134.468 106.165C144.51 89.4482 139.099 67.7607 122.384 57.7246Z" fill="#706D73"/>
</g>
<g style="mix-blend-mode:multiply" opacity="0.3">
<path d="M121.596 57.6133C104.88 47.5772 83.1893 52.993 73.1478 69.7098C63.1062 86.4267 68.5165 108.114 85.232 118.15C101.947 128.186 123.638 122.771 133.68 106.054C143.721 89.3369 138.311 67.6493 121.596 57.6133Z" fill="#68656B"/>
</g>
<g style="mix-blend-mode:multiply" opacity="0.3">
<path d="M120.81 57.4873C104.094 47.4512 82.4032 52.867 72.3617 69.5839C62.3201 86.3007 67.7304 107.988 84.4459 118.024C101.161 128.06 122.852 122.645 132.894 105.928C142.935 89.2109 137.525 67.5234 120.81 57.4873Z" fill="#605D63"/>
</g>
<g style="mix-blend-mode:multiply" opacity="0.3">
<path d="M120.021 57.376C103.306 47.3399 81.6151 52.7557 71.5736 69.4725C61.532 86.1894 66.9423 107.877 83.6578 117.913C100.373 127.949 122.064 122.533 132.106 105.816C142.147 89.0996 136.737 67.412 120.021 57.376Z" fill="#58565B"/>
</g>
<g style="mix-blend-mode:multiply" opacity="0.3">
<path d="M119.236 57.2617C102.521 47.2256 80.8299 52.6414 70.7884 69.3583C60.7468 86.0751 66.1571 107.763 82.8726 117.799C99.5881 127.835 121.279 122.419 131.321 105.702C141.362 88.9853 135.952 67.2978 119.236 57.2617Z" fill="#514F54"/>
</g>
<g style="mix-blend-mode:multiply" opacity="0.3">
<path d="M118.441 57.1425C101.726 47.1064 80.035 52.5223 69.9935 69.2391C59.9519 85.956 65.3622 107.644 82.0777 117.68C98.7932 127.716 120.484 122.3 130.526 105.583C140.567 88.8662 135.157 67.1786 118.441 57.1425Z" fill="#49484D"/>
</g>
<g style="mix-blend-mode:multiply" opacity="0.3">
<path d="M117.653 57.0312C100.938 46.9951 79.2469 52.411 69.2054 69.1278C59.1638 85.8447 64.5741 107.532 81.2896 117.568C98.0051 127.604 119.696 122.189 129.738 105.472C139.779 88.7549 134.369 67.0673 117.653 57.0312Z" fill="#424146"/>
</g>
<g style="mix-blend-mode:multiply" opacity="0.3">
<path d="M116.864 56.9033C100.149 46.8672 78.4579 52.2831 68.4163 68.9999C58.3748 85.7167 63.7851 107.404 80.5006 117.44C97.216 127.476 118.907 122.061 128.948 105.344C138.99 88.6269 133.58 66.9394 116.864 56.9033Z" fill="#3B3A3F"/>
</g>
<g style="mix-blend-mode:multiply" opacity="0.3">
<path d="M116.076 56.792C99.3607 46.7559 77.6698 52.1717 67.6282 68.8886C57.5867 85.6054 62.997 107.293 79.7125 117.329C96.4279 127.365 118.119 121.949 128.16 105.232C138.202 88.5156 132.792 66.8281 116.076 56.792Z" fill="#343339"/>
</g>
<g style="mix-blend-mode:multiply" opacity="0.3">
<path d="M115.282 56.6728C98.5667 46.6368 76.8759 52.0526 66.8343 68.7694C56.7927 85.4863 62.203 107.174 78.9185 117.21C95.634 127.246 117.325 121.83 127.366 105.113C137.408 88.3965 131.998 66.7089 115.282 56.6728Z" fill="#2E2D33"/>
</g>
<g style="mix-blend-mode:multiply" opacity="0.3">
<path d="M114.504 56.5527C97.7884 46.5166 76.0975 51.9324 66.056 68.6492C56.0144 85.3661 61.4247 107.054 78.1402 117.09C94.8557 127.126 116.547 121.71 126.588 104.993C136.63 88.2763 131.219 66.5888 114.504 56.5527Z" fill="#28272D"/>
</g>
<g style="mix-blend-mode:multiply" opacity="0.3">
<path d="M113.716 56.4414C97.0003 46.4053 75.3094 51.8211 65.2679 68.5379C55.2263 85.2548 60.6366 106.942 77.3521 116.978C94.0676 127.015 115.758 121.599 125.8 104.882C135.842 88.165 130.431 66.4775 113.716 56.4414Z" fill="#222227"/>
</g>
<g style="mix-blend-mode:multiply" opacity="0.3">
<path d="M112.922 56.3213C96.2064 46.2852 74.5155 51.701 64.4739 68.4178C54.4324 85.1347 59.8427 106.822 76.5581 116.858C93.2736 126.894 114.965 121.479 125.006 104.762C135.048 88.0449 129.637 66.3573 112.922 56.3213Z" fill="#1C1C21"/>
</g>
<g style="mix-blend-mode:multiply" opacity="0.3">
<path d="M112.133 56.1933C95.4173 46.1573 73.7264 51.5731 63.6849 68.2899C53.6433 85.0068 59.0536 106.694 75.7691 116.73C92.4846 126.766 114.175 121.351 124.217 104.634C134.259 87.917 128.848 66.2294 112.133 56.1933Z" fill="#16171B"/>
</g>
<g style="mix-blend-mode:multiply" opacity="0.3">
<path d="M111.345 56.082C94.6292 46.0459 72.9383 51.4617 62.8968 68.1786C52.8552 84.8954 58.2655 106.583 74.981 116.619C91.6965 126.655 113.387 121.239 123.429 104.522C133.47 87.8056 128.06 66.1181 111.345 56.082Z" fill="#101115"/>
</g>
<g style="mix-blend-mode:multiply" opacity="0.3">
<path d="M110.55 55.9629C93.8343 45.9268 72.1434 51.3426 62.1019 68.0594C52.0603 84.7763 57.4706 106.464 74.1861 116.5C90.9016 126.536 112.592 121.12 122.634 104.403C132.676 87.6865 127.265 65.999 110.55 55.9629Z" fill="#0A0B0E"/>
</g>
<g style="mix-blend-mode:multiply" opacity="0.3">
<path d="M109.77 55.8564C93.055 45.8204 71.3642 51.2362 61.3226 67.953C51.281 84.6699 56.6913 106.357 73.4068 116.393C90.1223 126.43 111.813 121.014 121.855 104.297C131.896 87.5801 126.486 65.8925 109.77 55.8564Z" fill="#050507"/>
</g>
<g style="mix-blend-mode:multiply" opacity="0.3">
<path d="M108.977 55.7373C92.261 45.7012 70.5702 51.117 60.5286 67.8339C50.4871 84.5507 55.8974 106.238 72.6129 116.274C89.3283 126.31 111.019 120.895 121.061 104.178C131.102 87.4609 125.692 65.7734 108.977 55.7373Z" fill="#010101"/>
</g>
</g>
<path d="M125.984 133.542C125.026 134.251 124.076 134.954 123.074 135.57L126.217 140.392C127.296 139.694 128.361 138.943 129.408 138.167C138.242 131.669 145.277 123.03 149.853 113.065C154.428 103.1 156.393 92.1348 155.563 81.2021L149.818 81.6236C150.573 91.587 148.781 101.579 144.612 110.662C140.443 119.744 134.032 127.617 125.984 133.542Z" fill="url(#paint0_linear_126_47)"/>
<path d="M55.599 38.4682C64.1134 32.1613 74.1629 28.2524 84.7003 27.1489C95.2378 26.0454 105.878 27.7876 115.511 32.1939L117.912 26.9491C107.351 22.1174 95.6866 20.2049 84.1338 21.4109C72.5809 22.6169 61.5617 26.8972 52.2231 33.8063L55.599 38.4682Z" fill="url(#paint1_linear_126_47)"/>
<path d="M25.8805 86.9026C26.0467 98.515 29.3201 109.87 35.3607 119.788C41.4013 129.705 49.9884 137.824 60.2298 143.299L62.9385 138.216C53.6058 133.226 45.7807 125.828 40.2765 116.79C34.7723 107.752 31.7901 97.4046 31.6397 86.8226L25.8805 86.9026Z" fill="url(#paint2_linear_126_47)"/>
<path d="M50.2394 105.291L45.0384 107.771C48.1195 114.219 52.5255 119.943 57.9689 124.572C63.4124 129.201 69.7711 132.63 76.6301 134.636C83.4891 136.642 90.6943 137.178 97.7756 136.212C104.857 135.245 111.655 132.796 117.727 129.025L114.674 124.137C109.289 127.482 103.259 129.655 96.9787 130.511C90.698 131.368 84.3076 130.89 78.2248 129.11C72.142 127.329 66.5038 124.284 61.6783 120.176C56.8529 116.067 52.9489 110.987 50.2213 105.266L50.2394 105.291Z" fill="url(#paint3_linear_126_47)"/>
<path d="M59.1703 54.0032C67.6523 45.6076 79.1174 40.918 91.0505 40.963C102.984 41.008 114.41 45.7839 122.824 54.2432C124.009 55.4496 125.13 56.7157 126.185 58.0365L130.693 54.4486C126.255 48.8499 120.687 44.2503 114.351 40.95C108.015 37.6496 101.053 35.7228 93.9213 35.2953C86.7892 34.8679 79.6466 35.9494 72.96 38.4692C66.2734 40.989 60.1931 44.8904 55.116 49.9189L59.1703 54.0032Z" fill="url(#paint4_linear_126_47)"/>
<path d="M108.977 55.7373C92.261 45.7012 70.5702 51.117 60.5286 67.8338C50.4871 84.5507 55.8974 106.238 72.6129 116.274C89.3283 126.31 111.019 120.895 121.061 104.178C131.102 87.4609 125.692 65.7734 108.977 55.7373Z" fill="url(#paint5_linear_126_47)"/>
<path d="M122.064 62.8591C126.641 69.042 129.282 76.4437 129.652 84.1283C130.022 91.8129 128.104 99.4352 124.142 106.031C120.18 112.628 114.351 117.901 107.392 121.186C100.433 124.47 92.6571 125.618 85.0473 124.483C77.4375 123.349 70.3356 119.984 64.6397 114.813C58.9438 109.642 54.9097 102.898 53.0476 95.4335C51.1855 87.9691 51.579 80.1197 54.1783 72.8777C56.7776 65.6357 61.4661 59.3264 67.6507 54.7478C75.9478 48.6187 86.3368 46.0304 96.538 47.5511C106.739 49.0718 115.919 54.5771 122.064 62.8591ZM65.3119 104.874C69.0432 109.911 74.1848 113.728 80.0864 115.842C85.988 117.957 92.3846 118.274 98.4675 116.754C104.55 115.233 110.046 111.944 114.26 107.301C118.475 102.658 121.218 96.8704 122.143 90.6697C123.068 84.469 122.134 78.1337 119.458 72.4649C116.782 66.7961 112.486 62.0483 107.111 58.8219C101.736 55.5955 95.525 54.0354 89.2627 54.3387C83.0003 54.642 76.968 56.7953 71.9285 60.5261C65.1756 65.5354 60.6859 73.019 59.4454 81.3338C58.2048 89.6486 60.3147 98.1149 65.3119 104.874Z" fill="white"/>
</g>
<path d="M80.183 82.472C79.655 83.496 79.391 84.848 79.391 86.528C79.391 88.208 79.655 89.56 80.183 90.584C80.711 91.608 81.535 92.12 82.655 92.12C83.775 92.12 84.599 91.608 85.127 90.584C85.655 89.56 85.919 88.208 85.919 86.528C85.919 84.848 85.655 83.496 85.127 82.472C84.599 81.448 83.775 80.936 82.655 80.936C81.535 80.936 80.711 81.448 80.183 82.472ZM82.655 95.192C80.335 95.192 78.599 94.408 77.447 92.84C76.295 91.256 75.719 89.152 75.719 86.528C75.719 83.888 76.295 81.784 77.447 80.216C78.599 78.632 80.335 77.84 82.655 77.84C84.975 77.84 86.711 78.632 87.863 80.216C89.015 81.784 89.591 83.888 89.591 86.528C89.591 89.152 89.015 91.256 87.863 92.84C86.711 94.408 84.975 95.192 82.655 95.192ZM91.6893 78.224H98.4813V95H94.8813V81.416H91.6893V78.224Z" fill="white"/>
<defs>
<linearGradient id="paint0_linear_126_47" x1="145.917" y1="111.561" x2="22.9695" y2="93.1971" gradientUnits="userSpaceOnUse">
<stop stop-color="#2C4698"/>
<stop offset="1" stop-color="#2779BE"/>
</linearGradient>
<linearGradient id="paint1_linear_126_47" x1="156.335" y1="41.8099" x2="33.3878" y2="23.4463" gradientUnits="userSpaceOnUse">
<stop stop-color="#1E3A6D"/>
<stop offset="1" stop-color="#2779BE"/>
</linearGradient>
<linearGradient id="paint2_linear_126_47" x1="143.235" y1="129.565" x2="20.2812" y2="111.193" gradientUnits="userSpaceOnUse">
<stop stop-color="#1E3A6D"/>
<stop offset="1" stop-color="#2779BE"/>
</linearGradient>
<linearGradient id="paint3_linear_126_47" x1="142.847" y1="132.113" x2="19.9" y2="113.749" gradientUnits="userSpaceOnUse">
<stop stop-color="#1E3A6D"/>
<stop offset="1" stop-color="#2779BE"/>
</linearGradient>
<linearGradient id="paint4_linear_126_47" x1="154.198" y1="56.1186" x2="31.2504" y2="37.7549" gradientUnits="userSpaceOnUse">
<stop stop-color="#1E3A6D"/>
<stop offset="1" stop-color="#2779BE"/>
</linearGradient>
<linearGradient id="paint5_linear_126_47" x1="150.166" y1="94.8547" x2="23.5602" y2="75.9447" gradientUnits="userSpaceOnUse">
<stop stop-color="#2C4698"/>
<stop offset="1" stop-color="#2779BE"/>
</linearGradient>
<clipPath id="clip0_126_47">
<rect width="129.803" height="121.791" fill="white" transform="translate(77.2344 176.792) rotate(-126.513)"/>
</clipPath>
</defs>
</svg>
