<svg width="176" height="177" viewBox="0 0 176 177" fill="none" xmlns="http://www.w3.org/2000/svg">
<g clip-path="url(#clip0_126_48)">
<g style="mix-blend-mode:multiply" opacity="0.3">
<g style="mix-blend-mode:multiply" opacity="0.3">
<path d="M144.394 68.6298C132.793 52.9604 110.683 49.6645 95.0092 61.2682C79.3353 72.8719 76.033 94.9811 87.6334 110.651C99.2338 126.32 121.344 129.616 137.018 118.012C152.692 106.408 155.994 84.2992 144.394 68.6298Z" fill="white"/>
</g>
<g style="mix-blend-mode:multiply" opacity="0.3">
<path d="M143.603 68.5116C132.002 52.8422 109.892 49.5463 94.2182 61.15C78.5443 72.7537 75.242 94.8629 86.8424 110.532C98.4427 126.202 120.553 129.498 136.227 117.894C151.901 106.29 155.203 84.181 143.603 68.5116Z" fill="#F3F3F4"/>
</g>
<g style="mix-blend-mode:multiply" opacity="0.3">
<path d="M142.818 68.4022C131.217 52.7328 109.107 49.4369 93.4331 61.0406C77.7591 72.6443 74.4569 94.7536 86.0572 110.423C97.6576 126.092 119.768 129.388 135.442 117.785C151.116 106.181 154.418 84.0716 142.818 68.4022Z" fill="#E8E6E8"/>
</g>
<g style="mix-blend-mode:multiply" opacity="0.3">
<path d="M142.027 68.2841C130.426 52.6147 108.316 49.3188 92.642 60.9225C76.9681 72.5262 73.6658 94.6354 85.2662 110.305C96.8666 125.974 118.977 129.27 134.651 117.666C150.325 106.063 153.627 83.9535 142.027 68.2841Z" fill="#DCDBDD"/>
</g>
<g style="mix-blend-mode:multiply" opacity="0.3">
<path d="M131.038 58.9072C114.323 48.8711 92.6317 54.2869 82.5901 71.0038C72.5486 87.7206 77.9589 109.408 94.6744 119.444C111.39 129.48 133.081 124.065 143.122 107.348C153.164 90.6308 147.754 68.9433 131.038 58.9072Z" fill="#D1CFD2"/>
</g>
<g style="mix-blend-mode:multiply" opacity="0.3">
<path d="M130.253 58.793C113.537 48.7569 91.8466 54.1727 81.805 70.8895C71.7635 87.6064 77.1737 109.294 93.8892 119.33C110.605 129.366 132.296 123.95 142.337 107.233C152.379 90.5166 146.968 68.8291 130.253 58.793Z" fill="#C6C4C7"/>
</g>
<g style="mix-blend-mode:multiply" opacity="0.3">
<path d="M129.459 58.6728C112.743 48.6368 91.0526 54.0526 81.0111 70.7694C70.9695 87.4863 76.3798 109.174 93.0953 119.21C109.811 129.246 131.502 123.83 141.543 107.113C151.585 90.3965 146.174 68.7089 129.459 58.6728Z" fill="#BCB9BD"/>
</g>
<g style="mix-blend-mode:multiply" opacity="0.3">
<path d="M128.679 58.5557C111.963 48.5196 90.2723 53.9354 80.2308 70.6522C70.1892 87.3691 75.5995 109.057 92.315 119.093C109.03 129.129 130.721 123.713 140.763 106.996C150.804 90.2793 145.394 68.5918 128.679 58.5557Z" fill="#B1AFB3"/>
</g>
<g style="mix-blend-mode:multiply" opacity="0.3">
<path d="M127.89 58.4277C111.174 48.3916 89.4833 53.8074 79.4417 70.5243C69.4002 87.2411 74.8105 108.929 91.5259 118.965C108.241 129.001 129.932 123.585 139.974 106.868C150.015 90.1513 144.605 68.4638 127.89 58.4277Z" fill="#A7A5A9"/>
</g>
<g style="mix-blend-mode:multiply" opacity="0.3">
<path d="M127.102 58.3164C110.386 48.2803 88.6952 53.6961 78.6537 70.413C68.6121 87.1298 74.0224 108.817 90.7379 118.853C107.453 128.89 129.144 123.474 139.186 106.757C149.227 90.04 143.817 68.3525 127.102 58.3164Z" fill="#9D9B9F"/>
</g>
<g style="mix-blend-mode:multiply" opacity="0.3">
<path d="M126.307 58.1972C109.591 48.1611 87.9002 53.577 77.8587 70.2938C67.8171 87.0107 73.2274 108.698 89.9429 118.734C106.658 128.77 128.349 123.355 138.391 106.638C148.432 89.9209 143.022 68.2333 126.307 58.1972Z" fill="#949196"/>
</g>
<g style="mix-blend-mode:multiply" opacity="0.3">
<path d="M125.513 58.0781C108.797 48.042 87.1063 53.4578 77.0647 70.1747C67.0232 86.8915 72.4335 108.579 89.149 118.615C105.864 128.651 127.555 123.235 137.597 106.519C147.638 89.8017 142.228 68.1142 125.513 58.0781Z" fill="#8B888D"/>
</g>
<g style="mix-blend-mode:multiply" opacity="0.3">
<path d="M124.733 57.9716C108.018 47.9355 86.327 53.3514 76.2854 70.0682C66.2439 86.7851 71.6542 108.473 88.3697 118.509C105.085 128.545 126.776 123.129 136.818 106.412C146.859 89.6953 141.449 68.0077 124.733 57.9716Z" fill="#817F84"/>
</g>
<g style="mix-blend-mode:multiply" opacity="0.3">
<path d="M123.938 57.8525C107.223 47.8164 85.5321 53.2323 75.4906 69.9491C65.449 86.666 70.8593 108.353 87.5748 118.39C104.29 128.426 125.981 123.01 136.023 106.293C146.064 89.5762 140.654 67.8886 123.938 57.8525Z" fill="#79767B"/>
</g>
<g style="mix-blend-mode:multiply" opacity="0.3">
<path d="M123.149 57.7246C106.434 47.6885 84.743 53.1043 74.7015 69.8212C64.6599 86.538 70.0702 108.226 86.7857 118.262C103.501 128.298 125.192 122.882 135.234 106.165C145.275 89.4482 139.865 67.7607 123.149 57.7246Z" fill="#706D73"/>
</g>
<g style="mix-blend-mode:multiply" opacity="0.3">
<path d="M122.361 57.6133C105.646 47.5772 83.955 52.993 73.9134 69.7098C63.8719 86.4267 69.2821 108.114 85.9976 118.15C102.713 128.186 124.404 122.771 134.446 106.054C144.487 89.3369 139.077 67.6493 122.361 57.6133Z" fill="#68656B"/>
</g>
<g style="mix-blend-mode:multiply" opacity="0.3">
<path d="M121.575 57.4873C104.86 47.4512 83.1688 52.867 73.1273 69.5839C63.0857 86.3007 68.496 107.988 85.2115 118.024C101.927 128.06 123.618 122.645 133.659 105.928C143.701 89.2109 138.291 67.5234 121.575 57.4873Z" fill="#605D63"/>
</g>
<g style="mix-blend-mode:multiply" opacity="0.3">
<path d="M120.787 57.376C104.072 47.3399 82.3808 52.7557 72.3392 69.4725C62.2976 86.1894 67.7079 107.877 84.4234 117.913C101.139 127.949 122.83 122.533 132.871 105.816C142.913 89.0996 137.503 67.412 120.787 57.376Z" fill="#58565B"/>
</g>
<g style="mix-blend-mode:multiply" opacity="0.3">
<path d="M120.002 57.2617C103.286 47.2256 81.5956 52.6414 71.554 69.3583C61.5125 86.0751 66.9227 107.763 83.6382 117.799C100.354 127.835 122.045 122.419 132.086 105.702C142.128 88.9853 136.717 67.2978 120.002 57.2617Z" fill="#514F54"/>
</g>
<g style="mix-blend-mode:multiply" opacity="0.3">
<path d="M119.207 57.1425C102.491 47.1064 80.8006 52.5223 70.7591 69.2391C60.7175 85.956 66.1278 107.644 82.8433 117.68C99.5588 127.716 121.25 122.3 131.291 105.583C141.333 88.8662 135.922 67.1786 119.207 57.1425Z" fill="#49484D"/>
</g>
<g style="mix-blend-mode:multiply" opacity="0.3">
<path d="M118.419 57.0312C101.703 46.9951 80.0126 52.411 69.971 69.1278C59.9294 85.8447 65.3397 107.532 82.0552 117.568C98.7707 127.604 120.462 122.189 130.503 105.472C140.545 88.7549 135.134 67.0673 118.419 57.0312Z" fill="#424146"/>
</g>
<g style="mix-blend-mode:multiply" opacity="0.3">
<path d="M117.63 56.9033C100.914 46.8672 79.2235 52.2831 69.182 68.9999C59.1404 85.7167 64.5507 107.404 81.2662 117.44C97.9817 127.476 119.673 122.061 129.714 105.344C139.756 88.6269 134.345 66.9394 117.63 56.9033Z" fill="#3B3A3F"/>
</g>
<g style="mix-blend-mode:multiply" opacity="0.3">
<path d="M116.842 56.792C100.126 46.7559 78.4354 52.1717 68.3939 68.8886C58.3523 85.6054 63.7626 107.293 80.4781 117.329C97.1936 127.365 118.884 121.949 128.926 105.232C138.968 88.5156 133.557 66.8281 116.842 56.792Z" fill="#343339"/>
</g>
<g style="mix-blend-mode:multiply" opacity="0.3">
<path d="M116.048 56.6728C99.3323 46.6368 77.6415 52.0526 67.5999 68.7694C57.5584 85.4863 62.9687 107.174 79.6841 117.21C96.3996 127.246 118.09 121.83 128.132 105.113C138.174 88.3965 132.763 66.7089 116.048 56.6728Z" fill="#2E2D33"/>
</g>
<g style="mix-blend-mode:multiply" opacity="0.3">
<path d="M115.27 56.5527C98.554 46.5166 76.8631 51.9324 66.8216 68.6492C56.78 85.3661 62.1903 107.054 78.9058 117.09C95.6213 127.126 117.312 121.71 127.354 104.993C137.395 88.2763 131.985 66.5888 115.27 56.5527Z" fill="#28272D"/>
</g>
<g style="mix-blend-mode:multiply" opacity="0.3">
<path d="M114.481 56.4414C97.7659 46.4053 76.0751 51.8211 66.0335 68.5379C55.992 85.2548 61.4022 106.942 78.1177 116.978C94.8332 127.015 116.524 121.599 126.566 104.882C136.607 88.165 131.197 66.4775 114.481 56.4414Z" fill="#222227"/>
</g>
<g style="mix-blend-mode:multiply" opacity="0.3">
<path d="M113.687 56.3213C96.972 46.2852 75.2811 51.701 65.2396 68.4178C55.198 85.1347 60.6083 106.822 77.3238 116.858C94.0392 126.894 115.73 121.479 125.772 104.762C135.813 88.0449 130.403 66.3573 113.687 56.3213Z" fill="#1C1C21"/>
</g>
<g style="mix-blend-mode:multiply" opacity="0.3">
<path d="M112.898 56.1933C96.1829 46.1573 74.492 51.5731 64.4505 68.2899C54.4089 85.0068 59.8192 106.694 76.5347 116.73C93.2502 126.766 114.941 121.351 124.983 104.634C135.024 87.917 129.614 66.2294 112.898 56.1933Z" fill="#16171B"/>
</g>
<g style="mix-blend-mode:multiply" opacity="0.3">
<path d="M112.11 56.082C95.3948 46.0459 73.704 51.4617 63.6624 68.1786C53.6208 84.8954 59.0311 106.583 75.7466 116.619C92.4621 126.655 114.153 121.239 124.195 104.522C134.236 87.8056 128.826 66.1181 112.11 56.082Z" fill="#101115"/>
</g>
<g style="mix-blend-mode:multiply" opacity="0.3">
<path d="M111.315 55.9629C94.5999 45.9268 72.909 51.3426 62.8675 68.0594C52.8259 84.7763 58.2362 106.464 74.9517 116.5C91.6672 126.536 113.358 121.12 123.4 104.403C133.441 87.6865 128.031 65.999 111.315 55.9629Z" fill="#0A0B0E"/>
</g>
<g style="mix-blend-mode:multiply" opacity="0.3">
<path d="M110.536 55.8564C93.8206 45.8204 72.1298 51.2362 62.0882 67.953C52.0467 84.6699 57.4569 106.357 74.1724 116.393C90.8879 126.43 112.579 121.014 122.62 104.297C132.662 87.5801 127.252 65.8925 110.536 55.8564Z" fill="#050507"/>
</g>
<g style="mix-blend-mode:multiply" opacity="0.3">
<path d="M109.742 55.7373C93.0267 45.7012 71.3358 51.117 61.2942 67.8339C51.2527 84.5507 56.663 106.238 73.3785 116.274C90.094 126.31 111.785 120.895 121.826 104.178C131.868 87.4609 126.458 65.7734 109.742 55.7373Z" fill="#010101"/>
</g>
</g>
<path d="M126.749 133.542C125.792 134.251 124.842 134.954 123.84 135.57L126.983 140.392C128.062 139.694 129.127 138.943 130.174 138.167C139.007 131.669 146.043 123.03 150.618 113.065C155.194 103.1 157.159 92.1348 156.329 81.2021L150.583 81.6236C151.338 91.587 149.547 101.579 145.378 110.662C141.208 119.744 134.798 127.617 126.749 133.542Z" fill="url(#paint0_linear_126_48)"/>
<path d="M56.3647 38.4682C64.8791 32.1613 74.9285 28.2524 85.4659 27.1489C96.0034 26.0454 106.643 27.7876 116.277 32.1939L118.678 26.9491C108.116 22.1174 96.4523 20.2049 84.8994 21.4109C73.3465 22.6169 62.3273 26.8972 52.9888 33.8063L56.3647 38.4682Z" fill="url(#paint1_linear_126_48)"/>
<path d="M26.6461 86.9026C26.8123 98.515 30.0858 109.87 36.1263 119.788C42.1669 129.705 50.7541 137.824 60.9954 143.299L63.7041 138.216C54.3714 133.226 46.5463 125.828 41.0421 116.79C35.538 107.752 32.5557 97.4046 32.4054 86.8226L26.6461 86.9026Z" fill="url(#paint2_linear_126_48)"/>
<path d="M51.005 105.291L45.8041 107.771C48.8851 114.219 53.2911 119.943 58.7346 124.572C64.1781 129.201 70.5367 132.63 77.3957 134.636C84.2547 136.642 91.4599 137.178 98.5412 136.212C105.623 135.245 112.421 132.796 118.493 129.025L115.439 124.137C110.055 127.482 104.025 129.655 97.7444 130.511C91.4637 131.368 85.0732 130.89 78.9904 129.11C72.9076 127.329 67.2694 124.284 62.444 120.176C57.6186 116.067 53.7145 110.987 50.987 105.266L51.005 105.291Z" fill="url(#paint3_linear_126_48)"/>
<path d="M59.9359 54.0032C68.4179 45.6076 79.883 40.918 91.8162 40.963C103.749 41.008 115.176 45.7839 123.59 54.2432C124.774 55.4496 125.896 56.7157 126.951 58.0365L131.458 54.4486C127.021 48.8499 121.453 44.2503 115.117 40.95C108.78 37.6496 101.819 35.7228 94.687 35.2953C87.5548 34.8679 80.4123 35.9494 73.7257 38.4692C67.0391 40.989 60.9587 44.8904 55.8817 49.9189L59.9359 54.0032Z" fill="url(#paint4_linear_126_48)"/>
<path d="M109.742 55.7373C93.0267 45.7012 71.3358 51.117 61.2942 67.8338C51.2527 84.5507 56.663 106.238 73.3785 116.274C90.094 126.31 111.785 120.895 121.826 104.178C131.868 87.4609 126.458 65.7734 109.742 55.7373Z" fill="url(#paint5_linear_126_48)"/>
<path d="M122.83 62.8591C127.407 69.042 130.047 76.4437 130.417 84.1283C130.787 91.8129 128.87 99.4352 124.908 106.031C120.945 112.628 115.116 117.901 108.158 121.186C101.199 124.47 93.4228 125.618 85.8129 124.483C78.2031 123.349 71.1012 119.984 65.4053 114.813C59.7094 109.642 55.6753 102.898 53.8132 95.4335C51.9511 87.9691 52.3446 80.1197 54.9439 72.8777C57.5433 65.6357 62.2317 59.3264 68.4163 54.7478C76.7134 48.6187 87.1024 46.0304 97.3037 47.5511C107.505 49.0718 116.685 54.5771 122.83 62.8591ZM66.0775 104.874C69.8089 109.911 74.9504 113.728 80.852 115.842C86.7536 117.957 93.1502 118.274 99.2331 116.754C105.316 115.233 110.812 111.944 115.026 107.301C119.24 102.658 121.983 96.8704 122.908 90.6697C123.834 84.469 122.899 78.1337 120.224 72.4649C117.548 66.7961 113.251 62.0483 107.877 58.8219C102.502 55.5955 96.2907 54.0354 90.0283 54.3387C83.7659 54.642 77.7337 56.7953 72.6941 60.5261C65.9412 65.5354 61.4516 73.019 60.211 81.3338C58.9705 89.6486 61.0804 98.1149 66.0775 104.874Z" fill="white"/>
<path d="M81.809 82.472C81.281 83.496 81.017 84.848 81.017 86.528C81.017 88.208 81.281 89.56 81.809 90.584C82.337 91.608 83.161 92.12 84.281 92.12C85.401 92.12 86.225 91.608 86.753 90.584C87.281 89.56 87.545 88.208 87.545 86.528C87.545 84.848 87.281 83.496 86.753 82.472C86.225 81.448 85.401 80.936 84.281 80.936C83.161 80.936 82.337 81.448 81.809 82.472ZM84.281 95.192C81.961 95.192 80.225 94.408 79.073 92.84C77.921 91.256 77.345 89.152 77.345 86.528C77.345 83.888 77.921 81.784 79.073 80.216C80.225 78.632 81.961 77.84 84.281 77.84C86.601 77.84 88.337 78.632 89.489 80.216C90.641 81.784 91.217 83.888 91.217 86.528C91.217 89.152 90.641 91.256 89.489 92.84C88.337 94.408 86.601 95.192 84.281 95.192ZM98.8833 87.176C99.8753 86.168 100.579 85.368 100.995 84.776C101.427 84.168 101.643 83.584 101.643 83.024C101.643 82.464 101.459 82 101.091 81.632C100.723 81.248 100.251 81.056 99.6753 81.056C98.6193 81.056 97.6193 81.808 96.6753 83.312L93.6753 81.536C94.4593 80.32 95.3153 79.4 96.2433 78.776C97.1873 78.152 98.3793 77.84 99.8193 77.84C101.275 77.84 102.547 78.304 103.635 79.232C104.739 80.144 105.291 81.392 105.291 82.976C105.291 83.84 105.067 84.672 104.619 85.472C104.187 86.256 103.379 87.264 102.195 88.496L99.1713 91.64H105.795V95H93.9633V92.216L98.8833 87.176Z" fill="white"/>
</g>
<defs>
<linearGradient id="paint0_linear_126_48" x1="146.682" y1="111.561" x2="23.7351" y2="93.1971" gradientUnits="userSpaceOnUse">
<stop stop-color="#2C4698"/>
<stop offset="1" stop-color="#2779BE"/>
</linearGradient>
<linearGradient id="paint1_linear_126_48" x1="157.101" y1="41.8099" x2="34.1534" y2="23.4463" gradientUnits="userSpaceOnUse">
<stop stop-color="#1E3A6D"/>
<stop offset="1" stop-color="#2779BE"/>
</linearGradient>
<linearGradient id="paint2_linear_126_48" x1="144" y1="129.565" x2="21.0469" y2="111.193" gradientUnits="userSpaceOnUse">
<stop stop-color="#1E3A6D"/>
<stop offset="1" stop-color="#2779BE"/>
</linearGradient>
<linearGradient id="paint3_linear_126_48" x1="143.613" y1="132.113" x2="20.6656" y2="113.749" gradientUnits="userSpaceOnUse">
<stop stop-color="#1E3A6D"/>
<stop offset="1" stop-color="#2779BE"/>
</linearGradient>
<linearGradient id="paint4_linear_126_48" x1="154.963" y1="56.1186" x2="32.0161" y2="37.7549" gradientUnits="userSpaceOnUse">
<stop stop-color="#1E3A6D"/>
<stop offset="1" stop-color="#2779BE"/>
</linearGradient>
<linearGradient id="paint5_linear_126_48" x1="150.932" y1="94.8547" x2="24.3259" y2="75.9447" gradientUnits="userSpaceOnUse">
<stop stop-color="#2C4698"/>
<stop offset="1" stop-color="#2779BE"/>
</linearGradient>
<clipPath id="clip0_126_48">
<rect width="129.803" height="121.791" fill="white" transform="translate(78 176.792) rotate(-126.513)"/>
</clipPath>
</defs>
</svg>
