<svg id="Layer_1" data-name="Layer 1" xmlns="http://www.w3.org/2000/svg" viewBox="0 0 1732.57 615.73"><defs><style>.cls-1{fill:#aed8ff;}.cls-2{fill:#94ccff;}.cls-3{fill:#cf2b2a;}.cls-4{fill:#031d3f;}.cls-5{fill:#06397d;}.cls-6{fill:#ff9534;}.cls-7{fill:#ffdd34;}.cls-8{fill:#fa9233;}.cls-9{fill:#fff;}.cls-10{fill:#ff7b34;}.cls-11{fill:#38a0ff;}.cls-12{fill:#0b74d6;}.cls-13{fill:#e6e7e8;}.cls-14{fill:#d1d3d4;}.cls-15{fill:#bcbec0;}</style></defs><path class="cls-1" d="M1730,715.24S1878.1,619.81,1711.69,574s-323.1,12.5-442,18.84c-100.42,5.35-154.63-29.84-385.29-50.24C672.21,523.79,523.63,597,523.63,597s-236.36-80.17-370.36-12,0,148.86,0,148.86-94,153.17,10,193.92,237.45-8.32,425.73-3.89,304.79,89.41,675,65.71c281.48-18,341.34-89.61,341.34-89.61s183.82,39.55,217.8-59C1846.58,773.21,1730,715.24,1730,715.24Z" transform="translate(-93.71 -379.12)"/><path class="cls-2" d="M1823.18,841.05a55.57,55.57,0,0,0,3.06-20.08c-126.81,18.2-391.78,24.59-656.16,29.91-316.25,6.36-756.74-24-1055.75.3-.59,31.2,10.46,60.42,46.4,75.62l.4.16c.71.3,1.42.59,2.14.87,20.94,8.21,43.08,12.77,66.62,14.86,11.17,1,22.64,1.43,34.46,1.44h0l5.74,0h.14c85.84-1,189.34-23.2,318.74-20.16,188.27,4.42,304.79,89.41,675,65.71,194-12.43,282.75-50.3,319.15-72.63l1.34-.83q2.61-1.63,4.86-3.15l.76-.51c1-.71,2-1.4,2.93-2.06l.67-.48c1.73-1.26,3.24-2.42,4.55-3.47l.85-.69a52.59,52.59,0,0,0,6.23-5.79h0S1789.2,939.59,1823.18,841.05Z" transform="translate(-93.71 -379.12)"/><path class="cls-2" d="M586.92,941.39c62.08,2.33,146.72,14,124.84,38.32S471.5,998.29,459.18,968C448,940.52,538.63,939.58,586.92,941.39Z" transform="translate(-93.71 -379.12)"/><path class="cls-3" d="M269.41,808.12c-5.32-.86-11.06.42-11.57,3.78-1.1,7.16,21.19,7.9,21.29,1.9C279.18,810.85,273.55,808.78,269.41,808.12Z" transform="translate(-93.71 -379.12)"/><path class="cls-4" d="M330.12,781.77c6.81-.24,17.38,1.83,15.81,8.52s-27.47,8.49-29.75.68S324.83,782,330.12,781.77Z" transform="translate(-93.71 -379.12)"/><path class="cls-4" d="M828.13,857.61c3.63-.13,9.26,1,8.43,4.54s-14.64,4.53-15.86.36S825.31,857.71,828.13,857.61Z" transform="translate(-93.71 -379.12)"/><path class="cls-5" d="M951.34,884.37c-8.59-.43-17.47,2.62-17.7,8-.48,11.56,35,8.8,34.11-.73C967.31,887,958,884.7,951.34,884.37Z" transform="translate(-93.71 -379.12)"/><path class="cls-3" d="M1363.92,892.18c3.67.13,9.26,1.64,8.17,5.17s-15.06,3.53-16-.75S1361.07,892.08,1363.92,892.18Z" transform="translate(-93.71 -379.12)"/><path class="cls-4" d="M1279.64,872.77c7.22-.5,18.51,1.31,17.09,8.47s-28.84,10-31.54,1.81S1274,873.16,1279.64,872.77Z" transform="translate(-93.71 -379.12)"/><path class="cls-6" d="M692.32,750.34,627.08,740l-65.24-8.12-51.3,11.89-111.67,6.59v33.6c0,23,68.45,41.72,152.89,41.72S704.64,807,704.64,783.94v-33.6Z" transform="translate(-93.71 -379.12)"/><ellipse class="cls-7" cx="458.04" cy="371.22" rx="152.89" ry="41.72"/><path class="cls-8" d="M551.76,717.1c77.57,0,140.94,15.19,145.08,34.33a9.65,9.65,0,0,0,.22-2c0-20-65.06-36.31-145.3-36.31s-145.31,16.26-145.31,36.31a9.65,9.65,0,0,0,.22,2C410.81,732.29,474.18,717.1,551.76,717.1Z" transform="translate(-93.71 -379.12)"/><path class="cls-9" d="M551.76,783.65c-77.58,0-140.95-15.19-145.09-34.32a9.48,9.48,0,0,0-.22,2c0,20,65.06,36.31,145.31,36.31s145.3-16.26,145.3-36.31a9.48,9.48,0,0,0-.22-2C692.7,768.46,629.33,783.65,551.76,783.65Z" transform="translate(-93.71 -379.12)"/><path class="cls-8" d="M477.69,741.75c39.61-.69,79.24-1,118.86-.26q14.16.25,28.33.73c-.22,0,4.84.38,2.92-.38-.3-.11-.54-.86-.12,0a12.51,12.51,0,0,1,.77,3.37,31.45,31.45,0,0,1,.08,9.49c-.86,5.09-10.17,5.2-14.18,5.71a169.82,169.82,0,0,1-24.6,1c-3.86-.07-8.5-.36-11.65-2.9-2.26-1.84-2.62-4.88-3-7.61a94.28,94.28,0,0,1-.85-14.35h-8.53c.57,6.81,1,14.35-.57,21-1.43,5.9-7.39,5.83-12.62,6.23q-9.74.74-19.48,1.17c-6.95.29-13.9.45-20.85.33-6.5-.11-13.53,0-19.85-1.71-3.11-.83-7.71-2.54-9.55-5.55-1.19-1.94-.71-5.3-.79-7.55-.15-4.36-.14-8.71,0-13.06.14-5.5-8.39-5.49-8.53,0-.19,6.92-1,15.11.67,21.9.7,2.9,2.71,5.09,4.95,7,8.67,7.25,20.93,7.27,31.66,7.51,12.72.29,25.46-.32,38.14-1.21,9.75-.68,21.46-1.06,24.39-12.33,2-7.55,1.62-16,1-23.72-.44-5.4-8.49-5.57-8.53,0-.07,11.57-.39,26.69,12.38,31.52,8.63,3.26,19.23,2,28.25,1.53,7.61-.37,16.69-.74,23.72-4s7.61-10.87,7.19-17.85c-.4-6.53-1.43-13.53-9.08-14-23.59-1.27-47.34-1.18-71-1.25-26.5-.08-53,.21-79.5.67-5.48.1-5.5,8.63,0,8.53Z" transform="translate(-93.71 -379.12)"/><path class="cls-8" d="M451.78,757.47l24.92.52c5.49.11,5.49-8.42,0-8.53l-24.92-.52c-5.49-.12-5.49,8.41,0,8.53Z" transform="translate(-93.71 -379.12)"/><path class="cls-8" d="M452,745.3l24.91.52c5.49.12,5.49-8.42,0-8.53L452,736.77c-5.5-.12-5.5,8.42,0,8.53Z" transform="translate(-93.71 -379.12)"/><path class="cls-8" d="M633,760.52l24.92.52c5.49.11,5.49-8.42,0-8.53L633,752c-5.49-.11-5.49,8.42,0,8.54Z" transform="translate(-93.71 -379.12)"/><path class="cls-8" d="M633.16,748.35l24.91.52c5.49.11,5.49-8.42,0-8.53l-24.91-.52c-5.5-.12-5.5,8.41,0,8.53Z" transform="translate(-93.71 -379.12)"/><path class="cls-10" d="M718.61,702.79l-65.24-10.36-65.24-8.12-51.3,11.9-111.67,6.58v33.6c0,23.05,68.45,41.73,152.89,41.73s152.88-18.68,152.88-41.73v-33.6Z" transform="translate(-93.71 -379.12)"/><ellipse class="cls-7" cx="484.33" cy="323.67" rx="152.89" ry="41.72"/><path class="cls-8" d="M578.05,669.56c77.57,0,141,15.19,145.08,34.32a9.55,9.55,0,0,0,.22-2c0-20.06-65.05-36.32-145.3-36.32s-145.3,16.26-145.3,36.32a8.92,8.92,0,0,0,.22,2C437.1,684.75,500.47,669.56,578.05,669.56Z" transform="translate(-93.71 -379.12)"/><path class="cls-9" d="M578.05,736.11c-77.58,0-140.95-15.2-145.08-34.33a8.92,8.92,0,0,0-.22,2c0,20.06,65.05,36.32,145.3,36.32s145.3-16.26,145.3-36.32a9.55,9.55,0,0,0-.22-2C719,720.91,655.62,736.11,578.05,736.11Z" transform="translate(-93.71 -379.12)"/><path class="cls-8" d="M504,694.21c39.62-.69,79.25-1,118.86-.27q14.17.27,28.34.74c-.22,0,4.83.38,2.91-.38-.3-.12-.54-.87-.11,0a12.92,12.92,0,0,1,.77,3.36,31.52,31.52,0,0,1,.07,9.5c-.86,5.09-10.17,5.2-14.17,5.71a169.88,169.88,0,0,1-24.6,1c-3.86-.08-8.51-.36-11.66-2.91-2.26-1.83-2.61-4.88-3-7.6a93,93,0,0,1-.85-14.35H592c.56,6.8,1,14.35-.58,21-1.43,5.9-7.39,5.83-12.62,6.22-6.49.49-13,.9-19.48,1.17-6.94.3-13.9.45-20.85.34-6.5-.11-13.52,0-19.85-1.72-3.11-.82-7.71-2.53-9.55-5.54-1.18-1.95-.71-5.3-.79-7.56-.15-4.35-.14-8.7,0-13.06.15-5.49-8.39-5.48-8.53,0-.19,6.92-1,15.12.67,21.91.7,2.9,2.71,5.08,5,7,8.67,7.25,20.92,7.27,31.65,7.51,12.72.29,25.46-.32,38.14-1.21,9.76-.68,21.46-1.06,24.39-12.34,2-7.55,1.63-16,1-23.71-.45-5.4-8.5-5.58-8.53,0-.08,11.57-.4,26.69,12.37,31.51,8.64,3.27,19.24,2,28.25,1.54,7.61-.37,16.69-.74,23.72-4.05s7.62-10.87,7.19-17.85c-.4-6.53-1.42-13.54-9.08-14-23.59-1.27-47.34-1.19-71-1.25-26.5-.08-53,.2-79.5.67-5.48.09-5.5,8.63,0,8.53Z" transform="translate(-93.71 -379.12)"/><path class="cls-8" d="M478.07,709.92l24.92.53c5.49.11,5.49-8.42,0-8.54l-24.92-.52c-5.49-.11-5.49,8.42,0,8.53Z" transform="translate(-93.71 -379.12)"/><path class="cls-8" d="M478.28,697.76l24.91.52c5.5.11,5.5-8.42,0-8.53l-24.91-.52c-5.49-.12-5.49,8.41,0,8.53Z" transform="translate(-93.71 -379.12)"/><path class="cls-8" d="M659.24,713l24.92.52c5.49.12,5.49-8.41,0-8.53l-24.92-.52c-5.49-.11-5.49,8.42,0,8.53Z" transform="translate(-93.71 -379.12)"/><path class="cls-8" d="M659.45,700.81l24.91.52c5.5.11,5.5-8.42,0-8.54l-24.91-.52c-5.49-.11-5.49,8.42,0,8.54Z" transform="translate(-93.71 -379.12)"/><path class="cls-6" d="M697.21,654.06,632,643.7l-65.24-8.12-51.3,11.9-111.67,6.58v33.6c0,23.05,68.45,41.73,152.89,41.73s152.88-18.68,152.88-41.73v-33.6Z" transform="translate(-93.71 -379.12)"/><ellipse class="cls-7" cx="462.93" cy="274.94" rx="152.89" ry="41.72"/><path class="cls-8" d="M556.65,620.82c77.58,0,141,15.2,145.08,34.33a9.55,9.55,0,0,0,.22-2c0-20.06-65.05-36.32-145.3-36.32s-145.3,16.26-145.3,36.32a8.92,8.92,0,0,0,.22,2C415.7,636,479.07,620.82,556.65,620.82Z" transform="translate(-93.71 -379.12)"/><path class="cls-9" d="M556.65,687.38c-77.58,0-140.95-15.2-145.08-34.33a8.92,8.92,0,0,0-.22,2c0,20.06,65,36.32,145.3,36.32S702,675.1,702,655a9.55,9.55,0,0,0-.22-2C697.6,672.18,634.23,687.38,556.65,687.38Z" transform="translate(-93.71 -379.12)"/><path class="cls-10" d="M1073.08,750.34,1007.84,740l-65.24-8.12-51.3,11.89-111.67,6.59v33.6c0,23,68.45,41.72,152.89,41.72S1085.4,807,1085.4,783.94v-33.6Z" transform="translate(-93.71 -379.12)"/><ellipse class="cls-7" cx="838.81" cy="371.22" rx="152.89" ry="41.72"/><path class="cls-8" d="M932.52,717.1c77.58,0,141,15.19,145.08,34.33a9,9,0,0,0,.22-2c0-20-65-36.31-145.3-36.31s-145.3,16.26-145.3,36.31a9,9,0,0,0,.22,2C791.57,732.29,854.94,717.1,932.52,717.1Z" transform="translate(-93.71 -379.12)"/><path class="cls-9" d="M932.52,783.65c-77.58,0-140.95-15.19-145.08-34.32a8.86,8.86,0,0,0-.22,2c0,20,65,36.31,145.3,36.31s145.3-16.26,145.3-36.31a8.86,8.86,0,0,0-.22-2C1073.47,768.46,1010.1,783.65,932.52,783.65Z" transform="translate(-93.71 -379.12)"/><path class="cls-8" d="M858.46,741.75c39.61-.69,79.24-1,118.85-.26q14.18.25,28.34.73c-.22,0,4.84.38,2.91-.38-.3-.11-.53-.86-.11,0a12.9,12.9,0,0,1,.77,3.37,31.13,31.13,0,0,1,.07,9.49c-.86,5.09-10.17,5.2-14.17,5.71a169.88,169.88,0,0,1-24.6,1c-3.86-.07-8.51-.36-11.65-2.9-2.27-1.84-2.62-4.88-3-7.61A93,93,0,0,1,955,736.6h-8.53c.56,6.81,1,14.35-.58,21-1.43,5.9-7.39,5.83-12.62,6.23q-9.74.74-19.48,1.17c-6.94.29-13.9.45-20.84.33-6.51-.11-13.53,0-19.85-1.71-3.12-.83-7.72-2.54-9.56-5.55-1.18-1.94-.71-5.3-.78-7.55-.15-4.36-.14-8.71,0-13.06.15-5.5-8.38-5.49-8.53,0-.18,6.92-1,15.11.67,21.9.7,2.9,2.72,5.09,5,7,8.67,7.25,20.93,7.27,31.66,7.51,12.71.29,25.45-.32,38.14-1.21,9.75-.68,21.46-1.06,24.38-12.33,2-7.55,1.63-16,1-23.72-.45-5.4-8.5-5.57-8.53,0-.07,11.57-.4,26.69,12.37,31.52,8.64,3.26,19.24,2,28.25,1.53,7.62-.37,16.7-.74,23.72-4s7.62-10.87,7.19-17.85c-.4-6.53-1.42-13.53-9.08-14-23.59-1.27-47.34-1.18-71-1.25-26.5-.08-53,.21-79.49.67-5.49.1-5.51,8.63,0,8.53Z" transform="translate(-93.71 -379.12)"/><path class="cls-8" d="M832.55,757.47l24.91.52c5.49.11,5.49-8.42,0-8.53l-24.91-.52c-5.5-.12-5.5,8.41,0,8.53Z" transform="translate(-93.71 -379.12)"/><path class="cls-8" d="M832.75,745.3l24.92.52c5.49.12,5.49-8.42,0-8.53l-24.92-.52c-5.49-.12-5.49,8.42,0,8.53Z" transform="translate(-93.71 -379.12)"/><path class="cls-8" d="M1013.71,760.52l24.92.52c5.49.11,5.49-8.42,0-8.53l-24.92-.53c-5.49-.11-5.49,8.42,0,8.54Z" transform="translate(-93.71 -379.12)"/><path class="cls-8" d="M1013.92,748.35l24.92.52c5.49.11,5.49-8.42,0-8.53l-24.92-.52c-5.49-.12-5.49,8.41,0,8.53Z" transform="translate(-93.71 -379.12)"/><path class="cls-6" d="M1091.27,701.45,1026,691.09,960.79,683l-51.3,11.9-111.67,6.58v33.6c0,23,68.45,41.72,152.89,41.72s152.88-18.68,152.88-41.72v-33.6Z" transform="translate(-93.71 -379.12)"/><ellipse class="cls-7" cx="856.99" cy="322.33" rx="152.89" ry="41.72"/><path class="cls-8" d="M950.71,668.21c77.57,0,140.94,15.2,145.08,34.33a9.55,9.55,0,0,0,.22-2c0-20.06-65.06-36.32-145.3-36.32S805.4,680.49,805.4,700.55a9.55,9.55,0,0,0,.22,2C809.76,683.41,873.13,668.21,950.71,668.21Z" transform="translate(-93.71 -379.12)"/><path class="cls-9" d="M950.71,734.77c-77.58,0-141-15.2-145.09-34.33a9.55,9.55,0,0,0-.22,2c0,20.06,65.06,36.32,145.31,36.32S1096,722.49,1096,702.43a9.55,9.55,0,0,0-.22-2C1091.65,719.57,1028.28,734.77,950.71,734.77Z" transform="translate(-93.71 -379.12)"/><path class="cls-8" d="M876.64,692.87c39.61-.7,79.24-1,118.86-.27q14.16.27,28.33.74c-.22,0,4.84.38,2.92-.38-.3-.12-.54-.87-.12,0a12.44,12.44,0,0,1,.77,3.36,31.52,31.52,0,0,1,.08,9.5c-.86,5.09-10.17,5.2-14.18,5.71a171.25,171.25,0,0,1-24.6,1c-3.86-.08-8.5-.37-11.65-2.91-2.26-1.83-2.62-4.88-3-7.6a93.14,93.14,0,0,1-.85-14.36h-8.53c.56,6.81,1,14.36-.58,21-1.42,5.9-7.38,5.83-12.61,6.22q-9.74.74-19.49,1.17c-6.94.3-13.89.45-20.84.33-6.5-.1-13.53,0-19.85-1.71-3.11-.82-7.71-2.53-9.55-5.55-1.19-1.94-.71-5.29-.79-7.55-.15-4.35-.14-8.7,0-13.06.14-5.49-8.39-5.49-8.54,0-.18,6.92-1,15.12.68,21.91.7,2.9,2.71,5.08,5,7,8.67,7.26,20.93,7.27,31.66,7.52,12.72.29,25.46-.32,38.14-1.21,9.75-.69,21.46-1.06,24.39-12.34,2-7.55,1.62-16,1-23.72-.44-5.39-8.49-5.57-8.53,0-.07,11.58-.39,26.7,12.38,31.52,8.63,3.26,19.23,2,28.25,1.54,7.61-.37,16.69-.74,23.72-4s7.61-10.87,7.19-17.86c-.4-6.53-1.43-13.53-9.08-13.94-23.6-1.27-47.34-1.19-71-1.26-26.5-.07-53,.21-79.5.68-5.48.09-5.5,8.62,0,8.53Z" transform="translate(-93.71 -379.12)"/><path class="cls-8" d="M850.73,708.58l24.92.52c5.49.12,5.49-8.41,0-8.53l-24.92-.52c-5.49-.11-5.49,8.42,0,8.53Z" transform="translate(-93.71 -379.12)"/><path class="cls-8" d="M850.94,696.42l24.91.52c5.49.11,5.49-8.42,0-8.54l-24.91-.52c-5.5-.11-5.5,8.42,0,8.54Z" transform="translate(-93.71 -379.12)"/><path class="cls-8" d="M1031.9,711.63l24.92.52c5.49.12,5.49-8.42,0-8.53l-24.92-.52c-5.49-.12-5.49,8.42,0,8.53Z" transform="translate(-93.71 -379.12)"/><path class="cls-8" d="M1032.1,699.46,1057,700c5.49.12,5.49-8.41,0-8.53l-24.92-.52c-5.49-.11-5.49,8.42,0,8.53Z" transform="translate(-93.71 -379.12)"/><path class="cls-10" d="M1078,654.06l-65.24-10.36-65.25-8.12-51.29,11.9-111.67,6.58v33.6c0,23.05,68.45,41.73,152.88,41.73s152.89-18.68,152.89-41.73v-33.6Z" transform="translate(-93.71 -379.12)"/><ellipse class="cls-7" cx="843.7" cy="274.94" rx="152.89" ry="41.72"/><path class="cls-8" d="M937.41,620.82c77.58,0,140.95,15.2,145.09,34.33a9.55,9.55,0,0,0,.22-2c0-20.06-65.06-36.32-145.31-36.32s-145.3,16.26-145.3,36.32a9.55,9.55,0,0,0,.22,2C796.47,636,859.84,620.82,937.41,620.82Z" transform="translate(-93.71 -379.12)"/><path class="cls-9" d="M937.41,687.38c-77.57,0-140.94-15.2-145.08-34.33a9.55,9.55,0,0,0-.22,2c0,20.06,65,36.32,145.3,36.32S1082.72,675.1,1082.72,655a9.55,9.55,0,0,0-.22-2C1078.36,672.18,1015,687.38,937.41,687.38Z" transform="translate(-93.71 -379.12)"/><path class="cls-8" d="M863.35,645.48c39.61-.7,79.24-1,118.86-.27q14.16.27,28.33.74c-.22,0,4.84.38,2.91-.38-.29-.12-.53-.87-.11,0a12.52,12.52,0,0,1,.77,3.36,31.52,31.52,0,0,1,.08,9.5c-.86,5.09-10.18,5.2-14.18,5.71a169.82,169.82,0,0,1-24.6,1c-3.86-.08-8.5-.36-11.65-2.91-2.26-1.83-2.62-4.88-3-7.6a93.07,93.07,0,0,1-.85-14.36h-8.53c.56,6.81,1,14.36-.58,21-1.43,5.9-7.39,5.83-12.61,6.22-6.49.49-13,.9-19.49,1.17-6.94.3-13.89.45-20.84.34-6.5-.11-13.53,0-19.85-1.72-3.12-.82-7.71-2.53-9.55-5.55-1.19-1.94-.71-5.29-.79-7.55-.15-4.35-.14-8.7,0-13.06.14-5.49-8.39-5.49-8.54,0-.18,6.92-1,15.12.67,21.91.71,2.9,2.72,5.08,5,7,8.67,7.25,20.93,7.26,31.66,7.51,12.72.29,25.45-.32,38.14-1.21,9.75-.68,21.46-1.06,24.39-12.34,2-7.55,1.62-16,1-23.72-.44-5.39-8.5-5.57-8.53,0-.07,11.58-.39,26.7,12.38,31.52,8.63,3.26,19.23,2,28.25,1.54,7.61-.37,16.69-.74,23.71-4s7.62-10.87,7.19-17.86c-.39-6.52-1.42-13.53-9.07-13.94-23.6-1.27-47.34-1.19-71-1.25-26.51-.08-53,.2-79.5.67-5.49.09-5.5,8.63,0,8.53Z" transform="translate(-93.71 -379.12)"/><path class="cls-8" d="M837.44,661.19l24.91.52c5.5.12,5.5-8.41,0-8.53l-24.91-.52c-5.49-.11-5.49,8.42,0,8.53Z" transform="translate(-93.71 -379.12)"/><path class="cls-8" d="M837.64,649l24.92.52c5.49.11,5.49-8.42,0-8.54l-24.92-.52c-5.49-.11-5.49,8.42,0,8.54Z" transform="translate(-93.71 -379.12)"/><path class="cls-8" d="M1018.61,664.24l24.91.52c5.5.12,5.5-8.41,0-8.53l-24.91-.52c-5.49-.11-5.49,8.42,0,8.53Z" transform="translate(-93.71 -379.12)"/><path class="cls-8" d="M1018.81,652.08l24.92.52c5.49.11,5.49-8.42,0-8.54l-24.92-.52c-5.49-.11-5.49,8.42,0,8.54Z" transform="translate(-93.71 -379.12)"/><path class="cls-6" d="M1097.08,607.42l-65.24-10.36-65.25-8.12L915.3,600.83l-111.67,6.59V641c0,23,68.45,41.72,152.88,41.72S1109.4,664.06,1109.4,641v-33.6Z" transform="translate(-93.71 -379.12)"/><ellipse class="cls-7" cx="862.8" cy="228.3" rx="152.89" ry="41.72"/><path class="cls-8" d="M956.51,574.18c77.58,0,141,15.19,145.09,34.33a9.63,9.63,0,0,0,.22-2c0-20.06-65.06-36.32-145.31-36.32s-145.3,16.26-145.3,36.32a9.63,9.63,0,0,0,.22,2C815.57,589.37,878.94,574.18,956.51,574.18Z" transform="translate(-93.71 -379.12)"/><path class="cls-9" d="M956.51,640.73c-77.57,0-140.94-15.19-145.08-34.32a9.55,9.55,0,0,0-.22,2c0,20.06,65,36.32,145.3,36.32s145.31-16.26,145.31-36.32a9.55,9.55,0,0,0-.22-2C1097.46,625.54,1034.09,640.73,956.51,640.73Z" transform="translate(-93.71 -379.12)"/><path class="cls-8" d="M882.45,598.83c39.61-.69,79.24-1,118.86-.26q14.16.25,28.33.73c-.22,0,4.84.38,2.91-.38-.3-.11-.53-.86-.11,0a12.35,12.35,0,0,1,.77,3.36,31.45,31.45,0,0,1,.08,9.49c-.86,5.09-10.18,5.2-14.18,5.72a169.81,169.81,0,0,1-24.6,1c-3.86-.07-8.5-.36-11.65-2.9-2.26-1.83-2.62-4.88-3-7.61a93,93,0,0,1-.85-14.35h-8.53c.56,6.81,1,14.36-.58,21-1.43,5.9-7.39,5.83-12.61,6.23q-9.74.73-19.49,1.17c-6.94.29-13.89.45-20.84.33-6.5-.11-13.53,0-19.85-1.71-3.12-.83-7.71-2.54-9.55-5.55-1.19-1.94-.71-5.3-.79-7.55-.15-4.36-.14-8.71,0-13.06.15-5.49-8.38-5.49-8.53,0-.18,6.92-1,15.11.67,21.9.71,2.91,2.72,5.09,5,7,8.67,7.25,20.93,7.27,31.66,7.52,12.72.29,25.45-.32,38.14-1.21,9.75-.69,21.46-1.06,24.39-12.34,2-7.55,1.62-16,1-23.72-.44-5.4-8.5-5.57-8.53,0-.07,11.57-.39,26.7,12.38,31.52,8.63,3.26,19.23,2,28.25,1.53,7.61-.36,16.69-.74,23.71-4.05s7.62-10.86,7.19-17.85c-.39-6.53-1.42-13.53-9.07-13.94-23.6-1.27-47.34-1.19-71-1.26-26.5-.07-53,.21-79.49.67-5.49.1-5.5,8.63,0,8.53Z" transform="translate(-93.71 -379.12)"/><path class="cls-8" d="M856.54,614.55l24.91.52c5.5.11,5.5-8.42,0-8.53L856.54,606c-5.49-.12-5.49,8.41,0,8.53Z" transform="translate(-93.71 -379.12)"/><path class="cls-8" d="M856.74,602.38l24.92.52c5.49.12,5.49-8.42,0-8.53l-24.92-.52c-5.49-.11-5.49,8.42,0,8.53Z" transform="translate(-93.71 -379.12)"/><path class="cls-8" d="M1037.71,617.6l24.91.52c5.5.11,5.5-8.42,0-8.53l-24.91-.52c-5.49-.12-5.49,8.41,0,8.53Z" transform="translate(-93.71 -379.12)"/><path class="cls-8" d="M1037.91,605.43l24.92.52c5.49.12,5.49-8.42,0-8.53l-24.92-.52c-5.49-.12-5.49,8.42,0,8.53Z" transform="translate(-93.71 -379.12)"/><path class="cls-6" d="M1042.67,560.27l-65.25-10.36-65.24-8.12-51.29,11.89-111.67,6.59v33.6c0,23,68.45,41.72,152.88,41.72S1055,616.91,1055,593.87v-33.6Z" transform="translate(-93.71 -379.12)"/><ellipse class="cls-7" cx="808.39" cy="181.15" rx="152.89" ry="41.72"/><path class="cls-8" d="M902.1,527c77.58,0,140.95,15.2,145.08,34.33a9,9,0,0,0,.22-2c0-20.06-65.05-36.32-145.3-36.32s-145.3,16.26-145.3,36.32a9.63,9.63,0,0,0,.22,2C761.15,542.23,824.53,527,902.1,527Z" transform="translate(-93.71 -379.12)"/><path class="cls-9" d="M902.1,593.58c-77.57,0-141-15.19-145.08-34.32a9.55,9.55,0,0,0-.22,2c0,20.06,65.05,36.32,145.3,36.32s145.3-16.26,145.3-36.32a8.92,8.92,0,0,0-.22-2C1043.05,578.39,979.68,593.58,902.1,593.58Z" transform="translate(-93.71 -379.12)"/><path class="cls-6" d="M1466.78,750.34,1401.53,740l-65.24-8.12L1285,743.75l-111.67,6.59v33.6c0,23,68.44,41.72,152.88,41.72S1479.1,807,1479.1,783.94v-33.6Z" transform="translate(-93.71 -379.12)"/><ellipse class="cls-7" cx="1232.5" cy="371.22" rx="152.89" ry="41.72"/><path class="cls-8" d="M1326.21,717.1c77.58,0,141,15.19,145.08,34.33a9,9,0,0,0,.22-2c0-20-65-36.31-145.3-36.31s-145.3,16.26-145.3,36.31a9.65,9.65,0,0,0,.22,2C1185.26,732.29,1248.64,717.1,1326.21,717.1Z" transform="translate(-93.71 -379.12)"/><path class="cls-9" d="M1326.21,783.65c-77.57,0-141-15.19-145.08-34.32a9.48,9.48,0,0,0-.22,2c0,20,65,36.31,145.3,36.31s145.3-16.26,145.3-36.31a8.86,8.86,0,0,0-.22-2C1467.16,768.46,1403.79,783.65,1326.21,783.65Z" transform="translate(-93.71 -379.12)"/><path class="cls-8" d="M1252.15,741.75c39.61-.69,79.24-1,118.85-.26q14.18.25,28.34.73c-.22,0,4.84.38,2.91-.38-.3-.11-.53-.86-.11,0a12.9,12.9,0,0,1,.77,3.37,31.13,31.13,0,0,1,.07,9.49c-.85,5.09-10.17,5.2-14.17,5.71a169.88,169.88,0,0,1-24.6,1c-3.86-.07-8.51-.36-11.65-2.9-2.27-1.84-2.62-4.88-3-7.61a93,93,0,0,1-.85-14.35h-8.53c.56,6.81,1,14.35-.58,21-1.43,5.9-7.39,5.83-12.62,6.23q-9.72.74-19.48,1.17c-6.94.29-13.89.45-20.84.33-6.51-.11-13.53,0-19.85-1.71-3.12-.83-7.71-2.54-9.55-5.55-1.19-1.94-.72-5.3-.79-7.55-.15-4.36-.14-8.71,0-13.06.15-5.5-8.38-5.49-8.53,0-.18,6.92-1,15.11.67,21.9.7,2.9,2.72,5.09,5,7,8.67,7.25,20.93,7.27,31.66,7.51,12.71.29,25.45-.32,38.14-1.21,9.75-.68,21.46-1.06,24.38-12.33,2-7.55,1.63-16,1-23.72-.45-5.4-8.5-5.57-8.53,0-.07,11.57-.4,26.69,12.37,31.52,8.64,3.26,19.24,2,28.26,1.53,7.61-.37,16.69-.74,23.71-4s7.62-10.87,7.19-17.85c-.4-6.53-1.42-13.53-9.08-14-23.59-1.27-47.34-1.18-71-1.25-26.5-.08-53,.21-79.49.67-5.49.1-5.51,8.63,0,8.53Z" transform="translate(-93.71 -379.12)"/><path class="cls-8" d="M1226.24,757.47l24.91.52c5.49.11,5.49-8.42,0-8.53l-24.91-.52c-5.5-.12-5.5,8.41,0,8.53Z" transform="translate(-93.71 -379.12)"/><path class="cls-8" d="M1226.44,745.3l24.92.52c5.49.12,5.49-8.42,0-8.53l-24.92-.52c-5.49-.12-5.49,8.42,0,8.53Z" transform="translate(-93.71 -379.12)"/><path class="cls-8" d="M1407.41,760.52l24.91.52c5.49.11,5.49-8.42,0-8.53l-24.91-.53c-5.5-.11-5.5,8.42,0,8.54Z" transform="translate(-93.71 -379.12)"/><path class="cls-8" d="M1407.61,748.35l24.92.52c5.49.11,5.49-8.42,0-8.53l-24.92-.52c-5.49-.12-5.49,8.41,0,8.53Z" transform="translate(-93.71 -379.12)"/><path class="cls-10" d="M1485,701.45l-65.24-10.36L1354.48,683l-51.3,11.9-111.67,6.58v33.6c0,23,68.45,41.72,152.89,41.72s152.88-18.68,152.88-41.72v-33.6Z" transform="translate(-93.71 -379.12)"/><ellipse class="cls-7" cx="1250.68" cy="322.33" rx="152.89" ry="41.72"/><path class="cls-8" d="M1344.4,668.21c77.57,0,140.94,15.2,145.08,34.33a9.55,9.55,0,0,0,.22-2c0-20.06-65.06-36.32-145.3-36.32s-145.31,16.26-145.31,36.32a9.55,9.55,0,0,0,.22,2C1203.45,683.41,1266.82,668.21,1344.4,668.21Z" transform="translate(-93.71 -379.12)"/><path class="cls-9" d="M1344.4,734.77c-77.58,0-141-15.2-145.09-34.33a9.55,9.55,0,0,0-.22,2c0,20.06,65.06,36.32,145.31,36.32s145.3-16.26,145.3-36.32a9.55,9.55,0,0,0-.22-2C1485.34,719.57,1422,734.77,1344.4,734.77Z" transform="translate(-93.71 -379.12)"/><path class="cls-8" d="M1270.33,692.87c39.61-.7,79.24-1,118.86-.27q14.16.27,28.33.74c-.22,0,4.84.38,2.92-.38-.3-.12-.54-.87-.12,0a12.84,12.84,0,0,1,.78,3.36,31.85,31.85,0,0,1,.07,9.5c-.86,5.09-10.17,5.2-14.18,5.71a171.25,171.25,0,0,1-24.6,1c-3.86-.08-8.5-.37-11.65-2.91-2.26-1.83-2.62-4.88-3-7.6a93.14,93.14,0,0,1-.84-14.36h-8.54c.57,6.81,1,14.36-.57,21-1.43,5.9-7.39,5.83-12.62,6.22q-9.73.74-19.48,1.17c-7,.3-13.9.45-20.85.33-6.5-.1-13.52,0-19.85-1.71-3.11-.82-7.71-2.53-9.55-5.55-1.19-1.94-.71-5.29-.79-7.55-.15-4.35-.14-8.7,0-13.06.14-5.49-8.39-5.49-8.53,0-.19,6.92-1,15.12.67,21.91.7,2.9,2.71,5.08,5,7,8.67,7.26,20.93,7.27,31.66,7.52,12.72.29,25.46-.32,38.14-1.21,9.75-.69,21.46-1.06,24.39-12.34,2-7.55,1.62-16,1-23.72-.45-5.39-8.5-5.57-8.54,0-.07,11.58-.39,26.7,12.38,31.52,8.63,3.26,19.23,2,28.25,1.54,7.61-.37,16.69-.74,23.72-4s7.61-10.87,7.19-17.86c-.4-6.53-1.43-13.53-9.08-13.94-23.59-1.27-47.34-1.19-71-1.26-26.5-.07-53,.21-79.5.68-5.48.09-5.5,8.62,0,8.53Z" transform="translate(-93.71 -379.12)"/><path class="cls-8" d="M1244.42,708.58l24.92.52c5.49.12,5.49-8.41,0-8.53l-24.92-.52c-5.49-.11-5.49,8.42,0,8.53Z" transform="translate(-93.71 -379.12)"/><path class="cls-8" d="M1244.63,696.42l24.91.52c5.5.11,5.49-8.42,0-8.54l-24.91-.52c-5.5-.11-5.5,8.42,0,8.54Z" transform="translate(-93.71 -379.12)"/><path class="cls-8" d="M1425.59,711.63l24.92.52c5.49.12,5.49-8.42,0-8.53l-24.92-.52c-5.49-.12-5.49,8.42,0,8.53Z" transform="translate(-93.71 -379.12)"/><path class="cls-8" d="M1425.8,699.46l24.91.52c5.49.12,5.49-8.41,0-8.53l-24.91-.52c-5.5-.11-5.5,8.42,0,8.53Z" transform="translate(-93.71 -379.12)"/><path class="cls-6" d="M1471.67,654.06l-65.24-10.36-65.25-8.12-51.29,11.9-111.67,6.58v33.6c0,23.05,68.45,41.73,152.88,41.73S1484,710.71,1484,687.66v-33.6Z" transform="translate(-93.71 -379.12)"/><ellipse class="cls-7" cx="1237.39" cy="274.94" rx="152.89" ry="41.72"/><path class="cls-8" d="M1331.1,620.82c77.58,0,141,15.2,145.09,34.33a9.55,9.55,0,0,0,.22-2c0-20.06-65.06-36.32-145.31-36.32s-145.3,16.26-145.3,36.32a9.55,9.55,0,0,0,.22,2C1190.16,636,1253.53,620.82,1331.1,620.82Z" transform="translate(-93.71 -379.12)"/><path class="cls-9" d="M1331.1,687.38c-77.57,0-140.94-15.2-145.08-34.33a9.55,9.55,0,0,0-.22,2c0,20.06,65.06,36.32,145.3,36.32S1476.41,675.1,1476.41,655a9.55,9.55,0,0,0-.22-2C1472.05,672.18,1408.68,687.38,1331.1,687.38Z" transform="translate(-93.71 -379.12)"/><path class="cls-8" d="M1257,645.48c39.61-.7,79.24-1,118.86-.27q14.16.27,28.33.74c-.22,0,4.84.38,2.91-.38-.29-.12-.53-.87-.11,0a12.52,12.52,0,0,1,.77,3.36,31.52,31.52,0,0,1,.08,9.5c-.86,5.09-10.18,5.2-14.18,5.71a169.82,169.82,0,0,1-24.6,1c-3.86-.08-8.5-.36-11.65-2.91-2.26-1.83-2.62-4.88-3-7.6a93.07,93.07,0,0,1-.85-14.36H1345c.56,6.81,1,14.36-.58,21-1.42,5.9-7.39,5.83-12.61,6.22-6.49.49-13,.9-19.49,1.17-6.94.3-13.89.45-20.84.34-6.5-.11-13.53,0-19.85-1.72-3.11-.82-7.71-2.53-9.55-5.55-1.19-1.94-.71-5.29-.79-7.55-.15-4.35-.14-8.7,0-13.06.14-5.49-8.39-5.49-8.54,0-.18,6.92-1,15.12.68,21.91.7,2.9,2.71,5.08,5,7,8.67,7.25,20.93,7.26,31.66,7.51,12.72.29,25.46-.32,38.14-1.21,9.75-.68,21.46-1.06,24.39-12.34,2-7.55,1.62-16,1-23.72-.44-5.39-8.49-5.57-8.53,0-.07,11.58-.39,26.7,12.38,31.52,8.63,3.26,19.23,2,28.25,1.54,7.61-.37,16.69-.74,23.72-4s7.61-10.87,7.19-17.86c-.4-6.52-1.43-13.53-9.08-13.94-23.6-1.27-47.34-1.19-71-1.25-26.5-.08-53,.2-79.5.67-5.48.09-5.5,8.63,0,8.53Z" transform="translate(-93.71 -379.12)"/><path class="cls-8" d="M1231.13,661.19l24.92.52c5.49.12,5.49-8.41,0-8.53l-24.92-.52c-5.49-.11-5.49,8.42,0,8.53Z" transform="translate(-93.71 -379.12)"/><path class="cls-8" d="M1231.33,649l24.92.52c5.49.11,5.49-8.42,0-8.54l-24.92-.52c-5.49-.11-5.49,8.42,0,8.54Z" transform="translate(-93.71 -379.12)"/><path class="cls-8" d="M1412.3,664.24l24.92.52c5.49.12,5.49-8.41,0-8.53l-24.92-.52c-5.49-.11-5.49,8.42,0,8.53Z" transform="translate(-93.71 -379.12)"/><path class="cls-8" d="M1412.5,652.08l24.92.52c5.49.11,5.49-8.42,0-8.54l-24.92-.52c-5.49-.11-5.49,8.42,0,8.54Z" transform="translate(-93.71 -379.12)"/><path class="cls-10" d="M1490.77,607.42l-65.24-10.36-65.25-8.12L1309,600.83l-111.67,6.59V641c0,23,68.45,41.72,152.88,41.72s152.89-18.68,152.89-41.72v-33.6Z" transform="translate(-93.71 -379.12)"/><ellipse class="cls-7" cx="1256.49" cy="228.3" rx="152.89" ry="41.72"/><path class="cls-8" d="M1350.2,574.18c77.58,0,141,15.19,145.09,34.33a9.63,9.63,0,0,0,.22-2c0-20.06-65.06-36.32-145.31-36.32s-145.3,16.26-145.3,36.32a9.63,9.63,0,0,0,.22,2C1209.26,589.37,1272.63,574.18,1350.2,574.18Z" transform="translate(-93.71 -379.12)"/><path class="cls-9" d="M1350.2,640.73c-77.57,0-140.94-15.19-145.08-34.32a9.55,9.55,0,0,0-.22,2c0,20.06,65.06,36.32,145.3,36.32s145.31-16.26,145.31-36.32a9.55,9.55,0,0,0-.22-2C1491.15,625.54,1427.78,640.73,1350.2,640.73Z" transform="translate(-93.71 -379.12)"/><path class="cls-8" d="M1276.14,598.83c39.61-.69,79.24-1,118.86-.26q14.16.25,28.33.73c-.22,0,4.84.38,2.91-.38-.29-.11-.53-.86-.11,0a12.35,12.35,0,0,1,.77,3.36,31.45,31.45,0,0,1,.08,9.49c-.86,5.09-10.18,5.2-14.18,5.72a169.81,169.81,0,0,1-24.6,1c-3.86-.07-8.5-.36-11.65-2.9-2.26-1.83-2.62-4.88-3-7.61a93,93,0,0,1-.85-14.35h-8.53c.56,6.81,1,14.36-.58,21-1.43,5.9-7.39,5.83-12.61,6.23q-9.73.73-19.49,1.17c-6.94.29-13.89.45-20.84.33-6.5-.11-13.53,0-19.85-1.71-3.12-.83-7.71-2.54-9.55-5.55-1.19-1.94-.71-5.3-.79-7.55-.15-4.36-.14-8.71,0-13.06.14-5.49-8.39-5.49-8.54,0-.18,6.92-1,15.11.68,21.9.7,2.91,2.71,5.09,5,7,8.67,7.25,20.93,7.27,31.66,7.52,12.72.29,25.46-.32,38.14-1.21,9.75-.69,21.46-1.06,24.39-12.34,2-7.55,1.62-16,1-23.72-.44-5.4-8.49-5.57-8.53,0-.07,11.57-.39,26.7,12.38,31.52,8.63,3.26,19.23,2,28.25,1.53,7.61-.36,16.69-.74,23.71-4.05s7.62-10.86,7.2-17.85c-.4-6.53-1.43-13.53-9.08-13.94-23.6-1.27-47.34-1.19-71-1.26-26.5-.07-53,.21-79.5.67-5.48.1-5.5,8.63,0,8.53Z" transform="translate(-93.71 -379.12)"/><path class="cls-8" d="M1250.23,614.55l24.92.52c5.49.11,5.49-8.42,0-8.53l-24.92-.52c-5.49-.12-5.49,8.41,0,8.53Z" transform="translate(-93.71 -379.12)"/><path class="cls-8" d="M1250.43,602.38l24.92.52c5.49.12,5.49-8.42,0-8.53l-24.92-.52c-5.49-.11-5.49,8.42,0,8.53Z" transform="translate(-93.71 -379.12)"/><path class="cls-8" d="M1431.4,617.6l24.92.52c5.49.11,5.49-8.42,0-8.53l-24.92-.52c-5.49-.12-5.49,8.41,0,8.53Z" transform="translate(-93.71 -379.12)"/><path class="cls-8" d="M1431.6,605.43l24.92.52c5.49.12,5.49-8.42,0-8.53l-24.92-.52c-5.49-.12-5.49,8.42,0,8.53Z" transform="translate(-93.71 -379.12)"/><path class="cls-6" d="M1451,561.34,1385.8,551l-65.25-8.12-51.29,11.9-111.67,6.58V595c0,23,68.45,41.72,152.88,41.72S1463.36,618,1463.36,595V561.34Z" transform="translate(-93.71 -379.12)"/><ellipse class="cls-7" cx="1216.76" cy="182.22" rx="152.89" ry="41.72"/><path class="cls-8" d="M1310.47,528.11c77.58,0,141,15.19,145.09,34.32a9.55,9.55,0,0,0,.22-2c0-20.06-65.06-36.32-145.31-36.32s-145.3,16.26-145.3,36.32a9.55,9.55,0,0,0,.22,2C1169.53,543.3,1232.9,528.11,1310.47,528.11Z" transform="translate(-93.71 -379.12)"/><path class="cls-9" d="M1310.47,594.66c-77.57,0-140.94-15.2-145.08-34.33a9.63,9.63,0,0,0-.22,2c0,20.06,65,36.32,145.3,36.32s145.31-16.26,145.31-36.32a9.63,9.63,0,0,0-.22-2C1451.42,579.46,1388.05,594.66,1310.47,594.66Z" transform="translate(-93.71 -379.12)"/><path class="cls-8" d="M1236.41,552.76c39.61-.69,79.24-1,118.85-.27q14.17.27,28.34.74c-.22,0,4.84.38,2.91-.38-.3-.12-.53-.86-.11,0a12.52,12.52,0,0,1,.77,3.36,31.52,31.52,0,0,1,.08,9.5c-.86,5.09-10.18,5.2-14.18,5.71a169.82,169.82,0,0,1-24.6,1c-3.86-.08-8.5-.36-11.65-2.91-2.26-1.83-2.62-4.88-3-7.6a93,93,0,0,1-.85-14.35h-8.53c.56,6.8,1,14.35-.58,21-1.43,5.9-7.39,5.83-12.62,6.22-6.48.49-13,.9-19.48,1.17-6.94.3-13.89.45-20.84.34-6.5-.11-13.53,0-19.85-1.71-3.12-.83-7.71-2.54-9.55-5.55-1.19-2-.71-5.3-.79-7.56-.15-4.35-.14-8.7,0-13.06.15-5.49-8.38-5.48-8.53,0-.18,6.92-1,15.12.67,21.91.71,2.9,2.72,5.08,5,7,8.67,7.25,20.93,7.27,31.66,7.51,12.72.29,25.45-.32,38.14-1.21,9.75-.68,21.46-1.06,24.38-12.34,2-7.54,1.63-16,1-23.71-.44-5.4-8.5-5.58-8.53,0-.07,11.57-.39,26.69,12.38,31.51,8.63,3.27,19.23,2,28.25,1.54,7.61-.37,16.69-.74,23.71-4s7.62-10.87,7.19-17.85c-.4-6.53-1.42-13.54-9.07-14-23.6-1.27-47.35-1.19-71-1.25-26.5-.08-53,.2-79.49.67-5.49.09-5.5,8.63,0,8.53Z" transform="translate(-93.71 -379.12)"/><path class="cls-8" d="M1210.5,568.48l24.91.52c5.5.11,5.5-8.42,0-8.54l-24.91-.52c-5.49-.11-5.49,8.42,0,8.54Z" transform="translate(-93.71 -379.12)"/><path class="cls-8" d="M1210.7,556.31l24.92.52c5.49.11,5.49-8.42,0-8.53l-24.92-.52c-5.49-.12-5.49,8.41,0,8.53Z" transform="translate(-93.71 -379.12)"/><path class="cls-8" d="M1391.67,571.52l24.91.52c5.5.12,5.5-8.41,0-8.53l-24.91-.52c-5.49-.11-5.49,8.42,0,8.53Z" transform="translate(-93.71 -379.12)"/><path class="cls-8" d="M1391.87,559.36l24.92.52c5.49.11,5.49-8.42,0-8.54l-24.92-.52c-5.49-.11-5.49,8.42,0,8.54Z" transform="translate(-93.71 -379.12)"/><path class="cls-6" d="M1482.52,517.12l-65.25-10.37L1352,498.63l-51.29,11.9-111.67,6.59v33.6c0,23,68.45,41.72,152.88,41.72s152.89-18.68,152.89-41.72v-33.6Z" transform="translate(-93.71 -379.12)"/><ellipse class="cls-7" cx="1248.24" cy="138" rx="152.89" ry="41.72"/><path class="cls-8" d="M1342,483.88c77.58,0,141,15.19,145.08,34.32a8.92,8.92,0,0,0,.22-2c0-20.06-65-36.32-145.3-36.32s-145.3,16.26-145.3,36.32a9.55,9.55,0,0,0,.22,2C1201,499.07,1264.38,483.88,1342,483.88Z" transform="translate(-93.71 -379.12)"/><path class="cls-9" d="M1342,550.43c-77.57,0-141-15.19-145.08-34.33a9.63,9.63,0,0,0-.22,2c0,20.06,65,36.32,145.3,36.32s145.3-16.26,145.3-36.32a9,9,0,0,0-.22-2C1482.9,535.24,1419.53,550.43,1342,550.43Z" transform="translate(-93.71 -379.12)"/><path class="cls-8" d="M1267.89,508.53c39.61-.69,79.24-1,118.85-.26q14.17.25,28.34.73c-.22,0,4.84.38,2.91-.38-.3-.12-.53-.86-.11,0a12.92,12.92,0,0,1,.77,3.36,31.52,31.52,0,0,1,.08,9.5c-.86,5.09-10.18,5.2-14.18,5.71a169.88,169.88,0,0,1-24.6,1c-3.86-.08-8.51-.36-11.65-2.91-2.27-1.83-2.62-4.88-3-7.6a93,93,0,0,1-.85-14.35h-8.53c.56,6.81,1,14.35-.58,21-1.43,5.9-7.39,5.83-12.62,6.23-6.48.48-13,.89-19.48,1.16-6.94.3-13.89.46-20.84.34-6.5-.11-13.53,0-19.85-1.71-3.12-.83-7.71-2.54-9.55-5.55-1.19-1.94-.72-5.3-.79-7.56-.15-4.35-.14-8.7,0-13.05.15-5.5-8.38-5.49-8.53,0-.18,6.91-1,15.11.67,21.9.71,2.9,2.72,5.08,5,7,8.67,7.25,20.93,7.27,31.66,7.51,12.72.29,25.45-.32,38.14-1.21,9.75-.68,21.46-1.06,24.38-12.34,2-7.54,1.63-16,1-23.71-.45-5.4-8.5-5.58-8.53,0-.07,11.57-.39,26.69,12.37,31.52,8.64,3.26,19.24,2,28.26,1.53,7.61-.37,16.69-.74,23.71-4s7.62-10.87,7.19-17.85c-.4-6.53-1.42-13.54-9.08-13.95-23.59-1.27-47.34-1.19-71-1.25-26.5-.08-53,.2-79.49.67-5.49.1-5.5,8.63,0,8.53Z" transform="translate(-93.71 -379.12)"/><path class="cls-8" d="M1242,524.25l24.91.52c5.5.11,5.49-8.42,0-8.54l-24.91-.52c-5.5-.11-5.49,8.42,0,8.54Z" transform="translate(-93.71 -379.12)"/><path class="cls-8" d="M1242.18,512.08l24.92.52c5.49.11,5.49-8.42,0-8.53l-24.92-.52c-5.49-.12-5.49,8.41,0,8.53Z" transform="translate(-93.71 -379.12)"/><path class="cls-8" d="M1423.15,527.3l24.91.52c5.5.11,5.49-8.42,0-8.54l-24.91-.52c-5.5-.11-5.49,8.42,0,8.54Z" transform="translate(-93.71 -379.12)"/><path class="cls-8" d="M1423.35,515.13l24.92.52c5.49.11,5.49-8.42,0-8.53l-24.92-.52c-5.49-.12-5.49,8.41,0,8.53Z" transform="translate(-93.71 -379.12)"/><path class="cls-10" d="M1508.81,469.57l-65.24-10.36-65.25-8.12L1327,463l-111.67,6.58v33.6c0,23,68.45,41.72,152.88,41.72s152.89-18.68,152.89-41.72v-33.6Z" transform="translate(-93.71 -379.12)"/><ellipse class="cls-7" cx="1274.53" cy="90.45" rx="152.89" ry="41.72"/><path class="cls-8" d="M1368.24,436.33c77.58,0,141,15.2,145.09,34.33a9.55,9.55,0,0,0,.22-2c0-20.06-65.06-36.32-145.31-36.32s-145.3,16.26-145.3,36.32a9.55,9.55,0,0,0,.22,2C1227.3,451.53,1290.67,436.33,1368.24,436.33Z" transform="translate(-93.71 -379.12)"/><path class="cls-9" d="M1368.24,502.89c-77.57,0-140.94-15.2-145.08-34.33a9.55,9.55,0,0,0-.22,2c0,20.06,65.06,36.32,145.3,36.32s145.31-16.26,145.31-36.32a9.55,9.55,0,0,0-.22-2C1509.19,487.69,1445.82,502.89,1368.24,502.89Z" transform="translate(-93.71 -379.12)"/><path class="cls-8" d="M1294.18,461c39.61-.7,79.24-1,118.86-.27q14.16.27,28.33.74c-.22,0,4.84.38,2.91-.38-.29-.12-.53-.87-.11,0a12.52,12.52,0,0,1,.77,3.36,31.52,31.52,0,0,1,.08,9.5c-.86,5.09-10.18,5.2-14.18,5.71a171.25,171.25,0,0,1-24.6,1c-3.86-.08-8.5-.36-11.65-2.91-2.26-1.83-2.62-4.88-3-7.6a93.14,93.14,0,0,1-.85-14.36h-8.53c.56,6.81,1,14.36-.58,21-1.43,5.9-7.39,5.83-12.61,6.22-6.49.49-13,.9-19.49,1.17-6.94.3-13.89.45-20.84.34-6.5-.11-13.53,0-19.85-1.72-3.12-.82-7.71-2.53-9.55-5.55-1.19-1.94-.71-5.29-.79-7.55-.15-4.35-.14-8.7,0-13.06.14-5.49-8.39-5.49-8.54,0-.18,6.92-1,15.12.67,21.91.71,2.9,2.72,5.08,5,7,8.67,7.25,20.93,7.26,31.66,7.51,12.72.29,25.46-.32,38.14-1.21,9.75-.68,21.46-1.06,24.39-12.34,2-7.55,1.62-16,1-23.72-.44-5.39-8.5-5.57-8.53,0-.07,11.58-.39,26.7,12.38,31.52,8.63,3.26,19.23,2,28.25,1.54,7.61-.37,16.69-.74,23.71-4.05s7.62-10.87,7.2-17.86c-.4-6.53-1.43-13.53-9.08-13.94-23.6-1.27-47.34-1.19-71-1.26-26.5-.07-53,.21-79.5.68-5.48.09-5.5,8.62,0,8.53Z" transform="translate(-93.71 -379.12)"/><path class="cls-8" d="M1268.27,476.7l24.92.52c5.49.12,5.49-8.41,0-8.53l-24.92-.52c-5.49-.11-5.49,8.42,0,8.53Z" transform="translate(-93.71 -379.12)"/><path class="cls-8" d="M1268.47,464.54l24.92.52c5.49.11,5.49-8.42,0-8.54l-24.92-.52c-5.49-.11-5.49,8.42,0,8.54Z" transform="translate(-93.71 -379.12)"/><path class="cls-8" d="M1449.44,479.75l24.92.52c5.49.12,5.49-8.42,0-8.53l-24.92-.52c-5.49-.12-5.49,8.42,0,8.53Z" transform="translate(-93.71 -379.12)"/><path class="cls-8" d="M1449.64,467.58l24.92.52c5.49.12,5.49-8.41,0-8.53l-24.92-.52c-5.49-.11-5.49,8.42,0,8.53Z" transform="translate(-93.71 -379.12)"/><path class="cls-6" d="M1206.28,420.84l65.24-10.36,65.24-8.12,51.3,11.9,111.67,6.58v33.6c0,23-68.45,41.72-152.88,41.72S1194,477.48,1194,454.44v-33.6Z" transform="translate(-93.71 -379.12)"/><ellipse class="cls-7" cx="1253.13" cy="41.72" rx="152.89" ry="41.72"/><path class="cls-8" d="M1346.85,387.6c-77.58,0-140.95,15.2-145.09,34.33a9.55,9.55,0,0,1-.22-2c0-20.06,65.06-36.32,145.31-36.32s145.3,16.26,145.3,36.32a9.55,9.55,0,0,1-.22,2C1487.79,402.8,1424.42,387.6,1346.85,387.6Z" transform="translate(-93.71 -379.12)"/><path class="cls-9" d="M1346.85,454.16c77.57,0,140.94-15.2,145.08-34.33a9.55,9.55,0,0,1,.22,2c0,20.06-65.06,36.32-145.3,36.32s-145.31-16.26-145.31-36.32a9.55,9.55,0,0,1,.22-2C1205.9,439,1269.27,454.16,1346.85,454.16Z" transform="translate(-93.71 -379.12)"/><path class="cls-10" d="M1211.35,567.2l-20.9,62.66-18.7,63,3.33,52.55-11.79,111.24,33.14,5.51c22.73,3.77,52.37-60.69,66.2-144s6.62-153.88-16.11-157.65L1213.37,555Z" transform="translate(-93.71 -379.12)"/><ellipse class="cls-7" cx="1188.33" cy="705.86" rx="152.89" ry="41.72" transform="translate(203.64 1383.4) rotate(-80.57)"/><path class="cls-8" d="M1155.54,700.42c12.71-76.53,38.08-136.56,57.63-137.5a8.81,8.81,0,0,0-1.93-.54c-19.79-3.29-46.49,58.22-59.63,137.39s-7.76,146,12,149.29a9.52,9.52,0,0,0,2,.11C1147.44,842,1142.83,777,1155.54,700.42Z" transform="translate(-93.71 -379.12)"/><path class="cls-9" d="M1221.19,711.32c-12.7,76.53-38.07,136.55-57.62,137.5a9.13,9.13,0,0,0,1.92.54c19.79,3.29,46.49-58.22,59.63-137.39s7.76-146-12-149.29a9.48,9.48,0,0,0-2-.11C1229.29,569.79,1233.9,634.79,1221.19,711.32Z" transform="translate(-93.71 -379.12)"/><path class="cls-11" d="M1411.61,842c22.47,10.29,55.83,14,98-3.5,13-5.38,43.37-24.43,43.37-44.22,0-13.61-13-15.56-13-15.56s41.53-38.93,20.31-64.15c-10.67-12.67-24.52-6-24.52-6s59.85-103.63,4.59-133c-63.6-33.76-112.7,134.32-112.7,134.32s9.52-51.06-12.59-53.61S1324.92,750.31,1411.61,842Z" transform="translate(-93.71 -379.12)"/><path class="cls-9" d="M1452.33,840.58c-5.56-68.44,12.58-127.42,28.78-164.85,17.56-40.56,30.3-56.23,30.49-56.47l3,.66c-.19.24-13.49,16.79-30.9,57-16,37.11-34,95.58-28.52,163.39Z" transform="translate(-93.71 -379.12)"/><path class="cls-9" d="M1453.34,804.51l-.78-2.77c33.43-9.51,88.84-69.27,89.39-69.88l2.12,2C1541.78,736.3,1487.55,794.78,1453.34,804.51Z" transform="translate(-93.71 -379.12)"/><path class="cls-9" d="M1456,830.53c-1,0-2,.06-3,.06v-2.88c28,0,56.88-14.77,57.17-14.92l1.32,2.56C1511.26,815.49,1483.79,829.54,1456,830.53Z" transform="translate(-93.71 -379.12)"/><path class="cls-9" d="M1452.33,817.57C1431,814,1415.39,804,1405.88,788c-12.34-20.84-12-48.39-9.5-67.82a206.17,206.17,0,0,1,8.37-37.46l2.71.95c-.22.64-22,64.25.9,102.87,9.05,15.29,24,24.78,44.45,28.21Z" transform="translate(-93.71 -379.12)"/><path class="cls-12" d="M1456.38,848.31c-13.86,3.34-28.31.52-50.05-25.43-7.16-8.54-19.3-31.35-3.37-44.45s19.85,15.38,19.85,15.38,7-113.81,53.24-100.17c48.94,14.43-8.26,102.68-8.26,102.68s11.8-9.09,18.68-1.8C1494.54,803.09,1491.87,839.77,1456.38,848.31Z" transform="translate(-93.71 -379.12)"/><path class="cls-9" d="M1432.35,834.41c0-.53,1.71-53.5,34.81-117.78l3.06,1.57c-32.74,63.6-34.41,115.78-34.43,116.3Z" transform="translate(-93.71 -379.12)"/><path class="cls-9" d="M1425.23,821.28c-13.71-9.81-15.44-18.84-15.51-19.28l3.39-.6c0,.11,2.38,11.49,22.51,22.25l-1.62,3A78.28,78.28,0,0,1,1425.23,821.28Z" transform="translate(-93.71 -379.12)"/><path class="cls-9" d="M1434.13,830.27l.68-3.38c26.54,5.38,39.86-20.43,40-20.69l3.07,1.55C1477.73,808,1463.22,836.16,1434.13,830.27Z" transform="translate(-93.71 -379.12)"/><path class="cls-13" d="M1363,838.57c10.27-10.8,18.5-23.32,34.38-23.89s48.06,4.5,53.21,11,24.79,30,3.39,38.54S1334.82,868.24,1363,838.57Z" transform="translate(-93.71 -379.12)"/><path class="cls-14" d="M1433.34,840.57c-16.65,3.48-24.19,6.58-39.28,7.71s-23.68-14.56-23.6-17.89c-2.45,2.69-4.88,5.49-7.44,8.18-28.2,29.67,69.59,34.18,91,25.64,12.53-5,11-15.14,6.53-24h0C1455.56,838,1450,837.1,1433.34,840.57Z" transform="translate(-93.71 -379.12)"/><path class="cls-11" d="M903.22,834.47S871.77,835,875.1,823c3.46-12.43,26.54-5.1,26.54-5.1s-60.7-20.67-52.27-38.65C856,765.08,885,774,885,774s-109.9-82.83-53.87-136.3c59.61-56.89,113.79,77.08,101.63,107.2,0,0,30.83-56.7,56.55-41,19.31,11.78-13.28,81.51-49.53,114.1Z" transform="translate(-93.71 -379.12)"/><path class="cls-9" d="M917.82,826.6l-1.31-.12c3.46-35.42-14.53-78-30.22-107.39a460.69,460.69,0,0,0-35.31-56l1-.79a462.86,462.86,0,0,1,35.41,56.2c10,18.82,17.75,36.73,22.93,53.22C916.85,792.32,919.36,810.8,917.82,826.6Z" transform="translate(-93.71 -379.12)"/><path class="cls-9" d="M915.78,827.07l.07-.66c3.44-35.25-14.49-77.64-30.15-107a464,464,0,0,0-35.24-56l-.41-.52,2.11-1.6.4.52A465.75,465.75,0,0,1,888,718.15c10.06,18.86,17.79,36.8,23,53.33,6.51,20.73,9,39.3,7.48,55.19l-.07.66Zm1.38-19.58a167.2,167.2,0,0,0-7.43-35.61,281.77,281.77,0,0,0-13.39-34.11C906.2,759.09,915.11,784,917.16,807.49Z" transform="translate(-93.71 -379.12)"/><path class="cls-9" d="M903.2,755c-24.66-12.93-42.81-44.17-43-44.48l1.14-.66c.18.31,18.14,31.23,42.46,44Z" transform="translate(-93.71 -379.12)"/><path class="cls-9" d="M903.48,755.87l1.23-2.34-.59-.31c-23.94-12.55-42-43.41-42.19-43.72l-.33-.57-2.3,1.31.33.58c.19.32,18.5,31.76,43.26,44.74Z" transform="translate(-93.71 -379.12)"/><path class="cls-9" d="M915.76,793.54l-1.16-.63c9.33-17.12,4.53-41.06-1.14-58.14a199.39,199.39,0,0,0-14.75-33.39l1.14-.66a201.7,201.7,0,0,1,14.86,33.64,121.11,121.11,0,0,1,6.35,30.27C921.77,776.05,920,785.78,915.76,793.54Z" transform="translate(-93.71 -379.12)"/><path class="cls-9" d="M913.7,793.18l.32-.59c9.21-16.9,4.44-40.66-1.19-57.61a201.26,201.26,0,0,0-14.69-33.26l-.34-.57,2.29-1.34.33.58a201.26,201.26,0,0,1,14.92,33.76,122,122,0,0,1,6.38,30.44c.72,11.55-1.09,21.4-5.38,29.27l-.32.58ZM919.28,782a63.2,63.2,0,0,0,1.12-17.29,104.71,104.71,0,0,0-2.51-16.61C920.39,759,921.61,771.11,919.28,782Z" transform="translate(-93.71 -379.12)"/><path class="cls-9" d="M917.93,818.67l-.68-1.12c15.16-9.18,24.16-25.31,29-37.22a117.81,117.81,0,0,0,7-24l1.3.2a120.16,120.16,0,0,1-7.11,24.25C942.56,792.91,933.41,809.31,917.93,818.67Z" transform="translate(-93.71 -379.12)"/><path class="cls-9" d="M917.7,819.59l.57-.35c15.64-9.46,24.87-26,29.86-38.19a121,121,0,0,0,7.16-24.4l.1-.66-2.61-.4-.1.66a119.18,119.18,0,0,1-7,23.83c-4.84,11.82-13.77,27.82-28.78,36.9l-.56.34Z" transform="translate(-93.71 -379.12)"/><path class="cls-14" d="M947,797.06c22.7,13.66,19.33,38.26-11.11,45.22s-51-14-44-26.22S919.53,780.52,947,797.06Z" transform="translate(-93.71 -379.12)"/><path class="cls-15" d="M894.73,811.64c-.47,7.17.89,13.81,7.34,14.45,14.48,1.44,10.73-4.7,27.68-1.85s30.36-7.38,31.21-11c3.52,11.87-4.73,24.38-25.06,29-30.43,7-51-14-44-26.22C892.68,814.7,893.63,813.21,894.73,811.64Z" transform="translate(-93.71 -379.12)"/><path class="cls-9" d="M694.07,655.24l-.63-.42c7.35-11.15,36.64-40.37,39.26-43-9-20.29-2.43-47.49-2.36-47.76l.08-.35.36.07c10.87,2.25,15.2-4.43,15.38-4.71l.64.4c0,.08-4.67,7.26-15.81,5.12-.73,3.26-5.93,28.33,2.5,47.16l.11.24-.18.19C733.1,612.51,701.69,643.68,694.07,655.24Z" transform="translate(-93.71 -379.12)"/><path class="cls-9" d="M773.32,539.43c.06-.87,1.49-21.42,6.36-28.25a14.85,14.85,0,0,1,13-6l-.09.75a14.09,14.09,0,0,0-12.33,5.71c-4.75,6.65-6.21,27.65-6.22,27.86Z" transform="translate(-93.71 -379.12)"/></svg>