<svg width="32" height="30" viewBox="0 0 32 30" fill="none" xmlns="http://www.w3.org/2000/svg">
<path d="M9.29727 17.2732C10.1965 17.2732 11.0658 17.2151 11.8883 17.107V8.09115C11.0659 7.98311 10.1965 7.92502 9.29727 7.92502C4.16254 7.92502 0 9.81291 0 12.1418V13.0563C0 15.3852 4.16254 17.2732 9.29727 17.2732Z" fill="#AAADFF"/>
<path d="M9.29727 21.9809C10.1965 21.9809 11.0658 21.9229 11.8883 21.8149V19.1722C11.0656 19.2802 10.1968 19.3391 9.29727 19.3391C4.81521 19.3391 1.07426 17.9005 0.195537 15.986C0.0675696 16.2648 0 16.5536 0 16.8496V17.7641C0 20.0931 4.16254 21.9809 9.29727 21.9809Z" fill="#AAADFF"/>
<path d="M11.8883 24.0855V23.8801C11.0656 23.9881 10.1968 24.047 9.29727 24.047C4.81521 24.047 1.07426 22.6084 0.195537 20.6938C0.0675696 20.9727 0 21.2614 0 21.5574V22.4719C0 24.8009 4.16254 26.6888 9.29727 26.6888C10.3241 26.6888 11.3118 26.6131 12.2353 26.4737C12.0064 26.0054 11.8883 25.5115 11.8883 24.9999V24.0855Z" fill="#AAADFF"/>
<path d="M22.7025 0.783173C17.5678 0.783173 13.4053 2.67106 13.4053 4.99999V5.91449C13.4053 8.24341 17.5678 10.1313 22.7025 10.1313C27.8372 10.1313 31.9998 8.24341 31.9998 5.91449V4.99999C31.9998 2.67106 27.8372 0.783173 22.7025 0.783173Z" fill="#AAADFF"/>
<path d="M22.7025 12.1973C18.2205 12.1973 14.4795 10.7588 13.6008 8.84412C13.4728 9.12292 13.4053 9.41169 13.4053 9.70778V10.6223C13.4053 12.9512 17.5678 14.8391 22.7025 14.8391C27.8372 14.8391 31.9998 12.9512 31.9998 10.6223V9.70778C31.9998 9.41169 31.9322 9.12292 31.8043 8.84412C30.9256 10.7588 27.1846 12.1973 22.7025 12.1973Z" fill="#AAADFF"/>
<path d="M22.7025 16.9052C18.2205 16.9052 14.4795 15.4666 13.6008 13.552C13.4728 13.8308 13.4053 14.1196 13.4053 14.4157V15.3302C13.4053 17.6592 17.5678 19.5471 22.7025 19.5471C27.8372 19.5471 31.9998 17.6592 31.9998 15.3302V14.4157C31.9998 14.1196 31.9322 13.8308 31.8043 13.552C30.9256 15.4667 27.1846 16.9052 22.7025 16.9052Z" fill="#AAADFF"/>
<path d="M22.7025 21.8672C18.2205 21.8672 14.4795 20.4286 13.6008 18.514C13.4728 18.7929 13.4053 19.0816 13.4053 19.3776V20.2922C13.4053 22.6211 17.5678 24.509 22.7025 24.509C27.8372 24.509 31.9998 22.6211 31.9998 20.2922V19.3776C31.9998 19.0816 31.9322 18.7927 31.8043 18.514C30.9256 20.4285 27.1846 21.8672 22.7025 21.8672Z" fill="#AAADFF"/>
<path d="M22.7025 26.575C18.2205 26.575 14.4795 25.1365 13.6008 23.2219C13.4728 23.5008 13.4053 23.7896 13.4053 24.0855V25C13.4053 27.3289 17.5678 29.2168 22.7025 29.2168C27.8372 29.2168 31.9998 27.3289 31.9998 25V24.0854C31.9998 23.7894 31.9322 23.5006 31.8043 23.2218C30.9256 25.1364 27.1846 26.575 22.7025 26.575Z" fill="#AAADFF"/>
</svg>
