<svg width="35" height="23" viewBox="0 0 35 23" fill="none" xmlns="http://www.w3.org/2000/svg">
<path d="M31.7593 0.203735H3.2407C1.45096 0.203735 0 1.65462 0 3.44451V6.28233H35V3.44451C35 1.65462 33.5491 0.203735 31.7593 0.203735Z" fill="#0A13DF"/>
<path d="M0 19.5556C0 21.3453 1.45096 22.7963 3.2407 22.7963H31.7593C33.549 22.7963 35 21.3453 35 19.5556V9.72427H0V19.5556ZM24.0024 13.1056C24.6641 13.1056 25.2738 13.3272 25.7622 13.6998C26.2507 13.3273 26.8602 13.1056 27.5221 13.1056C29.1264 13.1056 30.4271 14.4061 30.4271 16.0105C30.4271 17.615 29.1264 18.9156 27.5221 18.9156C26.8604 18.9156 26.2507 18.694 25.7622 18.3213C25.2738 18.6938 24.6642 18.9156 24.0024 18.9156C22.398 18.9156 21.0974 17.6149 21.0974 16.0105C21.0973 14.4061 22.398 13.1056 24.0024 13.1056ZM4.71062 17.0755C4.71062 16.8338 4.90659 16.6378 5.14815 16.6378H11.8932C12.1348 16.6378 12.3307 16.8338 12.3307 17.0755V18.4062C12.3307 18.6478 12.1348 18.8437 11.8932 18.8437H5.14815C4.90659 18.8437 4.71062 18.6478 4.71062 18.4062V17.0755Z" fill="#0A13DF"/>
</svg>
