<svg id="Ñëîé_1" data-name="Ñëîé 1" xmlns="http://www.w3.org/2000/svg" xmlns:xlink="http://www.w3.org/1999/xlink" viewBox="0 0 1327.04 636.16"><defs><style>.cls-1{fill:#fff;}.cls-2{fill:#105999;}.cls-3{fill:#8dbbe0;}.cls-4{fill:#ffe57f;}.cls-5{fill:#f5ce31;}.cls-6{opacity:0.33;}.cls-7{opacity:0.24;}.cls-8{opacity:0.32;}</style><image id="image" width="1500" height="1600" xlink:href="stock-vector-biological-science-logo-abstract-blue-shape-connected-dots-1080166871.png"/></defs><path class="cls-1" d="M340.07,1506.56H1659.89v217.76H340.07Z" transform="translate(-336.48 -1088.16)"/><path class="cls-2" d="M340.08,1503a3.6,3.6,0,1,0,0,7.19H1659.92a3.6,3.6,0,1,0,0-7.19Z" transform="translate(-336.48 -1088.16)"/><path class="cls-2" d="M1479.54,1448.21l6.49,2.63-66.22,163.27-6.48-2.63Z" transform="translate(-336.48 -1088.16)"/><path class="cls-3" d="M1407.61,1496c-12-23.38-1-53-1-53s30.46,8.31,42.48,31.69,1,53,1,53S1419.62,1519.36,1407.61,1496Z" transform="translate(-336.48 -1088.16)"/><path class="cls-3" d="M1490.05,1567.8c25.18-7.56,38.89-36,38.89-36s-27.11-16.19-52.29-8.63-38.89,36-38.89,36S1464.87,1575.35,1490.05,1567.8Z" transform="translate(-336.48 -1088.16)"/><path class="cls-4" d="M1452.43,1417.44a42,42,0,1,1,22.2,55.06A42,42,0,0,1,1452.43,1417.44Z" transform="translate(-336.48 -1088.16)"/><path class="cls-4" d="M1452.43,1417.44a42,42,0,1,1,22.2,55.06A42,42,0,0,1,1452.43,1417.44Z" transform="translate(-336.48 -1088.16)"/><path class="cls-5" d="M1458.89,1420.18a35,35,0,1,1,18.49,45.86A35,35,0,0,1,1458.89,1420.18Z" transform="translate(-336.48 -1088.16)"/><path class="cls-2" d="M1360.39,1401.07l7-.17,4.3,176.13-7,.17Z" transform="translate(-336.48 -1088.16)"/><path class="cls-3" d="M1331.77,1478.05c-13.11-10.74-14.22-31.06-14.22-31.06s20.15-2.92,33.26,7.82,14.22,31.07,14.22,31.07S1344.88,1488.79,1331.77,1478.05Z" transform="translate(-336.48 -1088.16)"/><path class="cls-3" d="M1386.92,1514.56c8.06-6.82,8.56-19.49,8.56-19.49s-12.57-1.63-20.64,5.19-8.57,19.48-8.57,19.48S1378.85,1521.37,1386.92,1514.56Z" transform="translate(-336.48 -1088.16)"/><path class="cls-4" d="M1323.27,1383.64a42,42,0,1,1,42.29,41.67A42,42,0,0,1,1323.27,1383.64Z" transform="translate(-336.48 -1088.16)"/><path class="cls-4" d="M1323.27,1383.64a42,42,0,1,1,42.29,41.67A42,42,0,0,1,1323.27,1383.64Z" transform="translate(-336.48 -1088.16)"/><path class="cls-5" d="M1330.29,1383.59a35,35,0,1,1,35.22,34.7A35,35,0,0,1,1330.29,1383.59Z" transform="translate(-336.48 -1088.16)"/><use class="cls-6" transform="translate(984.67 250.7) scale(0.06)" xlink:href="#image"/><path class="cls-2" d="M1240.57,1467.88l6.34-3,74.39,159.71-6.35,3Z" transform="translate(-336.48 -1088.16)"/><path class="cls-3" d="M1226.52,1553.07c-25.3-7.13-39.49-35.34-39.49-35.34s26.83-16.64,52.13-9.5,39.49,35.34,39.49,35.34S1251.82,1560.21,1226.52,1553.07Z" transform="translate(-336.48 -1088.16)"/><path class="cls-3" d="M1335.26,1541.67c11.62-23.58.15-53,.15-53s-30.32,8.81-42,32.38-.15,53-.15,53S1323.63,1565.25,1335.26,1541.67Z" transform="translate(-336.48 -1088.16)"/><path class="cls-4" d="M1199.57,1466.75A42,42,0,1,1,1255,1488,42,42,0,0,1,1199.57,1466.75Z" transform="translate(-336.48 -1088.16)"/><path class="cls-4" d="M1199.57,1466.75A42,42,0,1,1,1255,1488,42,42,0,0,1,1199.57,1466.75Z" transform="translate(-336.48 -1088.16)"/><path class="cls-5" d="M1206,1463.89a35,35,0,1,1,46.15,17.72A34.94,34.94,0,0,1,1206,1463.89Z" transform="translate(-336.48 -1088.16)"/><use class="cls-7" transform="matrix(0.07, -0.02, 0.02, 0.07, 836.96, 326.11)" xlink:href="#image"/><path class="cls-3" d="M1263.75,1571.68h203.77l-40.76,111.81H1304.5Z" transform="translate(-336.48 -1088.16)"/><path class="cls-2" d="M1286.9,1679.88a3.6,3.6,0,0,0,0,7.19h156.58a3.6,3.6,0,1,0,0-7.19Z" transform="translate(-336.48 -1088.16)"/><path class="cls-2" d="M677.24,1283.47a3.49,3.49,0,0,0-3.39,3.59L684,1622.15a3.49,3.49,0,1,0,7-.2l-10.1-335.09A3.52,3.52,0,0,0,677.24,1283.47Z" transform="translate(-336.48 -1088.16)"/><path class="cls-3" d="M604.61,1446.16c-28.41-29.5-25.3-78.61-25.3-78.61s49.18-1.26,77.6,28.24,25.31,78.61,25.31,78.61S633,1475.66,604.61,1446.16Z" transform="translate(-336.48 -1088.16)"/><path class="cls-3" d="M734.83,1567.05c21.94-14.48,26.89-45.67,26.89-45.67s-30.62-7.7-52.56,6.78-26.89,45.67-26.89,45.67S712.89,1581.53,734.83,1567.05Z" transform="translate(-336.48 -1088.16)"/><path class="cls-4" d="M551.52,1214a118.95,118.95,0,1,1,118.94,119A118.94,118.94,0,0,1,551.52,1214Z" transform="translate(-336.48 -1088.16)"/><path class="cls-4" d="M551.52,1214a118.95,118.95,0,1,1,118.94,119A118.94,118.94,0,0,1,551.52,1214Z" transform="translate(-336.48 -1088.16)"/><path class="cls-5" d="M571.41,1214a99.05,99.05,0,1,1,99.05,99A99.06,99.06,0,0,1,571.41,1214Z" transform="translate(-336.48 -1088.16)"/><use class="cls-8" transform="translate(203.02) scale(0.17)" xlink:href="#image"/><path class="cls-3" d="M601.78,1583.83H769.15l-38,99.66H642.53Z" transform="translate(-336.48 -1088.16)"/><path class="cls-2" d="M607.21,1679.88a3.6,3.6,0,1,0,0,7.19h156.5a3.6,3.6,0,1,0,0-7.19Z" transform="translate(-336.48 -1088.16)"/><use class="cls-8" transform="translate(1111.13 305.04) scale(0.06)" xlink:href="#image"/></svg>