<svg width="935" height="183" viewBox="0 0 935 183" fill="none" xmlns="http://www.w3.org/2000/svg">
<g clip-path="url(#clip0_126_51)">
<g style="mix-blend-mode:multiply" opacity="0.3">
<g style="mix-blend-mode:multiply" opacity="0.3">
<path d="M143.628 68.6298C132.028 52.9604 109.918 49.6645 94.2436 61.2682C78.5697 72.8719 75.2674 94.9811 86.8678 110.651C98.4681 126.32 120.578 129.616 136.252 118.012C151.926 106.408 155.228 84.2992 143.628 68.6298Z" fill="white"/>
</g>
<g style="mix-blend-mode:multiply" opacity="0.3">
<path d="M142.837 68.5116C131.237 52.8422 109.127 49.5463 93.4526 61.15C77.7787 72.7537 74.4764 94.8629 86.0768 110.532C97.6771 126.202 119.787 129.498 135.461 117.894C151.135 106.29 154.437 84.181 142.837 68.5116Z" fill="#F3F3F4"/>
</g>
<g style="mix-blend-mode:multiply" opacity="0.3">
<path d="M142.052 68.4022C130.452 52.7328 108.341 49.4369 92.6674 61.0406C76.9935 72.6443 73.6912 94.7536 85.2916 110.423C96.8919 126.092 119.002 129.388 134.676 117.785C150.35 106.181 153.652 84.0716 142.052 68.4022Z" fill="#E8E6E8"/>
</g>
<g style="mix-blend-mode:multiply" opacity="0.3">
<path d="M141.261 68.2841C129.661 52.6147 107.55 49.3188 91.8764 60.9225C76.2025 72.5262 72.9002 94.6354 84.5006 110.305C96.1009 125.974 118.211 129.27 133.885 117.666C149.559 106.063 152.861 83.9535 141.261 68.2841Z" fill="#DCDBDD"/>
</g>
<g style="mix-blend-mode:multiply" opacity="0.3">
<path d="M130.272 58.9072C113.557 48.8711 91.8661 54.2869 81.8245 71.0038C71.783 87.7206 77.1933 109.408 93.9088 119.444C110.624 129.48 132.315 124.065 142.357 107.348C152.398 90.6308 146.988 68.9433 130.272 58.9072Z" fill="#D1CFD2"/>
</g>
<g style="mix-blend-mode:multiply" opacity="0.3">
<path d="M129.487 58.793C112.772 48.7569 91.0809 54.1727 81.0394 70.8895C70.9978 87.6064 76.4081 109.294 93.1236 119.33C109.839 129.366 131.53 123.95 141.571 107.233C151.613 90.5166 146.203 68.8291 129.487 58.793Z" fill="#C6C4C7"/>
</g>
<g style="mix-blend-mode:multiply" opacity="0.3">
<path d="M128.693 58.6728C111.978 48.6368 90.287 54.0526 80.2454 70.7694C70.2039 87.4863 75.6142 109.174 92.3297 119.21C109.045 129.246 130.736 123.83 140.778 107.113C150.819 90.3965 145.409 68.7089 128.693 58.6728Z" fill="#BCB9BD"/>
</g>
<g style="mix-blend-mode:multiply" opacity="0.3">
<path d="M127.913 58.5557C111.198 48.5196 89.5067 53.9354 79.4652 70.6522C69.4236 87.3691 74.8339 109.057 91.5494 119.093C108.265 129.129 129.956 123.713 139.997 106.996C150.039 90.2793 144.629 68.5918 127.913 58.5557Z" fill="#B1AFB3"/>
</g>
<g style="mix-blend-mode:multiply" opacity="0.3">
<path d="M127.124 58.4277C110.409 48.3916 88.7177 53.8074 78.6761 70.5243C68.6346 87.2411 74.0448 108.929 90.7603 118.965C107.476 129.001 129.167 123.585 139.208 106.868C149.25 90.1513 143.839 68.4638 127.124 58.4277Z" fill="#A7A5A9"/>
</g>
<g style="mix-blend-mode:multiply" opacity="0.3">
<path d="M126.336 58.3164C109.62 48.2803 87.9296 53.6961 77.888 70.413C67.8465 87.1298 73.2567 108.817 89.9722 118.853C106.688 128.89 128.379 123.474 138.42 106.757C148.462 90.04 143.051 68.3525 126.336 58.3164Z" fill="#9D9B9F"/>
</g>
<g style="mix-blend-mode:multiply" opacity="0.3">
<path d="M125.541 58.1972C108.826 48.1611 87.1346 53.577 77.0931 70.2938C67.0515 87.0107 72.4618 108.698 89.1773 118.734C105.893 128.77 127.584 123.355 137.625 106.638C147.667 89.9209 142.256 68.2333 125.541 58.1972Z" fill="#949196"/>
</g>
<g style="mix-blend-mode:multiply" opacity="0.3">
<path d="M124.747 58.0781C108.032 48.042 86.3407 53.4578 76.2991 70.1747C66.2576 86.8915 71.6679 108.579 88.3834 118.615C105.099 128.651 126.79 123.235 136.831 106.519C146.873 89.8017 141.463 68.1142 124.747 58.0781Z" fill="#8B888D"/>
</g>
<g style="mix-blend-mode:multiply" opacity="0.3">
<path d="M123.968 57.9716C107.252 47.9355 85.5614 53.3514 75.5198 70.0682C65.4783 86.7851 70.8886 108.473 87.604 118.509C104.32 128.545 126.01 123.129 136.052 106.412C146.094 89.6953 140.683 68.0077 123.968 57.9716Z" fill="#817F84"/>
</g>
<g style="mix-blend-mode:multiply" opacity="0.3">
<path d="M123.173 57.8525C106.457 47.8164 84.7665 53.2323 74.7249 69.9491C64.6834 86.666 70.0937 108.353 86.8091 118.39C103.525 128.426 125.215 123.01 135.257 106.293C145.299 89.5762 139.888 67.8886 123.173 57.8525Z" fill="#79767B"/>
</g>
<g style="mix-blend-mode:multiply" opacity="0.3">
<path d="M122.384 57.7246C105.668 47.6885 83.9774 53.1043 73.9359 69.8212C63.8943 86.538 69.3046 108.226 86.0201 118.262C102.736 128.298 124.426 122.882 134.468 106.165C144.51 89.4482 139.099 67.7607 122.384 57.7246Z" fill="#706D73"/>
</g>
<g style="mix-blend-mode:multiply" opacity="0.3">
<path d="M121.596 57.6133C104.88 47.5772 83.1893 52.993 73.1478 69.7098C63.1062 86.4267 68.5165 108.114 85.232 118.15C101.947 128.186 123.638 122.771 133.68 106.054C143.721 89.3369 138.311 67.6493 121.596 57.6133Z" fill="#68656B"/>
</g>
<g style="mix-blend-mode:multiply" opacity="0.3">
<path d="M120.81 57.4873C104.094 47.4512 82.4032 52.867 72.3617 69.5839C62.3201 86.3007 67.7304 107.988 84.4459 118.024C101.161 128.06 122.852 122.645 132.894 105.928C142.935 89.2109 137.525 67.5234 120.81 57.4873Z" fill="#605D63"/>
</g>
<g style="mix-blend-mode:multiply" opacity="0.3">
<path d="M120.021 57.376C103.306 47.3399 81.6151 52.7557 71.5736 69.4725C61.532 86.1894 66.9423 107.877 83.6578 117.913C100.373 127.949 122.064 122.533 132.106 105.816C142.147 89.0996 136.737 67.412 120.021 57.376Z" fill="#58565B"/>
</g>
<g style="mix-blend-mode:multiply" opacity="0.3">
<path d="M119.236 57.2617C102.521 47.2256 80.8299 52.6414 70.7884 69.3583C60.7468 86.0751 66.1571 107.763 82.8726 117.799C99.5881 127.835 121.279 122.419 131.321 105.702C141.362 88.9853 135.952 67.2978 119.236 57.2617Z" fill="#514F54"/>
</g>
<g style="mix-blend-mode:multiply" opacity="0.3">
<path d="M118.441 57.1425C101.726 47.1064 80.035 52.5223 69.9935 69.2391C59.9519 85.956 65.3622 107.644 82.0777 117.68C98.7932 127.716 120.484 122.3 130.526 105.583C140.567 88.8662 135.157 67.1786 118.441 57.1425Z" fill="#49484D"/>
</g>
<g style="mix-blend-mode:multiply" opacity="0.3">
<path d="M117.653 57.0312C100.938 46.9951 79.2469 52.411 69.2054 69.1278C59.1638 85.8447 64.5741 107.532 81.2896 117.568C98.0051 127.604 119.696 122.189 129.738 105.472C139.779 88.7549 134.369 67.0673 117.653 57.0312Z" fill="#424146"/>
</g>
<g style="mix-blend-mode:multiply" opacity="0.3">
<path d="M116.864 56.9033C100.149 46.8672 78.4579 52.2831 68.4163 68.9999C58.3748 85.7167 63.7851 107.404 80.5006 117.44C97.216 127.476 118.907 122.061 128.948 105.344C138.99 88.6269 133.58 66.9394 116.864 56.9033Z" fill="#3B3A3F"/>
</g>
<g style="mix-blend-mode:multiply" opacity="0.3">
<path d="M116.076 56.792C99.3607 46.7559 77.6698 52.1717 67.6282 68.8886C57.5867 85.6054 62.997 107.293 79.7125 117.329C96.4279 127.365 118.119 121.949 128.16 105.232C138.202 88.5156 132.792 66.8281 116.076 56.792Z" fill="#343339"/>
</g>
<g style="mix-blend-mode:multiply" opacity="0.3">
<path d="M115.282 56.6728C98.5667 46.6368 76.8759 52.0526 66.8343 68.7694C56.7927 85.4863 62.203 107.174 78.9185 117.21C95.634 127.246 117.325 121.83 127.366 105.113C137.408 88.3965 131.998 66.7089 115.282 56.6728Z" fill="#2E2D33"/>
</g>
<g style="mix-blend-mode:multiply" opacity="0.3">
<path d="M114.504 56.5527C97.7884 46.5166 76.0975 51.9324 66.056 68.6492C56.0144 85.3661 61.4247 107.054 78.1402 117.09C94.8557 127.126 116.547 121.71 126.588 104.993C136.63 88.2763 131.219 66.5888 114.504 56.5527Z" fill="#28272D"/>
</g>
<g style="mix-blend-mode:multiply" opacity="0.3">
<path d="M113.716 56.4414C97.0003 46.4053 75.3094 51.8211 65.2679 68.5379C55.2263 85.2548 60.6366 106.942 77.3521 116.978C94.0676 127.015 115.758 121.599 125.8 104.882C135.842 88.165 130.431 66.4775 113.716 56.4414Z" fill="#222227"/>
</g>
<g style="mix-blend-mode:multiply" opacity="0.3">
<path d="M112.922 56.3213C96.2064 46.2852 74.5155 51.701 64.4739 68.4178C54.4324 85.1347 59.8427 106.822 76.5581 116.858C93.2736 126.894 114.965 121.479 125.006 104.762C135.048 88.0449 129.637 66.3573 112.922 56.3213Z" fill="#1C1C21"/>
</g>
<g style="mix-blend-mode:multiply" opacity="0.3">
<path d="M112.133 56.1933C95.4173 46.1573 73.7264 51.5731 63.6849 68.2899C53.6433 85.0068 59.0536 106.694 75.7691 116.73C92.4846 126.766 114.175 121.351 124.217 104.634C134.259 87.917 128.848 66.2294 112.133 56.1933Z" fill="#16171B"/>
</g>
<g style="mix-blend-mode:multiply" opacity="0.3">
<path d="M111.345 56.082C94.6292 46.0459 72.9383 51.4617 62.8968 68.1786C52.8552 84.8954 58.2655 106.583 74.981 116.619C91.6965 126.655 113.387 121.239 123.429 104.522C133.47 87.8056 128.06 66.1181 111.345 56.082Z" fill="#101115"/>
</g>
<g style="mix-blend-mode:multiply" opacity="0.3">
<path d="M110.55 55.9629C93.8343 45.9268 72.1434 51.3426 62.1019 68.0594C52.0603 84.7763 57.4706 106.464 74.1861 116.5C90.9016 126.536 112.592 121.12 122.634 104.403C132.676 87.6865 127.265 65.999 110.55 55.9629Z" fill="#0A0B0E"/>
</g>
<g style="mix-blend-mode:multiply" opacity="0.3">
<path d="M109.77 55.8564C93.055 45.8204 71.3642 51.2362 61.3226 67.953C51.281 84.6699 56.6913 106.357 73.4068 116.393C90.1223 126.43 111.813 121.014 121.855 104.297C131.896 87.5801 126.486 65.8925 109.77 55.8564Z" fill="#050507"/>
</g>
<g style="mix-blend-mode:multiply" opacity="0.3">
<path d="M108.977 55.7373C92.261 45.7012 70.5702 51.117 60.5286 67.8339C50.4871 84.5507 55.8974 106.238 72.6129 116.274C89.3283 126.31 111.019 120.895 121.061 104.178C131.102 87.4609 125.692 65.7734 108.977 55.7373Z" fill="#010101"/>
</g>
</g>
<path d="M125.984 133.542C125.026 134.251 124.076 134.954 123.074 135.57L126.217 140.392C127.296 139.694 128.361 138.943 129.408 138.167C138.242 131.669 145.277 123.03 149.853 113.065C154.428 103.1 156.393 92.1348 155.563 81.2021L149.818 81.6236C150.573 91.587 148.781 101.579 144.612 110.662C140.443 119.744 134.032 127.617 125.984 133.542Z" fill="url(#paint0_linear_126_51)"/>
<path d="M55.599 38.4682C64.1134 32.1613 74.1629 28.2524 84.7003 27.1489C95.2378 26.0454 105.878 27.7876 115.511 32.1939L117.912 26.9491C107.351 22.1174 95.6866 20.2049 84.1338 21.4109C72.5809 22.6169 61.5617 26.8972 52.2231 33.8063L55.599 38.4682Z" fill="url(#paint1_linear_126_51)"/>
<path d="M25.8805 86.9026C26.0467 98.515 29.3201 109.87 35.3607 119.788C41.4013 129.705 49.9884 137.824 60.2298 143.299L62.9385 138.216C53.6058 133.226 45.7807 125.828 40.2765 116.79C34.7723 107.752 31.7901 97.4046 31.6397 86.8226L25.8805 86.9026Z" fill="url(#paint2_linear_126_51)"/>
<path d="M50.2394 105.291L45.0384 107.771C48.1195 114.219 52.5255 119.943 57.9689 124.572C63.4124 129.201 69.7711 132.63 76.6301 134.636C83.4891 136.642 90.6943 137.178 97.7756 136.212C104.857 135.245 111.655 132.796 117.727 129.025L114.674 124.137C109.289 127.482 103.259 129.655 96.9787 130.511C90.698 131.368 84.3076 130.89 78.2248 129.11C72.142 127.329 66.5038 124.284 61.6783 120.176C56.8529 116.067 52.9489 110.987 50.2213 105.266L50.2394 105.291Z" fill="url(#paint3_linear_126_51)"/>
<path d="M59.1703 54.0032C67.6523 45.6076 79.1174 40.918 91.0505 40.963C102.984 41.008 114.41 45.7839 122.824 54.2432C124.009 55.4496 125.13 56.7157 126.185 58.0365L130.693 54.4486C126.255 48.8499 120.687 44.2503 114.351 40.95C108.015 37.6496 101.053 35.7228 93.9213 35.2953C86.7892 34.8679 79.6466 35.9494 72.96 38.4692C66.2734 40.989 60.1931 44.8904 55.116 49.9189L59.1703 54.0032Z" fill="url(#paint4_linear_126_51)"/>
<path d="M108.977 55.7373C92.261 45.7012 70.5702 51.117 60.5286 67.8338C50.4871 84.5507 55.8974 106.238 72.6129 116.274C89.3283 126.31 111.019 120.895 121.061 104.178C131.102 87.4609 125.692 65.7734 108.977 55.7373Z" fill="url(#paint5_linear_126_51)"/>
<path d="M122.064 62.8591C126.641 69.042 129.282 76.4437 129.652 84.1283C130.022 91.8129 128.104 99.4352 124.142 106.031C120.18 112.628 114.351 117.901 107.392 121.186C100.433 124.47 92.6571 125.618 85.0473 124.483C77.4375 123.349 70.3356 119.984 64.6397 114.813C58.9438 109.642 54.9097 102.898 53.0476 95.4335C51.1855 87.9691 51.579 80.1197 54.1783 72.8777C56.7776 65.6357 61.4661 59.3264 67.6507 54.7478C75.9478 48.6187 86.3368 46.0304 96.538 47.5511C106.739 49.0718 115.919 54.5771 122.064 62.8591ZM65.3119 104.874C69.0432 109.911 74.1848 113.728 80.0864 115.842C85.988 117.957 92.3846 118.274 98.4675 116.754C104.55 115.233 110.046 111.944 114.26 107.301C118.475 102.658 121.218 96.8704 122.143 90.6697C123.068 84.469 122.134 78.1337 119.458 72.4649C116.782 66.7961 112.486 62.0483 107.111 58.8219C101.736 55.5955 95.525 54.0354 89.2627 54.3387C83.0003 54.642 76.968 56.7953 71.9285 60.5261C65.1756 65.5354 60.6859 73.019 59.4454 81.3338C58.2048 89.6486 60.3147 98.1149 65.3119 104.874Z" fill="white"/>
</g>
<path d="M80.183 82.472C79.655 83.496 79.391 84.848 79.391 86.528C79.391 88.208 79.655 89.56 80.183 90.584C80.711 91.608 81.535 92.12 82.655 92.12C83.775 92.12 84.599 91.608 85.127 90.584C85.655 89.56 85.919 88.208 85.919 86.528C85.919 84.848 85.655 83.496 85.127 82.472C84.599 81.448 83.775 80.936 82.655 80.936C81.535 80.936 80.711 81.448 80.183 82.472ZM82.655 95.192C80.335 95.192 78.599 94.408 77.447 92.84C76.295 91.256 75.719 89.152 75.719 86.528C75.719 83.888 76.295 81.784 77.447 80.216C78.599 78.632 80.335 77.84 82.655 77.84C84.975 77.84 86.711 78.632 87.863 80.216C89.015 81.784 89.591 83.888 89.591 86.528C89.591 89.152 89.015 91.256 87.863 92.84C86.711 94.408 84.975 95.192 82.655 95.192ZM91.6893 78.224H98.4813V95H94.8813V81.416H91.6893V78.224Z" fill="white"/>
<g clip-path="url(#clip1_126_51)">
<g style="mix-blend-mode:multiply" opacity="0.3">
<g style="mix-blend-mode:multiply" opacity="0.3">
<path d="M902.841 74.6298C891.241 58.9604 869.13 55.6645 853.457 67.2682C837.783 78.8719 834.48 100.981 846.081 116.651C857.681 132.32 879.791 135.616 895.465 124.012C911.139 112.408 914.441 90.2992 902.841 74.6298Z" fill="white"/>
</g>
<g style="mix-blend-mode:multiply" opacity="0.3">
<path d="M902.05 74.5116C890.45 58.8422 868.339 55.5463 852.665 67.15C836.992 78.7537 833.689 100.863 845.29 116.532C856.89 132.202 879 135.498 894.674 123.894C910.348 112.29 913.65 90.181 902.05 74.5116Z" fill="#F3F3F4"/>
</g>
<g style="mix-blend-mode:multiply" opacity="0.3">
<path d="M901.265 74.4022C889.664 58.7328 867.554 55.4369 851.88 67.0406C836.206 78.6443 832.904 100.754 844.504 116.423C856.105 132.092 878.215 135.388 893.889 123.785C909.563 112.181 912.865 90.0716 901.265 74.4022Z" fill="#E8E6E8"/>
</g>
<g style="mix-blend-mode:multiply" opacity="0.3">
<path d="M900.474 74.2841C888.873 58.6147 866.763 55.3188 851.089 66.9225C835.415 78.5262 832.113 100.635 843.713 116.305C855.314 131.974 877.424 135.27 893.098 123.666C908.772 112.063 912.074 89.9535 900.474 74.2841Z" fill="#DCDBDD"/>
</g>
<g style="mix-blend-mode:multiply" opacity="0.3">
<path d="M889.485 64.9072C872.77 54.8711 851.079 60.2869 841.037 77.0038C830.996 93.7206 836.406 115.408 853.122 125.444C869.837 135.48 891.528 130.065 901.57 113.348C911.611 96.6308 906.201 74.9433 889.485 64.9072Z" fill="#D1CFD2"/>
</g>
<g style="mix-blend-mode:multiply" opacity="0.3">
<path d="M888.7 64.793C871.985 54.7569 850.294 60.1727 840.252 76.8895C830.211 93.6064 835.621 115.294 852.336 125.33C869.052 135.366 890.743 129.95 900.784 113.233C910.826 96.5166 905.416 74.8291 888.7 64.793Z" fill="#C6C4C7"/>
</g>
<g style="mix-blend-mode:multiply" opacity="0.3">
<path d="M887.906 64.6728C871.191 54.6368 849.5 60.0526 839.458 76.7694C829.417 93.4863 834.827 115.174 851.543 125.21C868.258 135.246 889.949 129.83 899.99 113.113C910.032 96.3965 904.622 74.7089 887.906 64.6728Z" fill="#BCB9BD"/>
</g>
<g style="mix-blend-mode:multiply" opacity="0.3">
<path d="M887.126 64.5557C870.41 54.5196 848.72 59.9354 838.678 76.6522C828.637 93.3691 834.047 115.057 850.762 125.093C867.478 135.129 889.169 129.713 899.21 112.996C909.252 96.2793 903.841 74.5918 887.126 64.5557Z" fill="#B1AFB3"/>
</g>
<g style="mix-blend-mode:multiply" opacity="0.3">
<path d="M886.337 64.4277C869.621 54.3916 847.931 59.8074 837.889 76.5243C827.847 93.2411 833.258 114.929 849.973 124.965C866.689 135.001 888.38 129.585 898.421 112.868C908.463 96.1513 903.052 74.4638 886.337 64.4277Z" fill="#A7A5A9"/>
</g>
<g style="mix-blend-mode:multiply" opacity="0.3">
<path d="M885.549 64.3164C868.833 54.2803 847.142 59.6961 837.101 76.413C827.059 93.1298 832.47 114.817 849.185 124.853C865.901 134.89 887.591 129.474 897.633 112.757C907.675 96.04 902.264 74.3525 885.549 64.3164Z" fill="#9D9B9F"/>
</g>
<g style="mix-blend-mode:multiply" opacity="0.3">
<path d="M884.754 64.1972C868.038 54.1611 846.348 59.577 836.306 76.2938C826.264 93.0107 831.675 114.698 848.39 124.734C865.106 134.77 886.797 129.355 896.838 112.638C906.88 95.9209 901.469 74.2333 884.754 64.1972Z" fill="#949196"/>
</g>
<g style="mix-blend-mode:multiply" opacity="0.3">
<path d="M883.96 64.0781C867.244 54.042 845.554 59.4578 835.512 76.1747C825.47 92.8915 830.881 114.579 847.596 124.615C864.312 134.651 886.003 129.235 896.044 112.519C906.086 95.8017 900.675 74.1142 883.96 64.0781Z" fill="#8B888D"/>
</g>
<g style="mix-blend-mode:multiply" opacity="0.3">
<path d="M883.181 63.9716C866.465 53.9355 844.774 59.3514 834.733 76.0682C824.691 92.7851 830.101 114.473 846.817 124.509C863.532 134.545 885.223 129.129 895.265 112.412C905.306 95.6953 899.896 74.0077 883.181 63.9716Z" fill="#817F84"/>
</g>
<g style="mix-blend-mode:multiply" opacity="0.3">
<path d="M882.386 63.8525C865.67 53.8164 843.979 59.2323 833.938 75.9491C823.896 92.666 829.307 114.353 846.022 124.39C862.738 134.426 884.428 129.01 894.47 112.293C904.511 95.5762 899.101 73.8886 882.386 63.8525Z" fill="#79767B"/>
</g>
<g style="mix-blend-mode:multiply" opacity="0.3">
<path d="M881.597 63.7246C864.881 53.6885 843.19 59.1043 833.149 75.8212C823.107 92.538 828.517 114.226 845.233 124.262C861.948 134.298 883.639 128.882 893.681 112.165C903.722 95.4482 898.312 73.7607 881.597 63.7246Z" fill="#706D73"/>
</g>
<g style="mix-blend-mode:multiply" opacity="0.3">
<path d="M880.809 63.6133C864.093 53.5772 842.402 58.993 832.361 75.7098C822.319 92.4267 827.729 114.114 844.445 124.15C861.16 134.186 882.851 128.771 892.893 112.054C902.934 95.3369 897.524 73.6493 880.809 63.6133Z" fill="#68656B"/>
</g>
<g style="mix-blend-mode:multiply" opacity="0.3">
<path d="M880.022 63.4873C863.307 53.4512 841.616 58.867 831.575 75.5839C821.533 92.3007 826.943 113.988 843.659 124.024C860.374 134.06 882.065 128.645 892.107 111.928C902.148 95.2109 896.738 73.5234 880.022 63.4873Z" fill="#605D63"/>
</g>
<g style="mix-blend-mode:multiply" opacity="0.3">
<path d="M879.234 63.376C862.519 53.3399 840.828 58.7557 830.786 75.4725C820.745 92.1894 826.155 113.877 842.871 123.913C859.586 133.949 881.277 128.533 891.319 111.816C901.36 95.0996 895.95 73.412 879.234 63.376Z" fill="#58565B"/>
</g>
<g style="mix-blend-mode:multiply" opacity="0.3">
<path d="M878.449 63.2617C861.734 53.2256 840.043 58.6414 830.001 75.3583C819.96 92.0751 825.37 113.763 842.085 123.799C858.801 133.835 880.492 128.419 890.533 111.702C900.575 94.9853 895.165 73.2978 878.449 63.2617Z" fill="#514F54"/>
</g>
<g style="mix-blend-mode:multiply" opacity="0.3">
<path d="M877.654 63.1425C860.939 53.1064 839.248 58.5223 829.206 75.2391C819.165 91.956 824.575 113.644 841.291 123.68C858.006 133.716 879.697 128.3 889.738 111.583C899.78 94.8662 894.37 73.1786 877.654 63.1425Z" fill="#49484D"/>
</g>
<g style="mix-blend-mode:multiply" opacity="0.3">
<path d="M876.866 63.0312C860.151 52.9951 838.46 58.411 828.418 75.1278C818.377 91.8447 823.787 113.532 840.502 123.568C857.218 133.604 878.909 128.189 888.95 111.472C898.992 94.7549 893.582 73.0673 876.866 63.0312Z" fill="#424146"/>
</g>
<g style="mix-blend-mode:multiply" opacity="0.3">
<path d="M876.077 62.9033C859.362 52.8672 837.671 58.2831 827.629 74.9999C817.588 91.7167 822.998 113.404 839.713 123.44C856.429 133.476 878.12 128.061 888.161 111.344C898.203 94.6269 892.793 72.9394 876.077 62.9033Z" fill="#3B3A3F"/>
</g>
<g style="mix-blend-mode:multiply" opacity="0.3">
<path d="M875.289 62.792C858.574 52.7559 836.883 58.1717 826.841 74.8886C816.8 91.6054 822.21 113.293 838.925 123.329C855.641 133.365 877.332 127.949 887.373 111.232C897.415 94.5156 892.005 72.8281 875.289 62.792Z" fill="#343339"/>
</g>
<g style="mix-blend-mode:multiply" opacity="0.3">
<path d="M874.495 62.6728C857.78 52.6368 836.089 58.0526 826.047 74.7694C816.006 91.4863 821.416 113.174 838.131 123.21C854.847 133.246 876.538 127.83 886.579 111.113C896.621 94.3965 891.211 72.7089 874.495 62.6728Z" fill="#2E2D33"/>
</g>
<g style="mix-blend-mode:multiply" opacity="0.3">
<path d="M873.717 62.5527C857.001 52.5166 835.31 57.9324 825.269 74.6492C815.227 91.3661 820.638 113.054 837.353 123.09C854.069 133.126 875.759 127.71 885.801 110.993C895.843 94.2763 890.432 72.5888 873.717 62.5527Z" fill="#28272D"/>
</g>
<g style="mix-blend-mode:multiply" opacity="0.3">
<path d="M872.929 62.4414C856.213 52.4053 834.522 57.8211 824.481 74.5379C814.439 91.2548 819.85 112.942 836.565 122.978C853.28 133.015 874.971 127.599 885.013 110.882C895.054 94.165 889.644 72.4775 872.929 62.4414Z" fill="#222227"/>
</g>
<g style="mix-blend-mode:multiply" opacity="0.3">
<path d="M872.135 62.3213C855.419 52.2852 833.728 57.701 823.687 74.4178C813.645 91.1347 819.056 112.822 835.771 122.858C852.487 132.894 874.177 127.479 884.219 110.762C894.261 94.0449 888.85 72.3573 872.135 62.3213Z" fill="#1C1C21"/>
</g>
<g style="mix-blend-mode:multiply" opacity="0.3">
<path d="M871.346 62.1933C854.63 52.1573 832.939 57.5731 822.898 74.2899C812.856 91.0068 818.266 112.694 834.982 122.73C851.697 132.766 873.388 127.351 883.43 110.634C893.471 93.917 888.061 72.2294 871.346 62.1933Z" fill="#16171B"/>
</g>
<g style="mix-blend-mode:multiply" opacity="0.3">
<path d="M870.558 62.082C853.842 52.0459 832.151 57.4617 822.11 74.1786C812.068 90.8954 817.478 112.583 834.194 122.619C850.909 132.655 872.6 127.239 882.642 110.522C892.683 93.8056 887.273 72.1181 870.558 62.082Z" fill="#101115"/>
</g>
<g style="mix-blend-mode:multiply" opacity="0.3">
<path d="M869.763 61.9629C853.047 51.9268 831.356 57.3426 821.315 74.0594C811.273 90.7763 816.683 112.464 833.399 122.5C850.114 132.536 871.805 127.12 881.847 110.403C891.888 93.6865 886.478 71.999 869.763 61.9629Z" fill="#0A0B0E"/>
</g>
<g style="mix-blend-mode:multiply" opacity="0.3">
<path d="M868.983 61.8564C852.268 51.8204 830.577 57.2362 820.535 73.953C810.494 90.6699 815.904 112.357 832.62 122.393C849.335 132.43 871.026 127.014 881.068 110.297C891.109 93.5801 885.699 71.8925 868.983 61.8564Z" fill="#050507"/>
</g>
<g style="mix-blend-mode:multiply" opacity="0.3">
<path d="M868.189 61.7373C851.474 51.7012 829.783 57.117 819.741 73.8339C809.7 90.5507 815.11 112.238 831.826 122.274C848.541 132.31 870.232 126.895 880.274 110.178C890.315 93.4609 884.905 71.7734 868.189 61.7373Z" fill="#010101"/>
</g>
</g>
<path d="M885.197 139.542C884.239 140.251 883.289 140.954 882.287 141.57L885.43 146.392C886.509 145.694 887.574 144.943 888.621 144.167C897.455 137.669 904.49 129.03 909.066 119.065C913.641 109.1 915.606 98.1348 914.776 87.2021L909.031 87.6236C909.786 97.587 907.994 107.579 903.825 116.662C899.656 125.744 893.245 133.617 885.197 139.542Z" fill="url(#paint6_linear_126_51)"/>
<path d="M814.812 44.4682C823.326 38.1613 833.376 34.2524 843.913 33.1489C854.451 32.0454 865.09 33.7876 874.724 38.1939L877.125 32.9491C866.564 28.1174 854.9 26.2049 843.347 27.4109C831.794 28.6169 820.775 32.8972 811.436 39.8063L814.812 44.4682Z" fill="url(#paint7_linear_126_51)"/>
<path d="M785.093 92.9026C785.26 104.515 788.533 115.87 794.574 125.788C800.614 135.705 809.201 143.824 819.443 149.299L822.151 144.216C812.819 139.226 804.994 131.828 799.489 122.79C793.985 113.752 791.003 103.405 790.853 92.8226L785.093 92.9026Z" fill="url(#paint8_linear_126_51)"/>
<path d="M809.452 111.291L804.251 113.771C807.332 120.219 811.738 125.943 817.182 130.572C822.625 135.201 828.984 138.63 835.843 140.636C842.702 142.642 849.907 143.178 856.989 142.212C864.07 141.245 870.868 138.796 876.94 135.025L873.887 130.137C868.502 133.482 862.472 135.655 856.192 136.511C849.911 137.368 843.52 136.89 837.438 135.11C831.355 133.329 825.717 130.284 820.891 126.176C816.066 122.067 812.162 116.987 809.434 111.266L809.452 111.291Z" fill="url(#paint9_linear_126_51)"/>
<path d="M818.383 60.0032C826.865 51.6076 838.33 46.918 850.263 46.963C862.197 47.008 873.623 51.7839 882.037 60.2432C883.221 61.4496 884.343 62.7157 885.398 64.0365L889.905 60.4486C885.468 54.8499 879.9 50.2503 873.564 46.95C867.228 43.6496 860.266 41.7228 853.134 41.2953C846.002 40.8679 838.86 41.9494 832.173 44.4692C825.486 46.989 819.406 50.8904 814.329 55.9189L818.383 60.0032Z" fill="url(#paint10_linear_126_51)"/>
<path d="M868.189 61.7373C851.474 51.7012 829.783 57.117 819.741 73.8338C809.7 90.5507 815.11 112.238 831.826 122.274C848.541 132.31 870.232 126.895 880.274 110.178C890.315 93.4609 884.905 71.7734 868.189 61.7373Z" fill="url(#paint11_linear_126_51)"/>
<path d="M881.277 68.8591C885.854 75.042 888.495 82.4437 888.865 90.1283C889.234 97.8129 887.317 105.435 883.355 112.031C879.393 118.628 873.564 123.901 866.605 127.186C859.646 130.47 851.87 131.618 844.26 130.483C836.65 129.349 829.548 125.984 823.853 120.813C818.157 115.642 814.123 108.898 812.26 101.434C810.398 93.9691 810.792 86.1197 813.391 78.8777C815.991 71.6357 820.679 65.3264 826.864 60.7478C835.161 54.6187 845.55 52.0304 855.751 53.5511C865.952 55.0718 875.132 60.5771 881.277 68.8591ZM824.525 110.874C828.256 115.911 833.398 119.728 839.299 121.842C845.201 123.957 851.598 124.274 857.68 122.754C863.763 121.233 869.259 117.944 873.473 113.301C877.688 108.658 880.431 102.87 881.356 96.6697C882.281 90.469 881.347 84.1337 878.671 78.4649C875.995 72.7961 871.698 68.0483 866.324 64.8219C860.949 61.5955 854.738 60.0354 848.476 60.3387C842.213 60.642 836.181 62.7953 831.141 66.5261C824.388 71.5354 819.899 79.019 818.658 87.3338C817.418 95.6486 819.528 104.115 824.525 110.874Z" fill="white"/>
<path d="M840.967 88.472C840.439 89.496 840.175 90.848 840.175 92.528C840.175 94.208 840.439 95.56 840.967 96.584C841.495 97.608 842.319 98.12 843.439 98.12C844.559 98.12 845.383 97.608 845.911 96.584C846.439 95.56 846.703 94.208 846.703 92.528C846.703 90.848 846.439 89.496 845.911 88.472C845.383 87.448 844.559 86.936 843.439 86.936C842.319 86.936 841.495 87.448 840.967 88.472ZM843.439 101.192C841.119 101.192 839.383 100.408 838.231 98.84C837.079 97.256 836.503 95.152 836.503 92.528C836.503 89.888 837.079 87.784 838.231 86.216C839.383 84.632 841.119 83.84 843.439 83.84C845.759 83.84 847.495 84.632 848.647 86.216C849.799 87.784 850.375 89.888 850.375 92.528C850.375 95.152 849.799 97.256 848.647 98.84C847.495 100.408 845.759 101.192 843.439 101.192ZM859.337 93.752V90.824H862.937V93.752H864.833V96.992H862.937V101H859.337V96.992H852.593V94.136L858.569 84.224H862.649L856.961 93.752H859.337Z" fill="white"/>
</g>
<g clip-path="url(#clip2_126_51)">
<g style="mix-blend-mode:multiply" opacity="0.3">
<g style="mix-blend-mode:multiply" opacity="0.3">
<path d="M398.394 71.6298C386.793 55.9604 364.683 52.6645 349.009 64.2682C333.335 75.8719 330.033 97.9811 341.633 113.651C353.234 129.32 375.344 132.616 391.018 121.012C406.692 109.408 409.994 87.2992 398.394 71.6298Z" fill="white"/>
</g>
<g style="mix-blend-mode:multiply" opacity="0.3">
<path d="M397.603 71.5116C386.002 55.8422 363.892 52.5463 348.218 64.15C332.544 75.7537 329.242 97.8629 340.842 113.532C352.443 129.202 374.553 132.498 390.227 120.894C405.901 109.29 409.203 87.181 397.603 71.5116Z" fill="#F3F3F4"/>
</g>
<g style="mix-blend-mode:multiply" opacity="0.3">
<path d="M396.818 71.4022C385.217 55.7328 363.107 52.4369 347.433 64.0406C331.759 75.6443 328.457 97.7536 340.057 113.423C351.658 129.092 373.768 132.388 389.442 120.785C405.116 109.181 408.418 87.0716 396.818 71.4022Z" fill="#E8E6E8"/>
</g>
<g style="mix-blend-mode:multiply" opacity="0.3">
<path d="M396.027 71.2841C384.426 55.6147 362.316 52.3188 346.642 63.9225C330.968 75.5262 327.666 97.6354 339.266 113.305C350.867 128.974 372.977 132.27 388.651 120.666C404.325 109.063 407.627 86.9535 396.027 71.2841Z" fill="#DCDBDD"/>
</g>
<g style="mix-blend-mode:multiply" opacity="0.3">
<path d="M385.038 61.9072C368.323 51.8711 346.632 57.2869 336.59 74.0038C326.549 90.7206 331.959 112.408 348.674 122.444C365.39 132.48 387.081 127.065 397.122 110.348C407.164 93.6308 401.754 71.9433 385.038 61.9072Z" fill="#D1CFD2"/>
</g>
<g style="mix-blend-mode:multiply" opacity="0.3">
<path d="M384.253 61.793C367.537 51.7569 345.847 57.1727 335.805 73.8895C325.763 90.6064 331.174 112.294 347.889 122.33C364.605 132.366 386.296 126.95 396.337 110.233C406.379 93.5166 400.968 71.8291 384.253 61.793Z" fill="#C6C4C7"/>
</g>
<g style="mix-blend-mode:multiply" opacity="0.3">
<path d="M383.459 61.6728C366.743 51.6368 345.053 57.0526 335.011 73.7694C324.97 90.4863 330.38 112.174 347.095 122.21C363.811 132.246 385.502 126.83 395.543 110.113C405.585 93.3965 400.174 71.7089 383.459 61.6728Z" fill="#BCB9BD"/>
</g>
<g style="mix-blend-mode:multiply" opacity="0.3">
<path d="M382.679 61.5557C365.963 51.5196 344.272 56.9354 334.231 73.6522C324.189 90.3691 329.6 112.057 346.315 122.093C363.03 132.129 384.721 126.713 394.763 109.996C404.804 93.2793 399.394 71.5918 382.679 61.5557Z" fill="#B1AFB3"/>
</g>
<g style="mix-blend-mode:multiply" opacity="0.3">
<path d="M381.89 61.4277C365.174 51.3916 343.483 56.8074 333.442 73.5243C323.4 90.2411 328.81 111.929 345.526 121.965C362.241 132.001 383.932 126.585 393.974 109.868C404.015 93.1513 398.605 71.4638 381.89 61.4277Z" fill="#A7A5A9"/>
</g>
<g style="mix-blend-mode:multiply" opacity="0.3">
<path d="M381.102 61.3164C364.386 51.2803 342.695 56.6961 332.654 73.413C322.612 90.1298 328.022 111.817 344.738 121.853C361.453 131.89 383.144 126.474 393.186 109.757C403.227 93.04 397.817 71.3525 381.102 61.3164Z" fill="#9D9B9F"/>
</g>
<g style="mix-blend-mode:multiply" opacity="0.3">
<path d="M380.307 61.1972C363.591 51.1611 341.9 56.577 331.859 73.2938C321.817 90.0107 327.227 111.698 343.943 121.734C360.658 131.77 382.349 126.355 392.391 109.638C402.432 92.9209 397.022 71.2333 380.307 61.1972Z" fill="#949196"/>
</g>
<g style="mix-blend-mode:multiply" opacity="0.3">
<path d="M379.513 61.0781C362.797 51.042 341.106 56.4578 331.065 73.1747C321.023 89.8915 326.434 111.579 343.149 121.615C359.864 131.651 381.555 126.235 391.597 109.519C401.638 92.8017 396.228 71.1142 379.513 61.0781Z" fill="#8B888D"/>
</g>
<g style="mix-blend-mode:multiply" opacity="0.3">
<path d="M378.733 60.9716C362.018 50.9355 340.327 56.3514 330.285 73.0682C320.244 89.7851 325.654 111.473 342.37 121.509C359.085 131.545 380.776 126.129 390.818 109.412C400.859 92.6953 395.449 71.0077 378.733 60.9716Z" fill="#817F84"/>
</g>
<g style="mix-blend-mode:multiply" opacity="0.3">
<path d="M377.938 60.8525C361.223 50.8164 339.532 56.2323 329.491 72.9491C319.449 89.666 324.859 111.353 341.575 121.39C358.29 131.426 379.981 126.01 390.023 109.293C400.064 92.5762 394.654 70.8886 377.938 60.8525Z" fill="#79767B"/>
</g>
<g style="mix-blend-mode:multiply" opacity="0.3">
<path d="M377.149 60.7246C360.434 50.6885 338.743 56.1043 328.701 72.8212C318.66 89.538 324.07 111.226 340.786 121.262C357.501 131.298 379.192 125.882 389.234 109.165C399.275 92.4482 393.865 70.7607 377.149 60.7246Z" fill="#706D73"/>
</g>
<g style="mix-blend-mode:multiply" opacity="0.3">
<path d="M376.361 60.6133C359.646 50.5772 337.955 55.993 327.913 72.7098C317.872 89.4267 323.282 111.114 339.998 121.15C356.713 131.186 378.404 125.771 388.446 109.054C398.487 92.3369 393.077 70.6493 376.361 60.6133Z" fill="#68656B"/>
</g>
<g style="mix-blend-mode:multiply" opacity="0.3">
<path d="M375.575 60.4873C358.86 50.4512 337.169 55.867 327.127 72.5839C317.086 89.3007 322.496 110.988 339.211 121.024C355.927 131.06 377.618 125.645 387.659 108.928C397.701 92.2109 392.291 70.5234 375.575 60.4873Z" fill="#605D63"/>
</g>
<g style="mix-blend-mode:multiply" opacity="0.3">
<path d="M374.787 60.376C358.072 50.3399 336.381 55.7557 326.339 72.4725C316.298 89.1894 321.708 110.877 338.423 120.913C355.139 130.949 376.83 125.533 386.871 108.816C396.913 92.0996 391.503 70.412 374.787 60.376Z" fill="#58565B"/>
</g>
<g style="mix-blend-mode:multiply" opacity="0.3">
<path d="M374.002 60.2617C357.286 50.2256 335.596 55.6414 325.554 72.3583C315.512 89.0751 320.923 110.763 337.638 120.799C354.354 130.835 376.045 125.419 386.086 108.702C396.128 91.9853 390.717 70.2978 374.002 60.2617Z" fill="#514F54"/>
</g>
<g style="mix-blend-mode:multiply" opacity="0.3">
<path d="M373.207 60.1425C356.491 50.1064 334.801 55.5223 324.759 72.2391C314.718 88.956 320.128 110.644 336.843 120.68C353.559 130.716 375.25 125.3 385.291 108.583C395.333 91.8662 389.922 70.1786 373.207 60.1425Z" fill="#49484D"/>
</g>
<g style="mix-blend-mode:multiply" opacity="0.3">
<path d="M372.419 60.0312C355.703 49.9951 334.013 55.411 323.971 72.1278C313.929 88.8447 319.34 110.532 336.055 120.568C352.771 130.604 374.462 125.189 384.503 108.472C394.545 91.7549 389.134 70.0673 372.419 60.0312Z" fill="#424146"/>
</g>
<g style="mix-blend-mode:multiply" opacity="0.3">
<path d="M371.63 59.9033C354.914 49.8672 333.224 55.2831 323.182 71.9999C313.14 88.7167 318.551 110.404 335.266 120.44C351.982 130.476 373.673 125.061 383.714 108.344C393.756 91.6269 388.345 69.9394 371.63 59.9033Z" fill="#3B3A3F"/>
</g>
<g style="mix-blend-mode:multiply" opacity="0.3">
<path d="M370.842 59.792C354.126 49.7559 332.435 55.1717 322.394 71.8886C312.352 88.6054 317.763 110.293 334.478 120.329C351.194 130.365 372.884 124.949 382.926 108.232C392.968 91.5156 387.557 69.8281 370.842 59.792Z" fill="#343339"/>
</g>
<g style="mix-blend-mode:multiply" opacity="0.3">
<path d="M370.048 59.6728C353.332 49.6368 331.641 55.0526 321.6 71.7694C311.558 88.4863 316.969 110.174 333.684 120.21C350.4 130.246 372.09 124.83 382.132 108.113C392.174 91.3965 386.763 69.7089 370.048 59.6728Z" fill="#2E2D33"/>
</g>
<g style="mix-blend-mode:multiply" opacity="0.3">
<path d="M369.27 59.5527C352.554 49.5166 330.863 54.9324 320.822 71.6492C310.78 88.3661 316.19 110.054 332.906 120.09C349.621 130.126 371.312 124.71 381.354 107.993C391.395 91.2763 385.985 69.5888 369.27 59.5527Z" fill="#28272D"/>
</g>
<g style="mix-blend-mode:multiply" opacity="0.3">
<path d="M368.481 59.4414C351.766 49.4053 330.075 54.8211 320.034 71.5379C309.992 88.2548 315.402 109.942 332.118 119.978C348.833 130.015 370.524 124.599 380.566 107.882C390.607 91.165 385.197 69.4775 368.481 59.4414Z" fill="#222227"/>
</g>
<g style="mix-blend-mode:multiply" opacity="0.3">
<path d="M367.687 59.3213C350.972 49.2852 329.281 54.701 319.24 71.4178C309.198 88.1347 314.608 109.822 331.324 119.858C348.039 129.894 369.73 124.479 379.772 107.762C389.813 91.0449 384.403 69.3573 367.687 59.3213Z" fill="#1C1C21"/>
</g>
<g style="mix-blend-mode:multiply" opacity="0.3">
<path d="M366.898 59.1933C350.183 49.1573 328.492 54.5731 318.45 71.2899C308.409 88.0068 313.819 109.694 330.535 119.73C347.25 129.766 368.941 124.351 378.983 107.634C389.024 90.917 383.614 69.2294 366.898 59.1933Z" fill="#16171B"/>
</g>
<g style="mix-blend-mode:multiply" opacity="0.3">
<path d="M366.11 59.082C349.395 49.0459 327.704 54.4617 317.662 71.1786C307.621 87.8954 313.031 109.583 329.747 119.619C346.462 129.655 368.153 124.239 378.195 107.522C388.236 90.8056 382.826 69.1181 366.11 59.082Z" fill="#101115"/>
</g>
<g style="mix-blend-mode:multiply" opacity="0.3">
<path d="M365.315 58.9629C348.6 48.9268 326.909 54.3426 316.867 71.0594C306.826 87.7763 312.236 109.464 328.952 119.5C345.667 129.536 367.358 124.12 377.4 107.403C387.441 90.6865 382.031 68.999 365.315 58.9629Z" fill="#0A0B0E"/>
</g>
<g style="mix-blend-mode:multiply" opacity="0.3">
<path d="M364.536 58.8564C347.821 48.8204 326.13 54.2362 316.088 70.953C306.047 87.6699 311.457 109.357 328.172 119.393C344.888 129.43 366.579 124.014 376.62 107.297C386.662 90.5801 381.252 68.8925 364.536 58.8564Z" fill="#050507"/>
</g>
<g style="mix-blend-mode:multiply" opacity="0.3">
<path d="M363.742 58.7373C347.027 48.7012 325.336 54.117 315.294 70.8339C305.253 87.5507 310.663 109.238 327.378 119.274C344.094 129.31 365.785 123.895 375.826 107.178C385.868 90.4609 380.458 68.7734 363.742 58.7373Z" fill="#010101"/>
</g>
</g>
<path d="M380.749 136.542C379.792 137.251 378.842 137.954 377.84 138.57L380.983 143.392C382.062 142.694 383.127 141.943 384.174 141.167C393.007 134.669 400.043 126.03 404.618 116.065C409.194 106.1 411.159 95.1348 410.329 84.2021L404.583 84.6236C405.338 94.587 403.547 104.579 399.378 113.662C395.208 122.744 388.798 130.617 380.749 136.542Z" fill="url(#paint12_linear_126_51)"/>
<path d="M310.365 41.4682C318.879 35.1613 328.929 31.2524 339.466 30.1489C350.003 29.0454 360.643 30.7876 370.277 35.1939L372.678 29.9491C362.116 25.1174 350.452 23.2049 338.899 24.4109C327.347 25.6169 316.327 29.8972 306.989 36.8063L310.365 41.4682Z" fill="url(#paint13_linear_126_51)"/>
<path d="M280.646 89.9026C280.812 101.515 284.086 112.87 290.126 122.788C296.167 132.705 304.754 140.824 314.995 146.299L317.704 141.216C308.371 136.226 300.546 128.828 295.042 119.79C289.538 110.752 286.556 100.405 286.405 89.8226L280.646 89.9026Z" fill="url(#paint14_linear_126_51)"/>
<path d="M305.005 108.291L299.804 110.771C302.885 117.219 307.291 122.943 312.735 127.572C318.178 132.201 324.537 135.63 331.396 137.636C338.255 139.642 345.46 140.178 352.541 139.212C359.623 138.245 366.421 135.796 372.493 132.025L369.439 127.137C364.055 130.482 358.025 132.655 351.744 133.511C345.464 134.368 339.073 133.89 332.99 132.11C326.908 130.329 321.269 127.284 316.444 123.176C311.619 119.067 307.715 113.987 304.987 108.266L305.005 108.291Z" fill="url(#paint15_linear_126_51)"/>
<path d="M313.936 57.0032C322.418 48.6076 333.883 43.918 345.816 43.963C357.749 44.008 369.176 48.7839 377.59 57.2432C378.774 58.4496 379.896 59.7157 380.951 61.0365L385.458 57.4486C381.021 51.8499 375.453 47.2503 369.117 43.95C362.78 40.6496 355.819 38.7228 348.687 38.2953C341.555 37.8679 334.412 38.9494 327.726 41.4692C321.039 43.989 314.959 47.8904 309.882 52.9189L313.936 57.0032Z" fill="url(#paint16_linear_126_51)"/>
<path d="M363.742 58.7373C347.027 48.7012 325.336 54.117 315.294 70.8338C305.253 87.5507 310.663 109.238 327.378 119.274C344.094 129.31 365.785 123.895 375.826 107.178C385.868 90.4609 380.458 68.7734 363.742 58.7373Z" fill="url(#paint17_linear_126_51)"/>
<path d="M376.83 65.8591C381.407 72.042 384.047 79.4437 384.417 87.1283C384.787 94.8129 382.87 102.435 378.908 109.031C374.945 115.628 369.116 120.901 362.158 124.186C355.199 127.47 347.423 128.618 339.813 127.483C332.203 126.349 325.101 122.984 319.405 117.813C313.709 112.642 309.675 105.898 307.813 98.4335C305.951 90.9691 306.345 83.1197 308.944 75.8777C311.543 68.6357 316.232 62.3264 322.416 57.7478C330.713 51.6187 341.102 49.0304 351.304 50.5511C361.505 52.0718 370.685 57.5771 376.83 65.8591ZM320.077 107.874C323.809 112.911 328.95 116.728 334.852 118.842C340.754 120.957 347.15 121.274 353.233 119.754C359.316 118.233 364.812 114.944 369.026 110.301C373.24 105.658 375.983 99.8704 376.908 93.6697C377.834 87.469 376.899 81.1337 374.224 75.4649C371.548 69.7961 367.251 65.0483 361.877 61.8219C356.502 58.5955 350.291 57.0354 344.028 57.3387C337.766 57.642 331.734 59.7953 326.694 63.5261C319.941 68.5354 315.452 76.019 314.211 84.3338C312.97 92.6486 315.08 101.115 320.077 107.874Z" fill="white"/>
<path d="M335.809 85.472C335.281 86.496 335.017 87.848 335.017 89.528C335.017 91.208 335.281 92.56 335.809 93.584C336.337 94.608 337.161 95.12 338.281 95.12C339.401 95.12 340.225 94.608 340.753 93.584C341.281 92.56 341.545 91.208 341.545 89.528C341.545 87.848 341.281 86.496 340.753 85.472C340.225 84.448 339.401 83.936 338.281 83.936C337.161 83.936 336.337 84.448 335.809 85.472ZM338.281 98.192C335.961 98.192 334.225 97.408 333.073 95.84C331.921 94.256 331.345 92.152 331.345 89.528C331.345 86.888 331.921 84.784 333.073 83.216C334.225 81.632 335.961 80.84 338.281 80.84C340.601 80.84 342.337 81.632 343.489 83.216C344.641 84.784 345.217 86.888 345.217 89.528C345.217 92.152 344.641 94.256 343.489 95.84C342.337 97.408 340.601 98.192 338.281 98.192ZM352.883 90.176C353.875 89.168 354.579 88.368 354.995 87.776C355.427 87.168 355.643 86.584 355.643 86.024C355.643 85.464 355.459 85 355.091 84.632C354.723 84.248 354.251 84.056 353.675 84.056C352.619 84.056 351.619 84.808 350.675 86.312L347.675 84.536C348.459 83.32 349.315 82.4 350.243 81.776C351.187 81.152 352.379 80.84 353.819 80.84C355.275 80.84 356.547 81.304 357.635 82.232C358.739 83.144 359.291 84.392 359.291 85.976C359.291 86.84 359.067 87.672 358.619 88.472C358.187 89.256 357.379 90.264 356.195 91.496L353.171 94.64H359.795V98H347.963V95.216L352.883 90.176Z" fill="white"/>
</g>
<g clip-path="url(#clip3_126_51)">
<g style="mix-blend-mode:multiply" opacity="0.3">
<g style="mix-blend-mode:multiply" opacity="0.3">
<path d="M650.394 74.6298C638.793 58.9604 616.683 55.6645 601.009 67.2682C585.335 78.8719 582.033 100.981 593.633 116.651C605.234 132.32 627.344 135.616 643.018 124.012C658.692 112.408 661.994 90.2992 650.394 74.6298Z" fill="white"/>
</g>
<g style="mix-blend-mode:multiply" opacity="0.3">
<path d="M649.603 74.5116C638.002 58.8422 615.892 55.5463 600.218 67.15C584.544 78.7537 581.242 100.863 592.842 116.532C604.443 132.202 626.553 135.498 642.227 123.894C657.901 112.29 661.203 90.181 649.603 74.5116Z" fill="#F3F3F4"/>
</g>
<g style="mix-blend-mode:multiply" opacity="0.3">
<path d="M648.818 74.4022C637.217 58.7328 615.107 55.4369 599.433 67.0406C583.759 78.6443 580.457 100.754 592.057 116.423C603.658 132.092 625.768 135.388 641.442 123.785C657.116 112.181 660.418 90.0716 648.818 74.4022Z" fill="#E8E6E8"/>
</g>
<g style="mix-blend-mode:multiply" opacity="0.3">
<path d="M648.027 74.2841C636.426 58.6147 614.316 55.3188 598.642 66.9225C582.968 78.5262 579.666 100.635 591.266 116.305C602.867 131.974 624.977 135.27 640.651 123.666C656.325 112.063 659.627 89.9535 648.027 74.2841Z" fill="#DCDBDD"/>
</g>
<g style="mix-blend-mode:multiply" opacity="0.3">
<path d="M637.038 64.9072C620.323 54.8711 598.632 60.2869 588.59 77.0038C578.549 93.7206 583.959 115.408 600.674 125.444C617.39 135.48 639.081 130.065 649.122 113.348C659.164 96.6308 653.754 74.9433 637.038 64.9072Z" fill="#D1CFD2"/>
</g>
<g style="mix-blend-mode:multiply" opacity="0.3">
<path d="M636.253 64.793C619.537 54.7569 597.847 60.1727 587.805 76.8895C577.763 93.6064 583.174 115.294 599.889 125.33C616.605 135.366 638.296 129.95 648.337 113.233C658.379 96.5166 652.968 74.8291 636.253 64.793Z" fill="#C6C4C7"/>
</g>
<g style="mix-blend-mode:multiply" opacity="0.3">
<path d="M635.459 64.6728C618.743 54.6368 597.053 60.0526 587.011 76.7694C576.97 93.4863 582.38 115.174 599.095 125.21C615.811 135.246 637.502 129.83 647.543 113.113C657.585 96.3965 652.174 74.7089 635.459 64.6728Z" fill="#BCB9BD"/>
</g>
<g style="mix-blend-mode:multiply" opacity="0.3">
<path d="M634.679 64.5557C617.963 54.5196 596.272 59.9354 586.231 76.6522C576.189 93.3691 581.6 115.057 598.315 125.093C615.03 135.129 636.721 129.713 646.763 112.996C656.804 96.2793 651.394 74.5918 634.679 64.5557Z" fill="#B1AFB3"/>
</g>
<g style="mix-blend-mode:multiply" opacity="0.3">
<path d="M633.89 64.4277C617.174 54.3916 595.483 59.8074 585.442 76.5243C575.4 93.2411 580.81 114.929 597.526 124.965C614.241 135.001 635.932 129.585 645.974 112.868C656.015 96.1513 650.605 74.4638 633.89 64.4277Z" fill="#A7A5A9"/>
</g>
<g style="mix-blend-mode:multiply" opacity="0.3">
<path d="M633.102 64.3164C616.386 54.2803 594.695 59.6961 584.654 76.413C574.612 93.1298 580.022 114.817 596.738 124.853C613.453 134.89 635.144 129.474 645.186 112.757C655.227 96.04 649.817 74.3525 633.102 64.3164Z" fill="#9D9B9F"/>
</g>
<g style="mix-blend-mode:multiply" opacity="0.3">
<path d="M632.307 64.1972C615.591 54.1611 593.9 59.577 583.859 76.2938C573.817 93.0107 579.227 114.698 595.943 124.734C612.658 134.77 634.349 129.355 644.391 112.638C654.432 95.9209 649.022 74.2333 632.307 64.1972Z" fill="#949196"/>
</g>
<g style="mix-blend-mode:multiply" opacity="0.3">
<path d="M631.513 64.0781C614.797 54.042 593.106 59.4578 583.065 76.1747C573.023 92.8915 578.434 114.579 595.149 124.615C611.864 134.651 633.555 129.235 643.597 112.519C653.638 95.8017 648.228 74.1142 631.513 64.0781Z" fill="#8B888D"/>
</g>
<g style="mix-blend-mode:multiply" opacity="0.3">
<path d="M630.733 63.9716C614.018 53.9355 592.327 59.3514 582.285 76.0682C572.244 92.7851 577.654 114.473 594.37 124.509C611.085 134.545 632.776 129.129 642.818 112.412C652.859 95.6953 647.449 74.0077 630.733 63.9716Z" fill="#817F84"/>
</g>
<g style="mix-blend-mode:multiply" opacity="0.3">
<path d="M629.938 63.8525C613.223 53.8164 591.532 59.2323 581.491 75.9491C571.449 92.666 576.859 114.353 593.575 124.39C610.29 134.426 631.981 129.01 642.023 112.293C652.064 95.5762 646.654 73.8886 629.938 63.8525Z" fill="#79767B"/>
</g>
<g style="mix-blend-mode:multiply" opacity="0.3">
<path d="M629.149 63.7246C612.434 53.6885 590.743 59.1043 580.701 75.8212C570.66 92.538 576.07 114.226 592.786 124.262C609.501 134.298 631.192 128.882 641.234 112.165C651.275 95.4482 645.865 73.7607 629.149 63.7246Z" fill="#706D73"/>
</g>
<g style="mix-blend-mode:multiply" opacity="0.3">
<path d="M628.361 63.6133C611.646 53.5772 589.955 58.993 579.913 75.7098C569.872 92.4267 575.282 114.114 591.998 124.15C608.713 134.186 630.404 128.771 640.446 112.054C650.487 95.3369 645.077 73.6493 628.361 63.6133Z" fill="#68656B"/>
</g>
<g style="mix-blend-mode:multiply" opacity="0.3">
<path d="M627.575 63.4873C610.86 53.4512 589.169 58.867 579.127 75.5839C569.086 92.3007 574.496 113.988 591.211 124.024C607.927 134.06 629.618 128.645 639.659 111.928C649.701 95.2109 644.291 73.5234 627.575 63.4873Z" fill="#605D63"/>
</g>
<g style="mix-blend-mode:multiply" opacity="0.3">
<path d="M626.787 63.376C610.072 53.3399 588.381 58.7557 578.339 75.4725C568.298 92.1894 573.708 113.877 590.423 123.913C607.139 133.949 628.83 128.533 638.871 111.816C648.913 95.0996 643.503 73.412 626.787 63.376Z" fill="#58565B"/>
</g>
<g style="mix-blend-mode:multiply" opacity="0.3">
<path d="M626.002 63.2617C609.286 53.2256 587.596 58.6414 577.554 75.3583C567.512 92.0751 572.923 113.763 589.638 123.799C606.354 133.835 628.045 128.419 638.086 111.702C648.128 94.9853 642.717 73.2978 626.002 63.2617Z" fill="#514F54"/>
</g>
<g style="mix-blend-mode:multiply" opacity="0.3">
<path d="M625.207 63.1425C608.491 53.1064 586.801 58.5223 576.759 75.2391C566.718 91.956 572.128 113.644 588.843 123.68C605.559 133.716 627.25 128.3 637.291 111.583C647.333 94.8662 641.922 73.1786 625.207 63.1425Z" fill="#49484D"/>
</g>
<g style="mix-blend-mode:multiply" opacity="0.3">
<path d="M624.419 63.0312C607.703 52.9951 586.013 58.411 575.971 75.1278C565.929 91.8447 571.34 113.532 588.055 123.568C604.771 133.604 626.462 128.189 636.503 111.472C646.545 94.7549 641.134 73.0673 624.419 63.0312Z" fill="#424146"/>
</g>
<g style="mix-blend-mode:multiply" opacity="0.3">
<path d="M623.63 62.9033C606.914 52.8672 585.224 58.2831 575.182 74.9999C565.14 91.7167 570.551 113.404 587.266 123.44C603.982 133.476 625.673 128.061 635.714 111.344C645.756 94.6269 640.345 72.9394 623.63 62.9033Z" fill="#3B3A3F"/>
</g>
<g style="mix-blend-mode:multiply" opacity="0.3">
<path d="M622.842 62.792C606.126 52.7559 584.435 58.1717 574.394 74.8886C564.352 91.6054 569.763 113.293 586.478 123.329C603.194 133.365 624.884 127.949 634.926 111.232C644.968 94.5156 639.557 72.8281 622.842 62.792Z" fill="#343339"/>
</g>
<g style="mix-blend-mode:multiply" opacity="0.3">
<path d="M622.048 62.6728C605.332 52.6368 583.641 58.0526 573.6 74.7694C563.558 91.4863 568.969 113.174 585.684 123.21C602.4 133.246 624.09 127.83 634.132 111.113C644.174 94.3965 638.763 72.7089 622.048 62.6728Z" fill="#2E2D33"/>
</g>
<g style="mix-blend-mode:multiply" opacity="0.3">
<path d="M621.27 62.5527C604.554 52.5166 582.863 57.9324 572.822 74.6492C562.78 91.3661 568.19 113.054 584.906 123.09C601.621 133.126 623.312 127.71 633.354 110.993C643.395 94.2763 637.985 72.5888 621.27 62.5527Z" fill="#28272D"/>
</g>
<g style="mix-blend-mode:multiply" opacity="0.3">
<path d="M620.481 62.4414C603.766 52.4053 582.075 57.8211 572.034 74.5379C561.992 91.2548 567.402 112.942 584.118 122.978C600.833 133.015 622.524 127.599 632.566 110.882C642.607 94.165 637.197 72.4775 620.481 62.4414Z" fill="#222227"/>
</g>
<g style="mix-blend-mode:multiply" opacity="0.3">
<path d="M619.687 62.3213C602.972 52.2852 581.281 57.701 571.24 74.4178C561.198 91.1347 566.608 112.822 583.324 122.858C600.039 132.894 621.73 127.479 631.772 110.762C641.813 94.0449 636.403 72.3573 619.687 62.3213Z" fill="#1C1C21"/>
</g>
<g style="mix-blend-mode:multiply" opacity="0.3">
<path d="M618.898 62.1933C602.183 52.1573 580.492 57.5731 570.45 74.2899C560.409 91.0068 565.819 112.694 582.535 122.73C599.25 132.766 620.941 127.351 630.983 110.634C641.024 93.917 635.614 72.2294 618.898 62.1933Z" fill="#16171B"/>
</g>
<g style="mix-blend-mode:multiply" opacity="0.3">
<path d="M618.11 62.082C601.395 52.0459 579.704 57.4617 569.662 74.1786C559.621 90.8954 565.031 112.583 581.747 122.619C598.462 132.655 620.153 127.239 630.195 110.522C640.236 93.8056 634.826 72.1181 618.11 62.082Z" fill="#101115"/>
</g>
<g style="mix-blend-mode:multiply" opacity="0.3">
<path d="M617.315 61.9629C600.6 51.9268 578.909 57.3426 568.867 74.0594C558.826 90.7763 564.236 112.464 580.952 122.5C597.667 132.536 619.358 127.12 629.4 110.403C639.441 93.6865 634.031 71.999 617.315 61.9629Z" fill="#0A0B0E"/>
</g>
<g style="mix-blend-mode:multiply" opacity="0.3">
<path d="M616.536 61.8564C599.821 51.8204 578.13 57.2362 568.088 73.953C558.047 90.6699 563.457 112.357 580.172 122.393C596.888 132.43 618.579 127.014 628.62 110.297C638.662 93.5801 633.252 71.8925 616.536 61.8564Z" fill="#050507"/>
</g>
<g style="mix-blend-mode:multiply" opacity="0.3">
<path d="M615.742 61.7373C599.027 51.7012 577.336 57.117 567.294 73.8339C557.253 90.5507 562.663 112.238 579.378 122.274C596.094 132.31 617.785 126.895 627.826 110.178C637.868 93.4609 632.458 71.7734 615.742 61.7373Z" fill="#010101"/>
</g>
</g>
<path d="M632.749 139.542C631.792 140.251 630.842 140.954 629.84 141.57L632.983 146.392C634.062 145.694 635.127 144.943 636.174 144.167C645.007 137.669 652.043 129.03 656.618 119.065C661.194 109.1 663.159 98.1348 662.329 87.2021L656.583 87.6236C657.338 97.587 655.547 107.579 651.378 116.662C647.208 125.744 640.798 133.617 632.749 139.542Z" fill="url(#paint18_linear_126_51)"/>
<path d="M562.365 44.4682C570.879 38.1613 580.929 34.2524 591.466 33.1489C602.003 32.0454 612.643 33.7876 622.277 38.1939L624.678 32.9491C614.116 28.1174 602.452 26.2049 590.899 27.4109C579.347 28.6169 568.327 32.8972 558.989 39.8063L562.365 44.4682Z" fill="url(#paint19_linear_126_51)"/>
<path d="M532.646 92.9026C532.812 104.515 536.086 115.87 542.126 125.788C548.167 135.705 556.754 143.824 566.995 149.299L569.704 144.216C560.371 139.226 552.546 131.828 547.042 122.79C541.538 113.752 538.556 103.405 538.405 92.8226L532.646 92.9026Z" fill="url(#paint20_linear_126_51)"/>
<path d="M557.005 111.291L551.804 113.771C554.885 120.219 559.291 125.943 564.735 130.572C570.178 135.201 576.537 138.63 583.396 140.636C590.255 142.642 597.46 143.178 604.541 142.212C611.623 141.245 618.421 138.796 624.493 135.025L621.439 130.137C616.055 133.482 610.025 135.655 603.744 136.511C597.464 137.368 591.073 136.89 584.99 135.11C578.908 133.329 573.269 130.284 568.444 126.176C563.619 122.067 559.715 116.987 556.987 111.266L557.005 111.291Z" fill="url(#paint21_linear_126_51)"/>
<path d="M565.936 60.0032C574.418 51.6076 585.883 46.918 597.816 46.963C609.749 47.008 621.176 51.7839 629.59 60.2432C630.774 61.4496 631.896 62.7157 632.951 64.0365L637.458 60.4486C633.021 54.8499 627.453 50.2503 621.117 46.95C614.78 43.6496 607.819 41.7228 600.687 41.2953C593.555 40.8679 586.412 41.9494 579.726 44.4692C573.039 46.989 566.959 50.8904 561.882 55.9189L565.936 60.0032Z" fill="url(#paint22_linear_126_51)"/>
<path d="M615.742 61.7373C599.027 51.7012 577.336 57.117 567.294 73.8338C557.253 90.5507 562.663 112.238 579.378 122.274C596.094 132.31 617.785 126.895 627.826 110.178C637.868 93.4609 632.458 71.7734 615.742 61.7373Z" fill="url(#paint23_linear_126_51)"/>
<path d="M628.83 68.8591C633.407 75.042 636.047 82.4437 636.417 90.1283C636.787 97.8129 634.87 105.435 630.908 112.031C626.945 118.628 621.116 123.901 614.158 127.186C607.199 130.47 599.423 131.618 591.813 130.483C584.203 129.349 577.101 125.984 571.405 120.813C565.709 115.642 561.675 108.898 559.813 101.434C557.951 93.9691 558.345 86.1197 560.944 78.8777C563.543 71.6357 568.232 65.3264 574.416 60.7478C582.713 54.6187 593.102 52.0304 603.304 53.5511C613.505 55.0718 622.685 60.5771 628.83 68.8591ZM572.077 110.874C575.809 115.911 580.95 119.728 586.852 121.842C592.754 123.957 599.15 124.274 605.233 122.754C611.316 121.233 616.812 117.944 621.026 113.301C625.24 108.658 627.983 102.87 628.908 96.6697C629.834 90.469 628.899 84.1337 626.224 78.4649C623.548 72.7961 619.251 68.0483 613.877 64.8219C608.502 61.5955 602.291 60.0354 596.028 60.3387C589.766 60.642 583.734 62.7953 578.694 66.5261C571.941 71.5354 567.452 79.019 566.211 87.3338C564.97 95.6486 567.08 104.115 572.077 110.874Z" fill="white"/>
<path d="M589.485 88.472C588.957 89.496 588.693 90.848 588.693 92.528C588.693 94.208 588.957 95.56 589.485 96.584C590.013 97.608 590.837 98.12 591.957 98.12C593.077 98.12 593.901 97.608 594.429 96.584C594.957 95.56 595.221 94.208 595.221 92.528C595.221 90.848 594.957 89.496 594.429 88.472C593.901 87.448 593.077 86.936 591.957 86.936C590.837 86.936 590.013 87.448 589.485 88.472ZM591.957 101.192C589.637 101.192 587.901 100.408 586.749 98.84C585.597 97.256 585.021 95.152 585.021 92.528C585.021 89.888 585.597 87.784 586.749 86.216C587.901 84.632 589.637 83.84 591.957 83.84C594.277 83.84 596.013 84.632 597.165 86.216C598.317 87.784 598.893 89.888 598.893 92.528C598.893 95.152 598.317 97.256 597.165 98.84C596.013 100.408 594.277 101.192 591.957 101.192ZM602.047 87.416V84.224H612.319V86.816L608.887 90.728C610.231 90.952 611.271 91.52 612.007 92.432C612.743 93.328 613.111 94.368 613.111 95.552C613.111 97.312 612.511 98.696 611.311 99.704C610.127 100.696 608.607 101.192 606.751 101.192C604.895 101.192 603.015 100.536 601.111 99.224L602.647 96.248C604.231 97.368 605.647 97.928 606.895 97.928C607.647 97.928 608.263 97.744 608.743 97.376C609.239 97.008 609.487 96.48 609.487 95.792C609.487 95.088 609.207 94.536 608.647 94.136C608.087 93.72 607.311 93.512 606.319 93.512C605.791 93.512 605.047 93.664 604.087 93.968V91.208L607.303 87.416H602.047Z" fill="white"/>
</g>
<defs>
<linearGradient id="paint0_linear_126_51" x1="145.917" y1="111.561" x2="22.9695" y2="93.1971" gradientUnits="userSpaceOnUse">
<stop stop-color="#2C4698"/>
<stop offset="1" stop-color="#2779BE"/>
</linearGradient>
<linearGradient id="paint1_linear_126_51" x1="156.335" y1="41.8099" x2="33.3878" y2="23.4463" gradientUnits="userSpaceOnUse">
<stop stop-color="#1E3A6D"/>
<stop offset="1" stop-color="#2779BE"/>
</linearGradient>
<linearGradient id="paint2_linear_126_51" x1="143.235" y1="129.565" x2="20.2812" y2="111.193" gradientUnits="userSpaceOnUse">
<stop stop-color="#1E3A6D"/>
<stop offset="1" stop-color="#2779BE"/>
</linearGradient>
<linearGradient id="paint3_linear_126_51" x1="142.847" y1="132.113" x2="19.9" y2="113.749" gradientUnits="userSpaceOnUse">
<stop stop-color="#1E3A6D"/>
<stop offset="1" stop-color="#2779BE"/>
</linearGradient>
<linearGradient id="paint4_linear_126_51" x1="154.198" y1="56.1186" x2="31.2504" y2="37.7549" gradientUnits="userSpaceOnUse">
<stop stop-color="#1E3A6D"/>
<stop offset="1" stop-color="#2779BE"/>
</linearGradient>
<linearGradient id="paint5_linear_126_51" x1="150.166" y1="94.8547" x2="23.5602" y2="75.9447" gradientUnits="userSpaceOnUse">
<stop stop-color="#2C4698"/>
<stop offset="1" stop-color="#2779BE"/>
</linearGradient>
<linearGradient id="paint6_linear_126_51" x1="905.13" y1="117.561" x2="782.182" y2="99.1971" gradientUnits="userSpaceOnUse">
<stop stop-color="#2C4698"/>
<stop offset="1" stop-color="#2779BE"/>
</linearGradient>
<linearGradient id="paint7_linear_126_51" x1="915.548" y1="47.8099" x2="792.601" y2="29.4463" gradientUnits="userSpaceOnUse">
<stop stop-color="#1E3A6D"/>
<stop offset="1" stop-color="#2779BE"/>
</linearGradient>
<linearGradient id="paint8_linear_126_51" x1="902.447" y1="135.565" x2="779.494" y2="117.193" gradientUnits="userSpaceOnUse">
<stop stop-color="#1E3A6D"/>
<stop offset="1" stop-color="#2779BE"/>
</linearGradient>
<linearGradient id="paint9_linear_126_51" x1="902.06" y1="138.113" x2="779.113" y2="119.749" gradientUnits="userSpaceOnUse">
<stop stop-color="#1E3A6D"/>
<stop offset="1" stop-color="#2779BE"/>
</linearGradient>
<linearGradient id="paint10_linear_126_51" x1="913.411" y1="62.1186" x2="790.463" y2="43.7549" gradientUnits="userSpaceOnUse">
<stop stop-color="#1E3A6D"/>
<stop offset="1" stop-color="#2779BE"/>
</linearGradient>
<linearGradient id="paint11_linear_126_51" x1="909.379" y1="100.855" x2="782.773" y2="81.9447" gradientUnits="userSpaceOnUse">
<stop stop-color="#2C4698"/>
<stop offset="1" stop-color="#2779BE"/>
</linearGradient>
<linearGradient id="paint12_linear_126_51" x1="400.682" y1="114.561" x2="277.735" y2="96.1971" gradientUnits="userSpaceOnUse">
<stop stop-color="#2C4698"/>
<stop offset="1" stop-color="#2779BE"/>
</linearGradient>
<linearGradient id="paint13_linear_126_51" x1="411.101" y1="44.8099" x2="288.153" y2="26.4463" gradientUnits="userSpaceOnUse">
<stop stop-color="#1E3A6D"/>
<stop offset="1" stop-color="#2779BE"/>
</linearGradient>
<linearGradient id="paint14_linear_126_51" x1="398" y1="132.565" x2="275.047" y2="114.193" gradientUnits="userSpaceOnUse">
<stop stop-color="#1E3A6D"/>
<stop offset="1" stop-color="#2779BE"/>
</linearGradient>
<linearGradient id="paint15_linear_126_51" x1="397.613" y1="135.113" x2="274.666" y2="116.749" gradientUnits="userSpaceOnUse">
<stop stop-color="#1E3A6D"/>
<stop offset="1" stop-color="#2779BE"/>
</linearGradient>
<linearGradient id="paint16_linear_126_51" x1="408.963" y1="59.1186" x2="286.016" y2="40.7549" gradientUnits="userSpaceOnUse">
<stop stop-color="#1E3A6D"/>
<stop offset="1" stop-color="#2779BE"/>
</linearGradient>
<linearGradient id="paint17_linear_126_51" x1="404.932" y1="97.8547" x2="278.326" y2="78.9447" gradientUnits="userSpaceOnUse">
<stop stop-color="#2C4698"/>
<stop offset="1" stop-color="#2779BE"/>
</linearGradient>
<linearGradient id="paint18_linear_126_51" x1="652.682" y1="117.561" x2="529.735" y2="99.1971" gradientUnits="userSpaceOnUse">
<stop stop-color="#2C4698"/>
<stop offset="1" stop-color="#2779BE"/>
</linearGradient>
<linearGradient id="paint19_linear_126_51" x1="663.101" y1="47.8099" x2="540.153" y2="29.4463" gradientUnits="userSpaceOnUse">
<stop stop-color="#1E3A6D"/>
<stop offset="1" stop-color="#2779BE"/>
</linearGradient>
<linearGradient id="paint20_linear_126_51" x1="650" y1="135.565" x2="527.047" y2="117.193" gradientUnits="userSpaceOnUse">
<stop stop-color="#1E3A6D"/>
<stop offset="1" stop-color="#2779BE"/>
</linearGradient>
<linearGradient id="paint21_linear_126_51" x1="649.613" y1="138.113" x2="526.666" y2="119.749" gradientUnits="userSpaceOnUse">
<stop stop-color="#1E3A6D"/>
<stop offset="1" stop-color="#2779BE"/>
</linearGradient>
<linearGradient id="paint22_linear_126_51" x1="660.963" y1="62.1186" x2="538.016" y2="43.7549" gradientUnits="userSpaceOnUse">
<stop stop-color="#1E3A6D"/>
<stop offset="1" stop-color="#2779BE"/>
</linearGradient>
<linearGradient id="paint23_linear_126_51" x1="656.932" y1="100.855" x2="530.326" y2="81.9447" gradientUnits="userSpaceOnUse">
<stop stop-color="#2C4698"/>
<stop offset="1" stop-color="#2779BE"/>
</linearGradient>
<clipPath id="clip0_126_51">
<rect width="129.803" height="121.791" fill="white" transform="translate(77.2344 176.792) rotate(-126.513)"/>
</clipPath>
<clipPath id="clip1_126_51">
<rect width="129.803" height="121.791" fill="white" transform="translate(836.447 182.792) rotate(-126.513)"/>
</clipPath>
<clipPath id="clip2_126_51">
<rect width="129.803" height="121.791" fill="white" transform="translate(332 179.792) rotate(-126.513)"/>
</clipPath>
<clipPath id="clip3_126_51">
<rect width="129.803" height="121.791" fill="white" transform="translate(584 182.792) rotate(-126.513)"/>
</clipPath>
</defs>
</svg>
