<svg xmlns="http://www.w3.org/2000/svg" xmlns:xlink="http://www.w3.org/1999/xlink" viewBox="0 0 128.55 120.58"><defs><style>.cls-1{isolation:isolate;}.cls-2{opacity:0.3;mix-blend-mode:multiply;}.cls-3{fill:#fff;}.cls-4{fill:#f3f3f4;}.cls-5{fill:#e8e6e8;}.cls-6{fill:#dcdbdd;}.cls-7{fill:#d1cfd2;}.cls-8{fill:#c6c4c7;}.cls-9{fill:#bcb9bd;}.cls-10{fill:#b1afb3;}.cls-11{fill:#a7a5a9;}.cls-12{fill:#9d9b9f;}.cls-13{fill:#949196;}.cls-14{fill:#8b888d;}.cls-15{fill:#817f84;}.cls-16{fill:#79767b;}.cls-17{fill:#706d73;}.cls-18{fill:#68656b;}.cls-19{fill:#605d63;}.cls-20{fill:#58565b;}.cls-21{fill:#514f54;}.cls-22{fill:#49484d;}.cls-23{fill:#424146;}.cls-24{fill:#3b3a3f;}.cls-25{fill:#343339;}.cls-26{fill:#2e2d33;}.cls-27{fill:#28272d;}.cls-28{fill:#222227;}.cls-29{fill:#1c1c21;}.cls-30{fill:#16171b;}.cls-31{fill:#101115;}.cls-32{fill:#0a0b0e;}.cls-33{fill:#050507;}.cls-34{fill:#010101;}.cls-35{fill:url(#linear-gradient);}.cls-36{fill:url(#linear-gradient-2);}.cls-37{fill:url(#linear-gradient-3);}.cls-38{fill:url(#linear-gradient-4);}.cls-39{fill:url(#linear-gradient-5);}.cls-40{fill:url(#linear-gradient-6);}</style><linearGradient id="linear-gradient" x1="277.36" y1="422.44" x2="364.4" y2="335.4" gradientUnits="userSpaceOnUse"><stop offset="0" stop-color="#2c4698"/><stop offset="1" stop-color="#2779be"/></linearGradient><linearGradient id="linear-gradient-2" x1="326.74" y1="471.82" x2="413.78" y2="384.78" gradientUnits="userSpaceOnUse"><stop offset="0" stop-color="#1e3a6d"/><stop offset="1" stop-color="#2779be"/></linearGradient><linearGradient id="linear-gradient-3" x1="264.61" y1="409.7" x2="351.66" y2="322.66" xlink:href="#linear-gradient-2"/><linearGradient id="linear-gradient-4" x1="262.81" y1="407.89" x2="349.85" y2="320.85" xlink:href="#linear-gradient-2"/><linearGradient id="linear-gradient-5" x1="316.61" y1="461.69" x2="403.65" y2="374.65" xlink:href="#linear-gradient-2"/><linearGradient id="linear-gradient-6" x1="288.15" y1="435.66" x2="377.78" y2="346.03" gradientTransform="translate(175.77 -96.39) rotate(22.5)" xlink:href="#linear-gradient"/></defs><g class="cls-1"><g id="Layer_1" data-name="Layer 1"><g class="cls-2"><circle class="cls-3" cx="46.97" cy="81.59" r="34.96"/><circle class="cls-4" cx="47.53" cy="81.03" r="34.96"/><circle class="cls-5" cx="48.08" cy="80.47" r="34.96"/><circle class="cls-6" cx="48.64" cy="79.91" r="34.96"/><circle class="cls-7" cx="315.11" cy="408.71" r="34.96" transform="translate(-398.33 -177.66) rotate(-22.5)"/><circle class="cls-8" cx="315.66" cy="408.15" r="34.96" transform="translate(-398.07 -177.49) rotate(-22.5)"/><circle class="cls-9" cx="316.22" cy="407.59" r="34.96" transform="translate(-397.81 -177.32) rotate(-22.5)"/><circle class="cls-10" cx="316.78" cy="407.03" r="34.96" transform="translate(-397.56 -177.14) rotate(-22.5)"/><circle class="cls-11" cx="317.34" cy="406.48" r="34.96" transform="translate(-397.3 -176.97) rotate(-22.5)"/><circle class="cls-12" cx="317.9" cy="405.92" r="34.96" transform="translate(-397.05 -176.8) rotate(-22.5)"/><circle class="cls-13" cx="318.46" cy="405.36" r="34.96" transform="translate(-396.79 -176.63) rotate(-22.5)"/><circle class="cls-14" cx="319.02" cy="404.8" r="34.96" transform="translate(-396.53 -176.46) rotate(-22.5)"/><circle class="cls-15" cx="319.57" cy="404.24" r="34.96" transform="translate(-396.28 -176.29) rotate(-22.5)"/><circle class="cls-16" cx="320.13" cy="403.68" r="34.96" transform="translate(-396.02 -176.12) rotate(-22.5)"/><circle class="cls-17" cx="320.69" cy="403.13" r="34.96" transform="translate(-395.76 -175.95) rotate(-22.5)"/><circle class="cls-18" cx="321.25" cy="402.57" r="34.96" transform="translate(-395.51 -175.78) rotate(-22.5)"/><circle class="cls-19" cx="321.81" cy="402.01" r="34.96" transform="translate(-395.25 -175.6) rotate(-22.5)"/><circle class="cls-20" cx="322.37" cy="401.45" r="34.96" transform="translate(-395 -175.43) rotate(-22.5)"/><circle class="cls-21" cx="322.92" cy="400.89" r="34.96" transform="translate(-394.74 -175.26) rotate(-22.5)"/><circle class="cls-22" cx="323.48" cy="400.33" r="34.96" transform="translate(-394.48 -175.09) rotate(-22.5)"/><circle class="cls-23" cx="324.04" cy="399.77" r="34.96" transform="translate(-394.23 -174.92) rotate(-22.5)"/><circle class="cls-24" cx="324.6" cy="399.22" r="34.96" transform="translate(-393.97 -174.75) rotate(-22.5)"/><circle class="cls-25" cx="325.16" cy="398.66" r="34.96" transform="translate(-393.72 -174.58) rotate(-22.5)"/><circle class="cls-26" cx="325.72" cy="398.1" r="34.96" transform="translate(-393.46 -174.41) rotate(-22.5)"/><circle class="cls-27" cx="326.27" cy="397.54" r="34.96" transform="translate(-393.2 -174.23) rotate(-22.5)"/><circle class="cls-28" cx="326.83" cy="396.98" r="34.96" transform="translate(-392.95 -174.06) rotate(-22.5)"/><circle class="cls-29" cx="327.39" cy="396.42" r="34.96" transform="translate(-392.69 -173.89) rotate(-22.5)"/><circle class="cls-30" cx="327.95" cy="395.87" r="34.96" transform="translate(-392.43 -173.72) rotate(-22.5)"/><circle class="cls-31" cx="328.51" cy="395.31" r="34.96" transform="translate(-392.18 -173.55) rotate(-22.5)"/><circle class="cls-32" cx="329.07" cy="394.75" r="34.96" transform="translate(-391.92 -173.38) rotate(-22.5)"/><circle class="cls-33" cx="329.62" cy="394.19" r="34.96" transform="translate(-391.67 -173.21) rotate(-22.5)"/><circle class="cls-34" cx="330.18" cy="393.63" r="34.96" transform="translate(-391.41 -173.04) rotate(-22.5)"/></g><path class="cls-35" d="M271.61,393.63c0-1.18,0-2.35.1-3.51l-5.69-.34c-.08,1.27-.11,2.56-.11,3.85A64,64,0,0,0,295.84,448l3.05-4.82A58.35,58.35,0,0,1,271.61,393.63Z" transform="translate(-265.91 -329.36)"/><path class="cls-36" d="M388.76,393.63A58.66,58.66,0,0,1,358.45,445l2.76,5a64.34,64.34,0,0,0,33.25-56.31Z" transform="translate(-265.91 -329.36)"/><path class="cls-37" d="M367.72,341.45a64.39,64.39,0,0,0-65.13-5.89l2.45,5.15a58.67,58.67,0,0,1,59.35,5.37Z" transform="translate(-265.91 -329.36)"/><path class="cls-38" d="M338.73,350l1.09-5.6a50.34,50.34,0,0,0-59.75,45.32l5.69.45a44.62,44.62,0,0,1,53-40.17Z" transform="translate(-265.91 -329.36)"/><path class="cls-39" d="M374.29,387.32a44.62,44.62,0,0,1-37.7,50.51,49.17,49.17,0,0,1-5,.44l.2,5.7a50.31,50.31,0,0,0,48.14-57.47Z" transform="translate(-265.91 -329.36)"/><circle class="cls-40" cx="330.18" cy="393.63" r="34.96" transform="translate(-391.41 -173.04) rotate(-22.5)"/><path class="cls-3" d="M330.18,432.15a38.52,38.52,0,1,1,38.52-38.52A38.56,38.56,0,0,1,330.18,432.15Zm0-69.91a31.39,31.39,0,1,0,31.4,31.39A31.42,31.42,0,0,0,330.18,362.24Z" transform="translate(-265.91 -329.36)"/><path class="cls-3" d="M319.45,406.85c-3.46,0-6-1.17-7.76-3.52s-2.57-5.48-2.57-9.4.86-7.05,2.57-9.39S316,381,319.45,381s6,1.17,7.75,3.52,2.57,5.48,2.57,9.39-.85,7.06-2.57,9.4S322.9,406.85,319.45,406.85Zm-3.68-18.94a16,16,0,0,0,0,12.08,4.1,4.1,0,0,0,7.36,0,16,16,0,0,0,0-12.08,4.11,4.11,0,0,0-7.36,0Z" transform="translate(-265.91 -329.36)"/><path class="cls-3" d="M342.9,391.33a4.48,4.48,0,0,0,1-2.59,2.89,2.89,0,0,0-.82-2.1,2.86,2.86,0,0,0-2.11-.83q-2.35,0-4.47,3.35L332,386.52a13.93,13.93,0,0,1,3.84-4.11,9.39,9.39,0,0,1,5.32-1.39,8.55,8.55,0,0,1,5.68,2.05,6.9,6.9,0,0,1,2.45,5.59,7.56,7.56,0,0,1-1,3.7,23.94,23.94,0,0,1-3.63,4.52l-4.5,4.68H350v5H332.42v-4.14l7.32-7.5A31.66,31.66,0,0,0,342.9,391.33Z" transform="translate(-265.91 -329.36)"/></g></g></svg>