<svg width="25" height="25" viewBox="0 0 25 25" fill="none" xmlns="http://www.w3.org/2000/svg">
<path d="M3.40909 4.16667C2.4677 4.16667 1.70455 4.91286 1.70455 5.83333V19.1667C1.70455 20.0871 2.4677 20.8333 3.40909 20.8333H21.5909C22.5323 20.8333 23.2955 20.0871 23.2955 19.1667V5.83333C23.2955 4.91286 22.5323 4.16667 21.5909 4.16667H3.40909ZM21.5909 2.5C23.4737 2.5 25 3.99238 25 5.83333V19.1667C25 21.0076 23.4737 22.5 21.5909 22.5H3.40909C1.5263 22.5 0 21.0076 0 19.1667V5.83333C0 3.99238 1.5263 2.5 3.40909 2.5H21.5909ZM10.2083 16.4167H5C4.5293 16.4167 4.14773 16.7898 4.14773 17.25C4.14773 17.7102 4.5293 18.0833 5 18.0833H10.2083C10.679 18.0833 11.0606 17.7102 11.0606 17.25C11.0606 16.7898 10.679 16.4167 10.2083 16.4167ZM17.1875 6.66667C15.282 6.66667 13.7311 8.15559 13.7311 10C13.7311 10.9663 14.1568 11.835 14.8361 12.4432C13.5489 13.2035 12.6894 14.5719 12.6894 16.1363C12.6894 16.5828 12.7598 17.0211 12.8966 17.4395C13.0399 17.8779 13.5196 18.1196 13.9679 17.9795C14.4163 17.8393 14.6635 17.3703 14.5202 16.932C14.4368 16.6771 14.3939 16.4099 14.3939 16.1363C14.3939 14.667 15.6412 13.4696 17.1875 13.4696C18.7338 13.4696 19.9811 14.667 19.9811 16.1363C19.9811 16.3519 19.9544 16.5635 19.9023 16.7685C19.7887 17.2151 20.0668 17.6672 20.5236 17.7783C20.9804 17.8894 21.4428 17.6174 21.5564 17.1708C21.642 16.8346 21.6856 16.4878 21.6856 16.1363C21.6856 14.5719 20.8261 13.2035 19.5392 12.4417C20.2182 11.835 20.6439 10.9663 20.6439 10C20.6439 8.15559 19.093 6.66667 17.1875 6.66667ZM10.2083 12.0417H5C4.5293 12.0417 4.14773 12.4148 4.14773 12.875C4.14773 13.3352 4.5293 13.7083 5 13.7083H10.2083C10.679 13.7083 11.0606 13.3352 11.0606 12.875C11.0606 12.4148 10.679 12.0417 10.2083 12.0417ZM17.1875 8.33333C18.1585 8.33333 18.9394 9.08298 18.9394 10C18.9394 10.917 18.1585 11.6667 17.1875 11.6667C16.2165 11.6667 15.4356 10.917 15.4356 10C15.4356 9.08298 16.2165 8.33333 17.1875 8.33333ZM10.2083 7.66667H5C4.5293 7.66667 4.14773 8.03976 4.14773 8.5C4.14773 8.96024 4.5293 9.33333 5 9.33333H10.2083C10.679 9.33333 11.0606 8.96024 11.0606 8.5C11.0606 8.03976 10.679 7.66667 10.2083 7.66667Z" fill="#3E45FF"/>
</svg>
