<svg width="28" height="28" viewBox="0 0 28 28" fill="none" xmlns="http://www.w3.org/2000/svg">
<g clip-path="url(#clip0_183_231)">
<path d="M27.3722 14H26.8815C26.8815 6.89709 21.1029 1.11853 14 1.11853C13.3715 1.11853 12.8619 1.62811 12.8619 2.25668C12.8619 2.88526 13.3715 3.39484 14 3.39484C19.8477 3.39484 24.6052 8.15228 24.6052 14H24.1146C23.632 14 23.3303 14.5224 23.5716 14.9404L25.2004 17.7616C25.4417 18.1795 26.045 18.1795 26.2863 17.7616L27.9151 14.9404C28.1564 14.5225 27.8548 14 27.3722 14Z" fill="#0A13DF"/>
<path d="M14 24.6051C8.15233 24.6051 3.39489 19.8477 3.39489 14H3.88549C4.36805 14 4.66977 13.4775 4.42837 13.0595L2.79956 10.2383C2.55828 9.82036 1.95496 9.82036 1.71368 10.2383L0.0849197 13.0596C-0.156362 13.4775 0.14524 14 0.627804 14H1.11841C1.11841 21.1029 6.89697 26.8815 13.9999 26.8815C14.6284 26.8815 15.138 26.3719 15.138 25.7433C15.1382 25.1147 14.6285 24.6051 14 24.6051Z" fill="#0A13DF"/>
<path d="M13.8446 12.8642V11.8637C13.2318 11.9862 13.0226 12.518 13.8446 12.8642Z" fill="#0A13DF"/>
<path d="M14.3154 14.4196V15.5464C14.6013 15.4791 14.8283 15.3194 14.8283 15.0167C14.8284 14.7392 14.6182 14.5626 14.3154 14.4196Z" fill="#0A13DF"/>
<path d="M14 5.71273C9.43038 5.71273 5.71277 9.43039 5.71277 14C5.71277 18.5696 9.43038 22.2872 14 22.2872C18.5697 22.2872 22.2873 18.5696 22.2873 14C22.2873 9.43039 18.5696 5.71273 14 5.71273ZM14.3996 16.715V16.9588C14.3996 17.0766 14.2398 17.1859 14.08 17.1859C13.895 17.1859 13.7606 17.0766 13.7606 16.9588V16.7487C12.7517 16.715 11.9276 16.1937 11.9276 15.6556C11.9276 15.3697 12.1799 14.9494 12.4994 14.9494C12.8525 14.9494 13.1384 15.4454 13.7607 15.5548V14.1927C12.9871 13.8984 12.0791 13.5369 12.0791 12.4606C12.0791 11.3928 12.8694 10.8799 13.7607 10.7538V10.5184C13.7607 10.4007 13.8952 10.2914 14.0801 10.2914C14.2398 10.2914 14.3996 10.4007 14.3996 10.5184V10.7287C14.9209 10.7455 15.9047 10.88 15.9047 11.4601C15.9047 11.6871 15.7534 12.1496 15.3834 12.1496C15.1059 12.1496 14.9462 11.8805 14.3996 11.8384V13.066C15.1648 13.3519 16.0559 13.7471 16.0559 14.8821C16.0559 15.9247 15.3833 16.5553 14.3996 16.715Z" fill="#0A13DF"/>
</g>
<defs>
<clipPath id="clip0_183_231">
<rect width="28" height="28" fill="white"/>
</clipPath>
</defs>
</svg>
