<svg width="27" height="27" viewBox="0 0 27 27" fill="none" xmlns="http://www.w3.org/2000/svg">
<path d="M13.7044 1.92856H13.1104C12.793 1.92856 12.5357 1.67122 12.5357 1.35388V1.33456C12.5357 0.597485 11.9382 0 11.2011 0H11.1703C10.4332 0 9.83574 0.597485 9.83574 1.33456V1.35388C9.83574 1.67126 9.5784 1.9286 9.26107 1.9286H8.66707C8.03437 1.9286 7.52151 2.44147 7.52151 3.07416V3.09732C7.52151 3.73001 8.03437 4.24288 8.66707 4.24288H13.7045C14.3372 4.24288 14.8501 3.72997 14.8501 3.09732V3.07412C14.85 2.44147 14.3372 1.92856 13.7044 1.92856ZM11.1857 1.92856C10.8662 1.92856 10.6071 1.6695 10.6071 1.35C10.6071 1.03046 10.8662 0.771397 11.1857 0.771397C11.5052 0.771397 11.7643 1.03046 11.7643 1.35C11.7643 1.66954 11.5052 1.92856 11.1857 1.92856ZM13.7615 24.3H4.04998C3.19789 24.3 2.50714 23.6092 2.50714 22.7572V4.24284C2.50714 3.39075 3.19789 2.7 3.66426 2.7H6.79017C6.7641 2.82812 6.75002 2.96091 6.75002 3.09741C6.75002 4.15438 7.60996 5.01432 8.66711 5.01432H13.7044C14.7616 5.01432 15.6214 4.15438 15.6214 3.07407C15.6214 2.946 15.6077 2.82115 15.5837 2.7H17.9357C19.1736 2.7 19.8643 3.39075 19.8643 4.24284V15.8338C19.7361 15.8258 19.6088 15.8143 19.4786 15.8143C18.9451 15.8143 18.4299 15.8895 17.9357 16.0174V6.94284H4.4357V22.3714H13.3266C13.3689 23.0494 13.517 23.6983 13.7615 24.3ZM19.4786 16.9714C16.7093 16.9714 14.4643 19.2165 14.4643 21.9857C14.4643 24.755 16.7092 27 19.4786 27C22.2479 27 24.4928 24.755 24.4928 21.9857C24.4928 19.2165 22.2479 16.9714 19.4786 16.9714ZM22.7551 20.9555L19.6693 24.4269C19.5174 24.598 19.3056 24.6857 19.0925 24.6857C18.9231 24.6857 18.7529 24.6303 18.6109 24.5166L16.6823 22.9737C16.3497 22.7078 16.2956 22.2222 16.562 21.8896C16.8279 21.5567 17.3136 21.5028 17.6462 21.7691L19.0027 22.8544L21.602 19.9302C21.8847 19.6119 22.3725 19.5829 22.691 19.8662C23.0095 20.1495 23.0381 20.6369 22.7551 20.9555ZM16.0071 13.5H5.97858C5.76554 13.5 5.59286 13.3273 5.59286 13.1143V12.7286C5.59286 12.5155 5.76558 12.3428 5.97858 12.3428H16.0071C16.2201 12.3428 16.3929 12.5156 16.3929 12.7286V13.1143C16.3928 13.3273 16.2201 13.5 16.0071 13.5ZM16.0071 10.0286H5.97858C5.76554 10.0286 5.59286 9.85584 5.59286 9.64284V9.25712C5.59286 9.04407 5.76558 8.8714 5.97858 8.8714H16.0071C16.2201 8.8714 16.3929 9.04412 16.3929 9.25712V9.64284C16.3928 9.85588 16.2201 10.0286 16.0071 10.0286ZM14.0785 16.5857H5.97854C5.76549 16.5857 5.59282 16.413 5.59282 16.2V15.8143C5.59282 15.6012 5.76554 15.4286 5.97854 15.4286H14.0785C14.2916 15.4286 14.4643 15.6012 14.4643 15.8143V16.2C14.4642 16.413 14.2916 16.5857 14.0785 16.5857ZM13.3071 20.0572H5.97858C5.76554 20.0572 5.59286 19.8844 5.59286 19.6714V19.2857C5.59286 19.0727 5.76558 18.9 5.97858 18.9H13.3072C13.5202 18.9 13.6929 19.0727 13.6929 19.2857V19.6714C13.6929 19.8844 13.5202 20.0572 13.3071 20.0572Z" fill="#3E45FF"/>
</svg>
