<svg width="176" height="177" viewBox="0 0 176 177" fill="none" xmlns="http://www.w3.org/2000/svg">
<g style="mix-blend-mode:multiply" opacity="0.3">
<g style="mix-blend-mode:multiply" opacity="0.3">
<path d="M143.629 68.6285C132.028 52.9592 109.918 49.6633 94.2441 61.267C78.5702 72.8707 75.2679 94.9799 86.8683 110.649C98.4686 126.319 120.579 129.615 136.253 118.011C151.927 106.407 155.229 84.2979 143.629 68.6285Z" fill="white"/>
</g>
<g style="mix-blend-mode:multiply" opacity="0.3">
<path d="M142.837 68.5106C131.237 52.8412 109.127 49.5454 93.4526 61.1491C77.7787 72.7528 74.4764 94.862 86.0768 110.531C97.6771 126.201 119.787 129.497 135.461 117.893C151.135 106.289 154.437 84.18 142.837 68.5106Z" fill="#F3F3F4"/>
</g>
<g style="mix-blend-mode:multiply" opacity="0.3">
<path d="M142.052 68.4008C130.452 52.7314 108.342 49.4355 92.6679 61.0392C76.994 72.6429 73.6917 94.7521 85.2921 110.421C96.8924 126.091 119.003 129.387 134.677 117.783C150.35 106.179 153.653 84.0702 142.052 68.4008Z" fill="#E8E6E8"/>
</g>
<g style="mix-blend-mode:multiply" opacity="0.3">
<path d="M141.261 68.2828C129.661 52.6134 107.551 49.3175 91.8769 60.9212C76.203 72.525 72.9007 94.6342 84.5011 110.304C96.1014 125.973 118.212 129.269 133.886 117.665C149.559 106.061 152.862 83.9522 141.261 68.2828Z" fill="#DCDBDD"/>
</g>
<g style="mix-blend-mode:multiply" opacity="0.3">
<path d="M130.273 58.9057C113.557 48.8696 91.8665 54.2855 81.825 71.0023C71.7834 87.7191 77.1938 109.407 93.9092 119.443C110.625 129.479 132.316 124.063 142.357 107.346C152.399 90.6294 146.988 68.9418 130.273 58.9057Z" fill="#D1CFD2"/>
</g>
<g style="mix-blend-mode:multiply" opacity="0.3">
<path d="M129.487 58.7915C112.772 48.7554 91.0809 54.1712 81.0394 70.8881C70.9978 87.6049 76.4081 109.292 93.1236 119.329C109.839 129.365 131.53 123.949 141.571 107.232C151.613 90.5151 146.203 68.8276 129.487 58.7915Z" fill="#C6C4C7"/>
</g>
<g style="mix-blend-mode:multiply" opacity="0.3">
<path d="M128.693 58.6721C111.977 48.636 90.2865 54.0518 80.245 70.7687C70.2034 87.4855 75.6137 109.173 92.3292 119.209C109.045 129.245 130.735 123.829 140.777 107.113C150.819 90.3957 145.408 68.7082 128.693 58.6721Z" fill="#BCB9BD"/>
</g>
<g style="mix-blend-mode:multiply" opacity="0.3">
<path d="M127.913 58.5548C111.198 48.5187 89.5067 53.9345 79.4652 70.6514C69.4236 87.3682 74.8339 109.056 91.5494 119.092C108.265 129.128 129.956 123.712 139.997 106.995C150.039 90.2784 144.629 68.5909 127.913 58.5548Z" fill="#B1AFB3"/>
</g>
<g style="mix-blend-mode:multiply" opacity="0.3">
<path d="M127.124 58.4267C110.409 48.3906 88.7177 53.8065 78.6761 70.5233C68.6346 87.2402 74.0448 108.928 90.7603 118.964C107.476 129 129.167 123.584 139.208 106.867C149.25 90.1504 143.839 68.4628 127.124 58.4267Z" fill="#A7A5A9"/>
</g>
<g style="mix-blend-mode:multiply" opacity="0.3">
<path d="M126.335 58.3155C109.62 48.2794 87.9291 53.6953 77.8875 70.4121C67.846 87.1289 73.2563 108.816 89.9717 118.853C106.687 128.889 128.378 123.473 138.42 106.756C148.461 90.0391 143.051 68.3516 126.335 58.3155Z" fill="#9D9B9F"/>
</g>
<g style="mix-blend-mode:multiply" opacity="0.3">
<path d="M125.541 58.196C108.826 48.1599 87.1351 53.5757 77.0935 70.2926C67.052 87.0094 72.4623 108.697 89.1778 118.733C105.893 128.769 127.584 123.353 137.626 106.637C147.667 89.9197 142.257 68.2321 125.541 58.196Z" fill="#949196"/>
</g>
<g style="mix-blend-mode:multiply" opacity="0.3">
<path d="M124.747 58.0766C108.032 48.0405 86.3407 53.4564 76.2991 70.1732C66.2576 86.8901 71.6679 108.578 88.3834 118.614C105.099 128.65 126.79 123.234 136.831 106.517C146.873 89.8003 141.463 68.1127 124.747 58.0766Z" fill="#8B888D"/>
</g>
<g style="mix-blend-mode:multiply" opacity="0.3">
<path d="M123.967 57.9705C107.252 47.9344 85.5609 53.3503 75.5193 70.0671C65.4778 86.784 70.8881 108.472 87.6035 118.508C104.319 128.544 126.01 123.128 136.051 106.411C146.093 89.6942 140.683 68.0066 123.967 57.9705Z" fill="#817F84"/>
</g>
<g style="mix-blend-mode:multiply" opacity="0.3">
<path d="M123.173 57.8512C106.458 47.8151 84.767 53.2309 74.7254 69.9478C64.6839 86.6646 70.0942 108.352 86.8096 118.388C103.525 128.424 125.216 123.009 135.258 106.292C145.299 89.5748 139.889 67.8873 123.173 57.8512Z" fill="#79767B"/>
</g>
<g style="mix-blend-mode:multiply" opacity="0.3">
<path d="M122.384 57.7231C105.669 47.687 83.9779 53.1029 73.9363 69.8197C63.8948 86.5366 69.3051 108.224 86.0206 118.26C102.736 128.296 124.427 122.88 134.468 106.164C144.51 89.4468 139.1 67.7592 122.384 57.7231Z" fill="#706D73"/>
</g>
<g style="mix-blend-mode:multiply" opacity="0.3">
<path d="M121.596 57.6118C104.88 47.5757 83.1893 52.9915 73.1478 69.7084C63.1062 86.4252 68.5165 108.113 85.232 118.149C101.947 128.185 123.638 122.769 133.68 106.052C143.721 89.3354 138.311 67.6479 121.596 57.6118Z" fill="#68656B"/>
</g>
<g style="mix-blend-mode:multiply" opacity="0.3">
<path d="M120.81 57.4864C104.094 47.4503 82.4032 52.8662 72.3617 69.583C62.3201 86.2998 67.7304 107.987 84.4459 118.023C101.161 128.06 122.852 122.644 132.894 105.927C142.935 89.21 137.525 67.5225 120.81 57.4864Z" fill="#605D63"/>
</g>
<g style="mix-blend-mode:multiply" opacity="0.3">
<path d="M120.021 57.3751C103.306 47.339 81.6151 52.7548 71.5736 69.4717C61.532 86.1885 66.9423 107.876 83.6578 117.912C100.373 127.948 122.064 122.532 132.106 105.816C142.147 89.0987 136.737 67.4112 120.021 57.3751Z" fill="#58565B"/>
</g>
<g style="mix-blend-mode:multiply" opacity="0.3">
<path d="M119.236 57.261C102.52 47.2249 80.8295 52.6407 70.7879 69.3575C60.7464 86.0744 66.1566 107.762 82.8721 117.798C99.5876 127.834 121.278 122.418 131.32 105.701C141.362 88.9846 135.951 67.297 119.236 57.261Z" fill="#514F54"/>
</g>
<g style="mix-blend-mode:multiply" opacity="0.3">
<path d="M118.441 57.1414C101.726 47.1053 80.035 52.5212 69.9935 69.238C59.9519 85.9549 65.3622 107.642 82.0777 117.678C98.7932 127.715 120.484 122.299 130.526 105.582C140.567 88.8651 135.157 67.1775 118.441 57.1414Z" fill="#49484D"/>
</g>
<g style="mix-blend-mode:multiply" opacity="0.3">
<path d="M117.653 57.0302C100.938 46.9941 79.2469 52.41 69.2054 69.1268C59.1638 85.8437 64.5741 107.531 81.2896 117.567C98.0051 127.603 119.696 122.188 129.738 105.471C139.779 88.7539 134.369 67.0663 117.653 57.0302Z" fill="#424146"/>
</g>
<g style="mix-blend-mode:multiply" opacity="0.3">
<path d="M116.864 56.9021C100.149 46.866 78.4579 52.2818 68.4163 68.9987C58.3748 85.7155 63.7851 107.403 80.5006 117.439C97.216 127.475 118.907 122.059 128.948 105.343C138.99 88.6257 133.58 66.9382 116.864 56.9021Z" fill="#3B3A3F"/>
</g>
<g style="mix-blend-mode:multiply" opacity="0.3">
<path d="M116.076 56.7909C99.3607 46.7548 77.6698 52.1706 67.6282 68.8875C57.5867 85.6043 62.997 107.292 79.7125 117.328C96.4279 127.364 118.119 121.948 128.16 105.231C138.202 88.5145 132.792 66.827 116.076 56.7909Z" fill="#343339"/>
</g>
<g style="mix-blend-mode:multiply" opacity="0.3">
<path d="M115.282 56.6715C98.5662 46.6354 76.8754 52.0512 66.8338 68.7681C56.7923 85.4849 62.2025 107.172 78.918 117.209C95.6335 127.245 117.324 121.829 127.366 105.112C137.407 88.3951 131.997 66.7076 115.282 56.6715Z" fill="#2E2D33"/>
</g>
<g style="mix-blend-mode:multiply" opacity="0.3">
<path d="M114.504 56.5512C97.7889 46.5151 76.098 51.9309 66.0564 68.6478C56.0149 85.3646 61.4252 107.052 78.1407 117.088C94.8562 127.124 116.547 121.709 126.589 104.992C136.63 88.2749 131.22 66.5873 114.504 56.5512Z" fill="#28272D"/>
</g>
<g style="mix-blend-mode:multiply" opacity="0.3">
<path d="M113.716 56.4399C97.0003 46.4038 75.3094 51.8196 65.2679 68.5365C55.2263 85.2533 60.6366 106.941 77.3521 116.977C94.0676 127.013 115.758 121.597 125.8 104.88C135.842 88.1635 130.431 66.476 113.716 56.4399Z" fill="#222227"/>
</g>
<g style="mix-blend-mode:multiply" opacity="0.3">
<path d="M112.922 56.3205C96.2064 46.2844 74.5155 51.7003 64.4739 68.4171C54.4324 85.1339 59.8427 106.821 76.5581 116.858C93.2736 126.894 114.965 121.478 125.006 104.761C135.048 88.0442 129.637 66.3566 112.922 56.3205Z" fill="#1C1C21"/>
</g>
<g style="mix-blend-mode:multiply" opacity="0.3">
<path d="M112.133 56.1925C95.4173 46.1564 73.7264 51.5722 63.6849 68.2891C53.6433 85.0059 59.0536 106.693 75.7691 116.73C92.4846 126.766 114.175 121.35 124.217 104.633C134.259 87.9161 128.848 66.2286 112.133 56.1925Z" fill="#16171B"/>
</g>
<g style="mix-blend-mode:multiply" opacity="0.3">
<path d="M111.345 56.0812C94.6292 46.0451 72.9383 51.4609 62.8968 68.1777C52.8552 84.8946 58.2655 106.582 74.981 116.618C91.6965 126.654 113.387 121.238 123.429 104.522C133.47 87.8048 128.06 66.1172 111.345 56.0812Z" fill="#101115"/>
</g>
<g style="mix-blend-mode:multiply" opacity="0.3">
<path d="M110.55 55.9618C93.8347 45.9257 72.1439 51.3415 62.1023 68.0583C52.0608 84.7752 57.4711 106.463 74.1866 116.499C90.902 126.535 112.593 121.119 122.634 104.402C132.676 87.6854 127.266 65.9979 110.55 55.9618Z" fill="#0A0B0E"/>
</g>
<g style="mix-blend-mode:multiply" opacity="0.3">
<path d="M109.77 55.8557C93.055 45.8196 71.3642 51.2354 61.3226 67.9523C51.281 84.6691 56.6913 106.357 73.4068 116.393C90.1223 126.429 111.813 121.013 121.855 104.296C131.896 87.5793 126.486 65.8918 109.77 55.8557Z" fill="#050507"/>
</g>
<g style="mix-blend-mode:multiply" opacity="0.3">
<path d="M108.977 55.7363C92.261 45.7002 70.5702 51.116 60.5286 67.8329C50.4871 84.5497 55.8974 106.237 72.6129 116.273C89.3283 126.309 111.019 120.894 121.061 104.177C131.102 87.4599 125.692 65.7724 108.977 55.7363Z" fill="#010101"/>
</g>
</g>
<path d="M125.983 133.541C125.025 134.25 124.076 134.953 123.074 135.569L126.216 140.391C127.295 139.693 128.361 138.942 129.408 138.167C138.241 131.668 145.277 123.03 149.852 113.064C154.428 103.099 156.393 92.134 155.563 81.2014L149.817 81.6229C150.572 91.5863 148.781 101.579 144.612 110.661C140.442 119.743 134.032 127.616 125.983 133.541Z" fill="url(#paint0_linear_590_57)"/>
<path d="M55.5985 38.4672C64.1129 32.1603 74.1624 28.2515 84.6998 27.1479C95.2373 26.0444 105.877 27.7866 115.511 32.1929L117.911 26.9481C107.35 22.1164 95.6862 20.2039 84.1333 21.4099C72.5804 22.6159 61.5612 26.8962 52.2226 33.8053L55.5985 38.4672Z" fill="url(#paint1_linear_590_57)"/>
<path d="M25.88 86.9015C26.0462 98.5139 29.3196 109.869 35.3602 119.787C41.4008 129.704 49.9879 137.823 60.2293 143.298L62.938 138.215C53.6053 133.225 45.7802 125.827 40.276 116.789C34.7718 107.751 31.7896 97.4035 31.6392 86.8215L25.88 86.9015Z" fill="url(#paint2_linear_590_57)"/>
<path d="M50.2384 105.29L45.0375 107.771C48.1185 114.218 52.5245 119.943 57.968 124.572C63.4115 129.201 69.7701 132.63 76.6291 134.636C83.4881 136.641 90.6933 137.178 97.7746 136.211C104.856 135.244 111.654 132.796 117.726 129.025L114.673 124.137C109.288 127.482 103.258 129.654 96.9778 130.511C90.6971 131.368 84.3066 130.89 78.2238 129.109C72.141 127.328 66.5028 124.284 61.6774 120.175C56.852 116.067 52.9479 110.986 50.2204 105.266L50.2384 105.29Z" fill="url(#paint3_linear_590_57)"/>
<path d="M59.1698 54.0026C67.6518 45.607 79.1169 40.9174 91.0501 40.9624C102.983 41.0074 114.41 45.7833 122.824 54.2426C124.008 55.449 125.13 56.7151 126.185 58.0359L130.692 54.448C126.255 48.8493 120.687 44.2497 114.35 40.9493C108.014 37.649 101.053 35.7222 93.9208 35.2947C86.7887 34.8673 79.6462 35.9488 72.9596 38.4686C66.2729 40.9884 60.1926 44.8898 55.1156 49.9182L59.1698 54.0026Z" fill="url(#paint4_linear_590_57)"/>
<path d="M108.976 55.7363C92.2606 45.7002 70.5697 51.116 60.5281 67.8329C50.4866 84.5497 55.8969 106.237 72.6124 116.273C89.3278 126.309 111.019 120.894 121.06 104.177C131.102 87.4599 125.692 65.7724 108.976 55.7363Z" fill="url(#paint5_linear_590_57)"/>
<path d="M122.064 62.8582C126.641 69.0411 129.282 76.4428 129.652 84.1274C130.022 91.812 128.104 99.4343 124.142 106.031C120.18 112.627 114.351 117.9 107.392 121.185C100.433 124.469 92.6571 125.617 85.0473 124.482C77.4375 123.348 70.3356 119.983 64.6397 114.812C58.9438 109.641 54.9097 102.897 53.0476 95.4327C51.1855 87.9683 51.579 80.1188 54.1783 72.8768C56.7776 65.6348 61.4661 59.3256 67.6507 54.747C75.9478 48.6178 86.3368 46.0296 96.538 47.5503C106.739 49.0709 115.919 54.5763 122.064 62.8582ZM65.3119 104.873C69.0432 109.91 74.1848 113.727 80.0864 115.841C85.988 117.956 92.3846 118.273 98.4675 116.753C104.55 115.233 110.046 111.943 114.26 107.3C118.475 102.657 121.218 96.8696 122.143 90.6688C123.068 84.4681 122.134 78.1329 119.458 72.4641C116.782 66.7952 112.486 62.0475 107.111 58.8211C101.736 55.5947 95.525 54.0345 89.2627 54.3378C83.0003 54.6412 76.968 56.7944 71.9285 60.5253C65.1756 65.5346 60.6859 73.0182 59.4454 81.3329C58.2048 89.6477 60.3147 98.114 65.3119 104.873Z" fill="white"/>
<defs>
<linearGradient id="paint0_linear_590_57" x1="145.916" y1="111.56" x2="22.969" y2="93.1964" gradientUnits="userSpaceOnUse">
<stop stop-color="#2C4698"/>
<stop offset="1" stop-color="#2779BE"/>
</linearGradient>
<linearGradient id="paint1_linear_590_57" x1="156.335" y1="41.809" x2="33.3873" y2="23.4453" gradientUnits="userSpaceOnUse">
<stop stop-color="#1E3A6D"/>
<stop offset="1" stop-color="#2779BE"/>
</linearGradient>
<linearGradient id="paint2_linear_590_57" x1="143.234" y1="129.564" x2="20.2808" y2="111.192" gradientUnits="userSpaceOnUse">
<stop stop-color="#1E3A6D"/>
<stop offset="1" stop-color="#2779BE"/>
</linearGradient>
<linearGradient id="paint3_linear_590_57" x1="142.846" y1="132.112" x2="19.899" y2="113.749" gradientUnits="userSpaceOnUse">
<stop stop-color="#1E3A6D"/>
<stop offset="1" stop-color="#2779BE"/>
</linearGradient>
<linearGradient id="paint4_linear_590_57" x1="154.197" y1="56.118" x2="31.2499" y2="37.7543" gradientUnits="userSpaceOnUse">
<stop stop-color="#1E3A6D"/>
<stop offset="1" stop-color="#2779BE"/>
</linearGradient>
<linearGradient id="paint5_linear_590_57" x1="150.166" y1="94.8538" x2="23.5598" y2="75.9437" gradientUnits="userSpaceOnUse">
<stop stop-color="#2C4698"/>
<stop offset="1" stop-color="#2779BE"/>
</linearGradient>
</defs>
</svg>
