<svg xmlns="http://www.w3.org/2000/svg" xmlns:xlink="http://www.w3.org/1999/xlink" viewBox="0 0 662.12 389.61"><defs><style>.cls-1{isolation:isolate;}.cls-2{fill:#c5cae9;}.cls-3{fill:url(#linear-gradient);}.cls-4,.cls-5{fill:url(#linear-gradient-2);}.cls-25,.cls-5,.cls-7{opacity:0.37;}.cls-12,.cls-20,.cls-22,.cls-25,.cls-28,.cls-36,.cls-5,.cls-7{mix-blend-mode:multiply;}.cls-6,.cls-7{fill:url(#linear-gradient-4);}.cls-8{fill:url(#linear-gradient-6);}.cls-9{fill:url(#linear-gradient-7);}.cls-10{fill:url(#linear-gradient-8);}.cls-11{fill:url(#linear-gradient-9);}.cls-12{opacity:0.19;fill:url(#linear-gradient-10);}.cls-13{fill:url(#linear-gradient-11);}.cls-14{fill:url(#linear-gradient-12);}.cls-15{fill:url(#linear-gradient-13);}.cls-16{fill:url(#linear-gradient-14);}.cls-17{fill:url(#linear-gradient-15);}.cls-18{fill:url(#linear-gradient-16);}.cls-19{fill:url(#linear-gradient-17);}.cls-20,.cls-22{opacity:0.36;}.cls-20{fill:url(#linear-gradient-18);}.cls-21{fill:url(#linear-gradient-19);}.cls-22{fill:url(#linear-gradient-20);}.cls-23{fill:url(#linear-gradient-21);}.cls-24{fill:url(#linear-gradient-22);}.cls-26{fill:url(#linear-gradient-23);}.cls-27{fill:url(#linear-gradient-24);}.cls-28{opacity:0.22;}.cls-29{fill:url(#linear-gradient-25);}.cls-30{fill:#2d386b;}.cls-31{fill:#242b5b;}.cls-32{fill:url(#linear-gradient-26);}.cls-33{fill:url(#linear-gradient-27);}.cls-34{fill:url(#linear-gradient-28);}.cls-35{fill:url(#linear-gradient-29);}.cls-36{fill:#ffa000;opacity:0.3;}.cls-37{fill:url(#linear-gradient-30);}.cls-38{fill:url(#linear-gradient-31);}.cls-39{fill:url(#linear-gradient-32);}.cls-40{fill:url(#linear-gradient-33);}.cls-41{fill:url(#linear-gradient-34);}.cls-42{fill:url(#linear-gradient-35);}.cls-43{fill:url(#linear-gradient-36);}.cls-44{fill:url(#linear-gradient-37);}.cls-45{fill:url(#linear-gradient-38);}.cls-46{font-size:36px;fill:#7986cb;font-family:Montserrat-ExtraBold, Montserrat;font-weight:800;}.cls-47{letter-spacing:-0.01em;}.cls-48{letter-spacing:-0.03em;}</style><linearGradient id="linear-gradient" x1="534.03" y1="274.22" x2="534.03" y2="118.12" gradientUnits="userSpaceOnUse"><stop offset="0" stop-color="#3949ab"/><stop offset="1" stop-color="#5c6bc0"/></linearGradient><linearGradient id="linear-gradient-2" x1="534.03" y1="274.22" x2="534.03" y2="118.12" xlink:href="#linear-gradient"/><linearGradient id="linear-gradient-4" x1="534.03" y1="259.78" x2="534.03" y2="124.33" gradientUnits="userSpaceOnUse"><stop offset="0" stop-color="#ccd1ec"/><stop offset="1" stop-color="#fff"/></linearGradient><linearGradient id="linear-gradient-6" x1="534.03" y1="259.78" x2="534.03" y2="124.33" xlink:href="#linear-gradient-4"/><linearGradient id="linear-gradient-7" x1="507.91" y1="235.83" x2="560.14" y2="235.83" gradientTransform="matrix(1, 0, 0, -1, 0, 471.83)" gradientUnits="userSpaceOnUse"><stop offset="0" stop-color="#5c6bc0"/><stop offset="1" stop-color="#3949ab"/></linearGradient><linearGradient id="linear-gradient-8" x1="507.91" y1="323.72" x2="560.14" y2="323.72" xlink:href="#linear-gradient-7"/><linearGradient id="linear-gradient-9" x1="514.05" y1="304.2" x2="554" y2="304.2" gradientTransform="matrix(1, 0, 0, -1, 0, 471.83)" gradientUnits="userSpaceOnUse"><stop offset="0" stop-color="#ffd54f"/><stop offset="1" stop-color="#ff9100"/></linearGradient><linearGradient id="linear-gradient-10" x1="539.19" y1="262.05" x2="556.66" y2="262.05" gradientTransform="matrix(1, 0, 0, -1, 0, 471.83)" gradientUnits="userSpaceOnUse"><stop offset="0" stop-color="#0088e8"/><stop offset="1" stop-color="#6fcafa"/></linearGradient><linearGradient id="linear-gradient-11" x1="493.31" y1="673.74" x2="425.33" y2="579.4" gradientTransform="matrix(0.48, 0.88, -0.88, 0.48, 540.24, -430.78)" gradientUnits="userSpaceOnUse"><stop offset="0" stop-color="#9e9d24"/><stop offset="0.99" stop-color="#d4e157"/></linearGradient><linearGradient id="linear-gradient-12" x1="461.33" y1="612.92" x2="436.73" y2="663.52" xlink:href="#linear-gradient-11"/><linearGradient id="linear-gradient-13" x1="496.54" y1="372.56" x2="417.57" y2="262.98" gradientTransform="translate(-279.92 -83.47) rotate(4.74)" xlink:href="#linear-gradient-11"/><linearGradient id="linear-gradient-14" x1="459.38" y1="301.92" x2="430.81" y2="360.69" gradientTransform="translate(-279.92 -83.47) rotate(4.74)" xlink:href="#linear-gradient-11"/><linearGradient id="linear-gradient-15" x1="1123.99" y1="311.69" x2="1053.56" y2="456.58" gradientTransform="matrix(-0.95, -0.3, -0.3, 0.95, 1324.33, 207.72)" gradientUnits="userSpaceOnUse"><stop offset="0.01" stop-color="#d4e157"/><stop offset="1" stop-color="#9e9d24"/></linearGradient><linearGradient id="linear-gradient-16" x1="1114.1" y1="306.88" x2="1043.66" y2="451.77" gradientTransform="matrix(-0.95, -0.3, -0.3, 0.95, 1324.33, 207.72)" xlink:href="#linear-gradient-11"/><linearGradient id="linear-gradient-17" x1="111.58" y1="283.25" x2="151.9" y2="283.25" gradientTransform="matrix(1, 0, 0, 1, 0, 0)" xlink:href="#linear-gradient-7"/><linearGradient id="linear-gradient-18" x1="166.84" y1="338.45" x2="195.84" y2="338.45" xlink:href="#linear-gradient"/><linearGradient id="linear-gradient-19" x1="331.06" y1="347.46" x2="331.06" y2="156.59" xlink:href="#linear-gradient"/><linearGradient id="linear-gradient-20" x1="171.36" y1="344.1" x2="490.76" y2="344.1" xlink:href="#linear-gradient"/><linearGradient id="linear-gradient-21" x1="192.11" y1="410.85" x2="557.89" y2="410.85" gradientTransform="matrix(1, 0, 0, 1, 0, 0)" xlink:href="#linear-gradient-7"/><linearGradient id="linear-gradient-22" x1="331.06" y1="332.12" x2="331.06" y2="165.23" xlink:href="#linear-gradient-4"/><linearGradient id="linear-gradient-23" x1="424.74" y1="387.31" x2="424.74" y2="220.43" xlink:href="#linear-gradient-4"/><linearGradient id="linear-gradient-24" x1="283.53" y1="248.55" x2="469.16" y2="248.55" gradientTransform="matrix(1, 0, 0, 1, 0, 0)" xlink:href="#linear-gradient-7"/><linearGradient id="linear-gradient-25" x1="283.53" y1="255.76" x2="469.16" y2="255.76" xlink:href="#linear-gradient"/><linearGradient id="linear-gradient-26" x1="391.52" y1="195.15" x2="403.03" y2="206.65" gradientTransform="matrix(1, 0, 0, 1, 0, 0)" xlink:href="#linear-gradient-7"/><linearGradient id="linear-gradient-27" x1="344.26" y1="127.87" x2="405.74" y2="189.36" gradientTransform="matrix(1, 0, 0, 1, 0, 0)" xlink:href="#linear-gradient-9"/><linearGradient id="linear-gradient-28" x1="348.77" y1="132.39" x2="401.23" y2="184.85" gradientUnits="userSpaceOnUse"><stop offset="0" stop-color="#ff9100"/><stop offset="1" stop-color="#ffd54f"/></linearGradient><linearGradient id="linear-gradient-29" x1="481.86" y1="427.62" x2="584.46" y2="427.62" gradientUnits="userSpaceOnUse"><stop offset="0.01" stop-color="#ffa000"/><stop offset="1" stop-color="#ff7d00"/></linearGradient><linearGradient id="linear-gradient-30" x1="462.51" y1="338.65" x2="515.93" y2="392.07" gradientTransform="matrix(1, 0, 0, 1, 0, 0)" xlink:href="#linear-gradient-9"/><linearGradient id="linear-gradient-31" x1="481.86" y1="408.07" x2="584.46" y2="408.07" xlink:href="#linear-gradient-29"/><linearGradient id="linear-gradient-32" x1="462.51" y1="319.1" x2="515.93" y2="372.52" gradientTransform="matrix(1, 0, 0, 1, 0, 0)" xlink:href="#linear-gradient-9"/><linearGradient id="linear-gradient-33" x1="481.86" y1="388.52" x2="584.46" y2="388.52" xlink:href="#linear-gradient-29"/><linearGradient id="linear-gradient-34" x1="462.51" y1="299.56" x2="515.93" y2="352.97" gradientTransform="matrix(1, 0, 0, 1, 0, 0)" xlink:href="#linear-gradient-9"/><linearGradient id="linear-gradient-35" x1="481.86" y1="368.98" x2="584.46" y2="368.98" xlink:href="#linear-gradient-29"/><linearGradient id="linear-gradient-36" x1="462.51" y1="280.01" x2="515.93" y2="333.43" gradientTransform="matrix(1, 0, 0, 1, 0, 0)" xlink:href="#linear-gradient-9"/><linearGradient id="linear-gradient-37" x1="264.35" y1="65.7" x2="315.07" y2="116.42" gradientTransform="translate(149.24 -178.19) rotate(45)" xlink:href="#linear-gradient-9"/><linearGradient id="linear-gradient-38" x1="268.07" y1="69.42" x2="311.35" y2="112.7" gradientTransform="translate(149.24 -178.19) rotate(45)" xlink:href="#linear-gradient-28"/></defs><g class="cls-1"><g id="OBJECTS"><path class="cls-2" d="M641.72,244.91h0a10,10,0,0,0-10-10H317.38a10,10,0,0,0-10,10h0a10,10,0,0,0,10,10H548.65a10,10,0,0,1,10,10h0a10,10,0,0,1-10,10h-152a10,10,0,0,0-10,10h0a10,10,0,0,0,10,10h83.58a10,10,0,0,1,10,10h0a10,10,0,0,1-10,10H449.69a10,10,0,0,0-10,10h0a10,10,0,0,0,10,10h165.7a10,10,0,0,0,10-10h0a10,10,0,0,0-10-10H561.05a10,10,0,0,1-10-10h0a10,10,0,0,1,10-10h135a10,10,0,0,0,10-10h0a10,10,0,0,0-10-10H600a10,10,0,0,1-10-10h0a10,10,0,0,1,10-10h31.76A10,10,0,0,0,641.72,244.91Z" transform="translate(-43.94 -55.19)"/><path class="cls-2" d="M100.28,341.33h0a10,10,0,0,1,10-10H375.62a10,10,0,0,1,10,10h0a10,10,0,0,1-10,10H247.35a10,10,0,0,0-10,10h0a10,10,0,0,0,10,10h152a10,10,0,0,1,10,10h0a10,10,0,0,1-10,10H315.75a10,10,0,0,0-10,10h0a10,10,0,0,0,10,10h30.56a10,10,0,0,1,10,10h0a10,10,0,0,1-10,10H180.61a10,10,0,0,1-10-10h0a10,10,0,0,1,10-10H235a10,10,0,0,0,10-10h0a10,10,0,0,0-10-10h-181a10,10,0,0,1-10-10h0a10,10,0,0,1,10-10H142a10,10,0,0,0,10-10h0a10,10,0,0,0-10-10H110.27A10,10,0,0,1,100.28,341.33Z" transform="translate(-43.94 -55.19)"/><path class="cls-3" d="M577.88,127.66a9.54,9.54,0,0,0-9.53-9.54H499.71a9.54,9.54,0,0,0-9.54,9.54V253.53l87.71-87.7Z" transform="translate(-43.94 -55.19)"/><path class="cls-4" d="M490.17,253.53v11.16a9.54,9.54,0,0,0,9.54,9.53h68.64a9.53,9.53,0,0,0,9.53-9.53V165.83Z" transform="translate(-43.94 -55.19)"/><path class="cls-5" d="M490.17,253.53v11.16a9.54,9.54,0,0,0,9.54,9.53h68.64a9.53,9.53,0,0,0,9.53-9.53V165.83Z" transform="translate(-43.94 -55.19)"/><path class="cls-6" d="M496,247.73v8.5a3.56,3.56,0,0,0,3.56,3.55h69a3.55,3.55,0,0,0,3.56-3.55v-84.6Z" transform="translate(-43.94 -55.19)"/><path class="cls-7" d="M496,247.73v8.5a3.56,3.56,0,0,0,3.56,3.55h69a3.55,3.55,0,0,0,3.56-3.55v-84.6Z" transform="translate(-43.94 -55.19)"/><path class="cls-8" d="M572.08,127.89a3.56,3.56,0,0,0-3.56-3.56h-69a3.57,3.57,0,0,0-3.56,3.56V247.73l76.11-76.1Z" transform="translate(-43.94 -55.19)"/><path class="cls-2" d="M556.66,233.19H511.4v-8.74a18.47,18.47,0,0,1,3.05-10.17l10.89-16.54a10.34,10.34,0,0,0,0-11.37l-10.89-16.53a18.47,18.47,0,0,1-3.05-10.17v-8.74h45.26v8.74a18.47,18.47,0,0,1-3,10.17l-10.9,16.53a10.34,10.34,0,0,0,0,11.37l10.9,16.54a18.47,18.47,0,0,1,3,10.17Z" transform="translate(-43.94 -55.19)"/><path class="cls-9" d="M557.33,238.82H510.72a2.81,2.81,0,0,1-2.81-2.82h0a2.81,2.81,0,0,1,2.81-2.81h46.61a2.81,2.81,0,0,1,2.81,2.81h0A2.81,2.81,0,0,1,557.33,238.82Z" transform="translate(-43.94 -55.19)"/><path class="cls-10" d="M557.33,150.93H510.72a2.81,2.81,0,0,1-2.81-2.82h0a2.81,2.81,0,0,1,2.81-2.81h46.61a2.81,2.81,0,0,1,2.81,2.81h0A2.81,2.81,0,0,1,557.33,150.93Z" transform="translate(-43.94 -55.19)"/><path class="cls-11" d="M542.62,181.69H525.43l-8.77-13.31a15.75,15.75,0,0,1-2.61-8.71v-6.09h40v6.09a15.78,15.78,0,0,1-2.61,8.71Z" transform="translate(-43.94 -55.19)"/><path class="cls-12" d="M542.71,186.37a10.34,10.34,0,0,0,0,11.37l10.9,16.54a18.47,18.47,0,0,1,3,10.17v8.74h-6.45v-8.74c0-5.11-.86-9.06-2.85-12.08l-7.3-13.93c-2.27-3.45.38-8.62,2.65-12.07" transform="translate(-43.94 -55.19)"/><path class="cls-2" d="M409.81,142.16a69.75,69.75,0,0,0-29.36,6.45,79.8,79.8,0,0,0-157.13-10.38A59,59,0,0,0,136.1,190h-2.78a46.17,46.17,0,0,0-46.17,46.18h0a46.17,46.17,0,0,0,46.17,46.17H409.81a70.1,70.1,0,1,0,0-140.19Z" transform="translate(-43.94 -55.19)"/><path class="cls-13" d="M232.37,266.12a97.46,97.46,0,0,0,2.75-16c-7.48,3.39-13.27,5.84-13.39,5.36s6-5.16,13.68-10.68a69.88,69.88,0,0,0-.79-12.72c-4.76,3.24-8.11,5.35-8.28,5s3-4,7.53-8.76c-3.65-15.38-13.18-21.74-23.55-9.39-17,20.22-19.1,74.19-38.38,95.65l3.68,6.81S222.7,303.67,232.37,266.12Z" transform="translate(-43.94 -55.19)"/><path class="cls-14" d="M197.34,303.19c2.86-10-10.27-19.7,9.22-31.79,18.5-11.47,16.6-30.43.89-48.56-14,21.87-17.18,68.52-33.88,89.75C184.2,311.21,195.83,308.5,197.34,303.19Z" transform="translate(-43.94 -55.19)"/><path class="cls-15" d="M160.25,243.53a112.21,112.21,0,0,0-13.84-12.85c-1.45,9.43-2.74,16.62-3.28,16.43s-1.2-9.14-1.71-20.09a81.83,81.83,0,0,0-12.87-7.31c.13,6.69,0,11.29-.4,11.22s-2-5.43-3.75-12.88c-17.27-6.21-29.51-1-24.09,16.95,8.89,29.35,60.05,65.68,68.68,98.07l9,.74S190.65,276.78,160.25,243.53Z" transform="translate(-43.94 -55.19)"/><path class="cls-16" d="M174.07,301.14C166.12,292,148.38,298.63,149,272c.59-25.28-19.06-35.47-46.67-31.7,12.4,27.48,55.74,60.22,65.8,89.94C173.53,319,178.28,306,174.07,301.14Z" transform="translate(-43.94 -55.19)"/><path class="cls-17" d="M165.56,171.74c-4.13,15.83-4.19,27.84,8.57,41,16.68,17.14,1.75,33.49,3.79,51.73,1.84,16.37,7.78,23.17-4.18,45.45-1-54.77-18-84.25-21.31-92.17C143.87,197.16,146.13,163.08,165.56,171.74Z" transform="translate(-43.94 -55.19)"/><path class="cls-18" d="M181.07,184.4c1.37,1.53,2.64,3.06,3.83,4.59-1.88,7.9-3.17,14-2.68,14.06s2.6-4.3,5.41-10.28A60.52,60.52,0,0,1,196,210.94c-4.66,7.06-8.19,12.68-7.73,12.88s4-1.4,8.84-6.18c4,35.28-9.15,62.65-17.45,115.28l-6.3-2c.41-7.41.51-14.42.38-21.08,12-22.28,6-29.08,4.18-45.45-2-18.24,12.89-34.59-3.79-51.73-12.76-13.12-12.7-25.13-8.57-41C169.87,173.66,175,177.67,181.07,184.4Z" transform="translate(-43.94 -55.19)"/><path class="cls-19" d="M111.58,259.46H151.9a0,0,0,0,1,0,0v27.43A20.16,20.16,0,0,1,131.74,307h0a20.16,20.16,0,0,1-20.16-20.16V259.46A0,0,0,0,1,111.58,259.46Z"/><path class="cls-20" d="M186.94,314.65V340a20.16,20.16,0,0,1-20.1,20.16,20,20,0,0,0,8.84,2.06h0a20.15,20.15,0,0,0,20.16-20.16V314.65Z" transform="translate(-43.94 -55.19)"/><path class="cls-21" d="M182.87,156.59H479.25a11.51,11.51,0,0,1,11.51,11.51V347.46a0,0,0,0,1,0,0H171.36a0,0,0,0,1,0,0V168.1A11.51,11.51,0,0,1,182.87,156.59Z"/><rect class="cls-22" x="171.36" y="340.75" width="319.4" height="6.71"/><path class="cls-23" d="M413.93,402.66v7.11H336.07v-7.11h-144A27.36,27.36,0,0,0,217.17,419H532.83a27.36,27.36,0,0,0,25.06-16.38h-144Z" transform="translate(-43.94 -55.19)"/><path class="cls-24" d="M186.11,165.23H476a6.21,6.21,0,0,1,6.21,6.21V332.12a0,0,0,0,1,0,0H179.9a0,0,0,0,1,0,0V171.45A6.21,6.21,0,0,1,186.11,165.23Z"/><g class="cls-25"><path class="cls-26" d="M520,220.43H490.21L323.33,387.31H526.16V226.64A6.21,6.21,0,0,0,520,220.43Z" transform="translate(-43.94 -55.19)"/></g><path class="cls-27" d="M283.53,181.71V300.94A14.45,14.45,0,0,0,298,315.4H455.88a13.29,13.29,0,0,0,13.28-13.28V209.45a13.29,13.29,0,0,0-13.28-13.28L305.66,191.3C297.68,191.3,283.53,189.7,283.53,181.71Z" transform="translate(-43.94 -55.19)"/><g class="cls-28"><path class="cls-29" d="M455.88,196.17l-1.71,0L334.89,315.4h121a13.29,13.29,0,0,0,13.28-13.28V209.45A13.29,13.29,0,0,0,455.88,196.17Z" transform="translate(-43.94 -55.19)"/></g><path class="cls-30" d="M456.17,196.17H298a14.45,14.45,0,0,1-14.46-14.46h0A14.45,14.45,0,0,1,298,167.25h144.9a13.27,13.27,0,0,1,13.28,13.28Z" transform="translate(-43.94 -55.19)"/><path class="cls-31" d="M297.25,190.12a14.61,14.61,0,0,1-13.67-9.49c0,.36-.05.71-.05,1.08h0A14.45,14.45,0,0,0,298,196.17H456.17v-6Z" transform="translate(-43.94 -55.19)"/><path class="cls-30" d="M440.23,274.09h28.13a6.12,6.12,0,0,0,6.11-6.12V244.22a6.12,6.12,0,0,0-6.11-6.12H440.23a18,18,0,0,0-18,18h0A18,18,0,0,0,440.23,274.09Z" transform="translate(-43.94 -55.19)"/><circle class="cls-31" cx="398.76" cy="202.39" r="13.22"/><circle class="cls-32" cx="397.27" cy="200.9" r="8.13"/><path class="cls-33" d="M418.48,158.62A43.48,43.48,0,1,0,345,190.12H405A43.36,43.36,0,0,0,418.48,158.62Z" transform="translate(-43.94 -55.19)"/><path class="cls-34" d="M412.1,158.62a37.1,37.1,0,1,0-56.7,31.5h39.2A37.05,37.05,0,0,0,412.1,158.62Z" transform="translate(-43.94 -55.19)"/><path class="cls-35" d="M581.81,420.55c-6.81-5.88-26-10.13-48.65-10.13s-41.84,4.25-48.65,10.13h-2.65V430c0,8.19,23,14.84,51.3,14.84s51.3-6.65,51.3-14.84v-9.42Z" transform="translate(-43.94 -55.19)"/><path class="cls-36" d="M489.39,437.71a57.1,57.1,0,0,0,10.44,3.53V414a56.76,56.76,0,0,0-10.44,3.55Z" transform="translate(-43.94 -55.19)"/><path class="cls-36" d="M565.69,441.44a60.54,60.54,0,0,0,10.44-3.37V417.16a61.13,61.13,0,0,0-10.44-3.37Z" transform="translate(-43.94 -55.19)"/><path class="cls-36" d="M505.44,442.45q2.79.53,5.8.94V411.84c-2,.28-3.95.59-5.8.94Z" transform="translate(-43.94 -55.19)"/><path class="cls-36" d="M557.64,443c2-.32,4-.67,5.8-1.07V413.29c-1.84-.39-3.78-.75-5.8-1.07Z" transform="translate(-43.94 -55.19)"/><path class="cls-36" d="M514.14,443.75q1.71.19,3.48.36V411.84h-3.48Z" transform="translate(-43.94 -55.19)"/><ellipse class="cls-37" cx="489.22" cy="365.36" rx="51.3" ry="14.84"/><path class="cls-38" d="M581.81,401c-6.81-5.88-26-10.12-48.65-10.12s-41.84,4.24-48.65,10.12h-2.65v9.42c0,8.2,23,14.84,51.3,14.84s51.3-6.64,51.3-14.84V401Z" transform="translate(-43.94 -55.19)"/><path class="cls-36" d="M489.39,418.16a56.31,56.31,0,0,0,10.44,3.54V394.44A56.8,56.8,0,0,0,489.39,398Z" transform="translate(-43.94 -55.19)"/><path class="cls-36" d="M565.69,421.9a61.42,61.42,0,0,0,10.44-3.37V397.62a60.26,60.26,0,0,0-10.44-3.37Z" transform="translate(-43.94 -55.19)"/><path class="cls-36" d="M505.44,422.9q2.79.53,5.8.94V392.3c-2,.27-3.95.59-5.8.93Z" transform="translate(-43.94 -55.19)"/><path class="cls-36" d="M557.64,423.47c2-.32,4-.68,5.8-1.07V393.74c-1.84-.39-3.78-.74-5.8-1.06Z" transform="translate(-43.94 -55.19)"/><path class="cls-36" d="M514.14,424.2c1.14.13,2.3.26,3.48.37V392.29h-3.48Z" transform="translate(-43.94 -55.19)"/><ellipse class="cls-39" cx="489.22" cy="345.81" rx="51.3" ry="14.84"/><path class="cls-40" d="M581.81,381.46c-6.81-5.89-26-10.13-48.65-10.13s-41.84,4.24-48.65,10.13h-2.65v9.42c0,8.19,23,14.83,51.3,14.83s51.3-6.64,51.3-14.83v-9.42Z" transform="translate(-43.94 -55.19)"/><path class="cls-36" d="M489.39,398.62a57.1,57.1,0,0,0,10.44,3.53V374.89a56,56,0,0,0-10.44,3.55Z" transform="translate(-43.94 -55.19)"/><path class="cls-36" d="M565.69,402.35A61.42,61.42,0,0,0,576.13,399V378.07a61.13,61.13,0,0,0-10.44-3.37Z" transform="translate(-43.94 -55.19)"/><path class="cls-36" d="M505.44,403.36c1.86.34,3.79.66,5.8.93V372.75c-2,.28-3.95.59-5.8.94Z" transform="translate(-43.94 -55.19)"/><path class="cls-36" d="M557.64,403.92c2-.32,4-.68,5.8-1.07V374.19c-1.84-.39-3.78-.74-5.8-1.06Z" transform="translate(-43.94 -55.19)"/><path class="cls-36" d="M514.14,404.66q1.71.19,3.48.36V372.74h-3.48Z" transform="translate(-43.94 -55.19)"/><ellipse class="cls-41" cx="489.22" cy="326.26" rx="51.3" ry="14.84"/><path class="cls-42" d="M581.81,361.91c-6.81-5.88-26-10.12-48.65-10.12s-41.84,4.24-48.65,10.12h-2.65v9.42c0,8.2,23,14.84,51.3,14.84s51.3-6.64,51.3-14.84v-9.42Z" transform="translate(-43.94 -55.19)"/><path class="cls-36" d="M489.39,379.07a57.83,57.83,0,0,0,10.44,3.54V355.35a56.8,56.8,0,0,0-10.44,3.54Z" transform="translate(-43.94 -55.19)"/><path class="cls-36" d="M565.69,382.8a60.54,60.54,0,0,0,10.44-3.37V358.52a62,62,0,0,0-10.44-3.37Z" transform="translate(-43.94 -55.19)"/><path class="cls-36" d="M505.44,383.81q2.79.53,5.8.94V353.21c-2,.27-3.95.59-5.8.93Z" transform="translate(-43.94 -55.19)"/><path class="cls-36" d="M557.64,384.37c2-.32,4-.67,5.8-1.06V354.65c-1.84-.39-3.78-.75-5.8-1.07Z" transform="translate(-43.94 -55.19)"/><path class="cls-36" d="M514.14,385.11q1.71.19,3.48.36V353.2h-3.48Z" transform="translate(-43.94 -55.19)"/><ellipse class="cls-43" cx="489.22" cy="306.72" rx="51.3" ry="14.84"/><circle class="cls-44" cx="289.71" cy="91.06" r="35.86" transform="translate(-23.47 176.33) rotate(-45)"/><circle class="cls-45" cx="289.71" cy="91.06" r="30.6" transform="translate(-23.47 176.33) rotate(-45)"/></g><g id="TEXTS"><text class="cls-46" transform="translate(246.64 314.55)"><tspan class="cls-47">S</tspan><tspan class="cls-48" x="22.93" y="0">T</tspan><tspan x="44.53" y="0">AKING</tspan></text></g></g></svg>