<svg width="52" height="50" viewBox="0 0 52 50" fill="none" xmlns="http://www.w3.org/2000/svg">
<path d="M49.9427 27.6462C50.4113 27.0437 50.6389 26.2671 50.4314 25.4751L44.2794 2.15712C43.9224 0.809342 42.5367 0.00164759 41.1912 0.358635L1.88102 10.7234C0.539964 11.0782 -0.270007 12.4684 0.082532 13.8139L6.23448 37.1295C6.58702 38.475 7.97938 39.2828 9.32499 38.9303L23.2153 35.2664V43.074C23.2153 47.4408 30.4517 49.7258 37.6055 49.7258C44.7548 49.7258 52.0001 47.4408 52.0001 43.0741V31.2342C52 29.8128 51.2213 28.6168 49.9427 27.6462ZM45.4911 19.6087L46.1337 22.0365L38.3194 24.1005L37.6812 21.6683L45.4911 19.6087ZM40.9569 4.24794L42.1774 8.87139L29.9695 12.0935L28.749 7.47003L40.9569 4.24794ZM35.4789 22.2484L36.1037 24.6226C33.2141 24.752 30.4025 25.2563 28.1443 26.1176L27.6668 24.3146L35.4789 22.2484ZM8.27389 32.0219L7.63574 29.5986L15.4478 27.5323L16.0904 29.9689L8.27389 32.0219ZM17.6502 26.9544L25.4578 24.8904L26.0491 27.1151C25.8594 27.2311 25.6809 27.3515 25.5068 27.4743L18.2884 29.3799L17.6502 26.9544ZM49.3938 42.882C49.3938 45.428 44.1189 47.4898 37.6055 47.4898C31.0988 47.4898 25.8193 45.4258 25.8193 42.882V40.0147C25.8193 39.9187 25.8751 39.8317 25.8907 39.7403C26.2633 42.1547 31.3375 44.0691 37.6055 44.0691C43.8757 44.0691 48.952 42.1546 49.3224 39.7403C49.3381 39.8317 49.3938 39.9188 49.3938 40.0147V42.882ZM49.3938 37.241C49.3938 39.7848 44.1189 41.8466 37.6055 41.8466C31.0988 41.8466 25.8193 39.7848 25.8193 37.241V34.3738C25.8193 34.28 25.8751 34.1908 25.8907 34.0993C26.2633 36.5114 31.3375 38.4304 37.6055 38.4304C43.8757 38.4304 48.952 36.5114 49.3224 34.0993C49.3381 34.1908 49.3938 34.28 49.3938 34.3738V37.241ZM37.6054 35.8375C31.0987 35.8375 25.8192 33.7758 25.8192 31.2341C25.8192 28.6926 31.0986 26.6308 37.6054 26.6308C44.1188 26.6308 49.3937 28.6926 49.3937 31.2341C49.3938 33.7758 44.1188 35.8375 37.6054 35.8375Z" fill="#0A13DF"/>
</svg>
